<svg width="380" height="21" viewBox="0 0 380 21" fill="none" xmlns="http://www.w3.org/2000/svg">
<path d="M0.528409 7.40625V6.27273H7.28267V7.40625H4.55966V15H3.24716V7.40625H0.528409ZM9.68714 15.1449C9.27237 15.1449 8.89737 15.0682 8.56214 14.9148C8.22692 14.7585 7.96129 14.5327 7.76527 14.2372C7.57209 13.9418 7.4755 13.5795 7.4755 13.1506C7.4755 12.7812 7.54652 12.4773 7.68857 12.2386C7.83061 12 8.02237 11.8111 8.26385 11.6719C8.50533 11.5327 8.77521 11.4276 9.07351 11.3565C9.3718 11.2855 9.67578 11.2315 9.98544 11.1946C10.3775 11.1491 10.6957 11.1122 10.94 11.0838C11.1843 11.0526 11.3619 11.0028 11.4727 10.9347C11.5835 10.8665 11.6388 10.7557 11.6388 10.6023V10.5724C11.6388 10.2003 11.5337 9.91193 11.3235 9.70739C11.1161 9.50284 10.8065 9.40057 10.3945 9.40057C9.96555 9.40057 9.62749 9.49574 9.38033 9.68608C9.13601 9.87358 8.96697 10.0824 8.87322 10.3125L7.67578 10.0398C7.81783 9.64205 8.02521 9.32102 8.29794 9.0767C8.57351 8.82955 8.89027 8.65057 9.24822 8.53977C9.60618 8.42614 9.9826 8.36932 10.3775 8.36932C10.6388 8.36932 10.9158 8.40057 11.2085 8.46307C11.5039 8.52273 11.7795 8.63352 12.0352 8.79545C12.2937 8.95739 12.5053 9.18892 12.6701 9.49006C12.8349 9.78835 12.9173 10.1761 12.9173 10.6534V15H11.6729V14.1051H11.6218C11.5394 14.2699 11.4158 14.4318 11.2511 14.5909C11.0863 14.75 10.8746 14.8821 10.6161 14.9872C10.3576 15.0923 10.0479 15.1449 9.68714 15.1449ZM9.96413 14.1222C10.3164 14.1222 10.6175 14.0526 10.8675 13.9134C11.1204 13.7741 11.3121 13.5923 11.4428 13.3679C11.5763 13.1406 11.6431 12.8977 11.6431 12.6392V11.7955C11.5977 11.8409 11.5096 11.8835 11.3789 11.9233C11.2511 11.9602 11.1048 11.9929 10.94 12.0213C10.7752 12.0469 10.6147 12.071 10.4585 12.0938C10.3022 12.1136 10.1715 12.1307 10.0664 12.1449C9.81925 12.1761 9.59339 12.2287 9.38885 12.3026C9.18714 12.3764 9.02521 12.483 8.90305 12.6222C8.78374 12.7585 8.72408 12.9403 8.72408 13.1676C8.72408 13.483 8.84055 13.7216 9.07351 13.8835C9.30646 14.0426 9.60334 14.1222 9.96413 14.1222ZM15.62 8.45455L17.0646 11.0028L18.522 8.45455H19.9155L17.8743 11.7273L19.9325 15H18.5391L17.0646 12.554L15.5945 15H14.1967L16.2337 11.7273L14.2223 8.45455H15.62ZM24.3995 15V8.45455H25.6737V15H24.3995ZM25.043 7.4446C24.8214 7.4446 24.631 7.37074 24.4719 7.22301C24.3157 7.07244 24.2376 6.89347 24.2376 6.68608C24.2376 6.47585 24.3157 6.29687 24.4719 6.14915C24.631 5.99858 24.8214 5.9233 25.043 5.9233C25.2646 5.9233 25.4535 5.99858 25.6097 6.14915C25.7688 6.29687 25.8484 6.47585 25.8484 6.68608C25.8484 6.89347 25.7688 7.07244 25.6097 7.22301C25.4535 7.37074 25.2646 7.4446 25.043 7.4446ZM28.6619 11.1136V15H27.3878V8.45455H28.6108V9.51989H28.6918C28.8423 9.1733 29.0781 8.89489 29.3991 8.68466C29.723 8.47443 30.1307 8.36932 30.6222 8.36932C31.0682 8.36932 31.4588 8.46307 31.794 8.65057C32.1293 8.83523 32.3892 9.1108 32.5739 9.47727C32.7585 9.84375 32.8509 10.2969 32.8509 10.8366V15H31.5767V10.9901C31.5767 10.5156 31.4531 10.1449 31.206 9.87784C30.9588 9.60795 30.6193 9.47301 30.1875 9.47301C29.892 9.47301 29.6293 9.53693 29.3991 9.66477C29.1719 9.79261 28.9915 9.98011 28.858 10.2273C28.7273 10.4716 28.6619 10.767 28.6619 11.1136ZM37.6747 8.45455V9.47727H33.9759V8.45455H37.6747ZM34.9901 15V7.69602C34.9901 7.28693 35.0795 6.94744 35.2585 6.67756C35.4375 6.40483 35.6747 6.2017 35.9702 6.06818C36.2656 5.93182 36.5866 5.86364 36.9332 5.86364C37.1889 5.86364 37.4077 5.88494 37.5895 5.92756C37.7713 5.96733 37.9062 6.00426 37.9943 6.03835L37.696 7.0696C37.6364 7.05256 37.5597 7.03267 37.4659 7.00994C37.3722 6.98437 37.2585 6.97159 37.125 6.97159C36.8153 6.97159 36.5938 7.0483 36.4602 7.2017C36.3295 7.35511 36.2642 7.5767 36.2642 7.86648V15H34.9901ZM41.4886 15.1321C40.875 15.1321 40.3395 14.9915 39.8821 14.7102C39.4247 14.429 39.0696 14.0355 38.8168 13.5298C38.5639 13.0241 38.4375 12.4332 38.4375 11.7571C38.4375 11.0781 38.5639 10.4844 38.8168 9.97585C39.0696 9.46733 39.4247 9.07244 39.8821 8.79119C40.3395 8.50994 40.875 8.36932 41.4886 8.36932C42.1023 8.36932 42.6378 8.50994 43.0952 8.79119C43.5526 9.07244 43.9077 9.46733 44.1605 9.97585C44.4134 10.4844 44.5398 11.0781 44.5398 11.7571C44.5398 12.4332 44.4134 13.0241 44.1605 13.5298C43.9077 14.0355 43.5526 14.429 43.0952 14.7102C42.6378 14.9915 42.1023 15.1321 41.4886 15.1321ZM41.4929 14.0625C41.8906 14.0625 42.2202 13.9574 42.4815 13.7472C42.7429 13.5369 42.9361 13.2571 43.0611 12.9077C43.1889 12.5582 43.2528 12.1733 43.2528 11.7528C43.2528 11.3352 43.1889 10.9517 43.0611 10.6023C42.9361 10.25 42.7429 9.96733 42.4815 9.75426C42.2202 9.54119 41.8906 9.43466 41.4929 9.43466C41.0923 9.43466 40.7599 9.54119 40.4957 9.75426C40.2344 9.96733 40.0398 10.25 39.9119 10.6023C39.7869 10.9517 39.7244 11.3352 39.7244 11.7528C39.7244 12.1733 39.7869 12.5582 39.9119 12.9077C40.0398 13.2571 40.2344 13.5369 40.4957 13.7472C40.7599 13.9574 41.0923 14.0625 41.4929 14.0625ZM46.8015 15.081C46.5685 15.081 46.3683 14.9986 46.2006 14.8338C46.033 14.6662 45.9492 14.4645 45.9492 14.2287C45.9492 13.9957 46.033 13.7969 46.2006 13.6321C46.3683 13.4645 46.5685 13.3807 46.8015 13.3807C47.0344 13.3807 47.2347 13.4645 47.4023 13.6321C47.57 13.7969 47.6538 13.9957 47.6538 14.2287C47.6538 14.3849 47.614 14.5284 47.5344 14.6591C47.4577 14.7869 47.3555 14.8892 47.2276 14.9659C47.0998 15.0426 46.9577 15.081 46.8015 15.081ZM46.8015 10.3168C46.5685 10.3168 46.3683 10.233 46.2006 10.0653C46.033 9.89773 45.9492 9.69744 45.9492 9.46449C45.9492 9.23153 46.033 9.03267 46.2006 8.8679C46.3683 8.70028 46.5685 8.61648 46.8015 8.61648C47.0344 8.61648 47.2347 8.70028 47.4023 8.8679C47.57 9.03267 47.6538 9.23153 47.6538 9.46449C47.6538 9.62074 47.614 9.7642 47.5344 9.89489C47.4577 10.0227 47.3555 10.125 47.2276 10.2017C47.0998 10.2784 46.9577 10.3168 46.8015 10.3168Z" fill="#021720"/>
<rect x="55" width="73" height="21" rx="10.5" fill="white" fill-opacity="0.2"/>
<rect x="55" width="73" height="21" rx="10.5" fill="#4945FF" fill-opacity="0.15"/>
<path d="M63.9588 5.77273H65.5568L68.3352 12.5568H68.4375L71.2159 5.77273H72.8139V14.5H71.5611V8.18466H71.4801L68.9062 14.4872H67.8665L65.2926 8.1804H65.2116V14.5H63.9588V5.77273ZM74.6261 14.5V7.95455H75.9002V14.5H74.6261ZM75.2695 6.9446C75.0479 6.9446 74.8576 6.87074 74.6985 6.72301C74.5423 6.57244 74.4641 6.39347 74.4641 6.18608C74.4641 5.97585 74.5423 5.79687 74.6985 5.64915C74.8576 5.49858 75.0479 5.4233 75.2695 5.4233C75.4911 5.4233 75.68 5.49858 75.8363 5.64915C75.9954 5.79687 76.0749 5.97585 76.0749 6.18608C76.0749 6.39347 75.9954 6.57244 75.8363 6.72301C75.68 6.87074 75.4911 6.9446 75.2695 6.9446ZM82.5192 9.55256L81.3643 9.7571C81.3161 9.60937 81.2393 9.46875 81.1342 9.33523C81.032 9.2017 80.8928 9.09233 80.7166 9.0071C80.5405 8.92187 80.3203 8.87926 80.0561 8.87926C79.6953 8.87926 79.3942 8.96023 79.1527 9.12216C78.9112 9.28125 78.7905 9.48722 78.7905 9.74006C78.7905 9.95881 78.8714 10.1349 79.0334 10.2685C79.1953 10.402 79.4567 10.5114 79.8175 10.5966L80.8572 10.8352C81.4595 10.9744 81.9084 11.1889 82.2038 11.4787C82.4993 11.7685 82.647 12.1449 82.647 12.608C82.647 13 82.5334 13.3494 82.3061 13.6562C82.0817 13.9602 81.7678 14.1989 81.3643 14.3722C80.9638 14.5455 80.4993 14.6321 79.9709 14.6321C79.2379 14.6321 78.6399 14.4759 78.1768 14.1634C77.7138 13.848 77.4297 13.4006 77.3246 12.821L78.5561 12.6335C78.6328 12.9545 78.7905 13.1974 79.0291 13.3622C79.2678 13.5241 79.5788 13.6051 79.9624 13.6051C80.38 13.6051 80.7138 13.5185 80.9638 13.3452C81.2138 13.169 81.3388 12.9545 81.3388 12.7017C81.3388 12.4972 81.2621 12.3253 81.1087 12.1861C80.9581 12.0469 80.7266 11.9418 80.4141 11.8707L79.3061 11.6278C78.6953 11.4886 78.2436 11.267 77.951 10.9631C77.6612 10.6591 77.5163 10.2741 77.5163 9.80824C77.5163 9.42187 77.6243 9.08381 77.8402 8.79403C78.0561 8.50426 78.3544 8.27841 78.7351 8.11648C79.1158 7.9517 79.5518 7.86932 80.0433 7.86932C80.7507 7.86932 81.3075 8.02273 81.7138 8.32955C82.12 8.63352 82.3885 9.04119 82.5192 9.55256ZM88.9528 9.55256L87.7979 9.7571C87.7496 9.60937 87.6729 9.46875 87.5678 9.33523C87.4656 9.2017 87.3263 9.09233 87.1502 9.0071C86.9741 8.92187 86.7539 8.87926 86.4897 8.87926C86.1289 8.87926 85.8278 8.96023 85.5863 9.12216C85.3448 9.28125 85.2241 9.48722 85.2241 9.74006C85.2241 9.95881 85.305 10.1349 85.467 10.2685C85.6289 10.402 85.8903 10.5114 86.2511 10.5966L87.2908 10.8352C87.8931 10.9744 88.342 11.1889 88.6374 11.4787C88.9329 11.7685 89.0806 12.1449 89.0806 12.608C89.0806 13 88.967 13.3494 88.7397 13.6562C88.5153 13.9602 88.2013 14.1989 87.7979 14.3722C87.3974 14.5455 86.9329 14.6321 86.4045 14.6321C85.6715 14.6321 85.0735 14.4759 84.6104 14.1634C84.1474 13.848 83.8633 13.4006 83.7582 12.821L84.9897 12.6335C85.0664 12.9545 85.2241 13.1974 85.4627 13.3622C85.7013 13.5241 86.0124 13.6051 86.396 13.6051C86.8136 13.6051 87.1474 13.5185 87.3974 13.3452C87.6474 13.169 87.7724 12.9545 87.7724 12.7017C87.7724 12.4972 87.6957 12.3253 87.5423 12.1861C87.3917 12.0469 87.1602 11.9418 86.8477 11.8707L85.7397 11.6278C85.1289 11.4886 84.6772 11.267 84.3846 10.9631C84.0948 10.6591 83.9499 10.2741 83.9499 9.80824C83.9499 9.42187 84.0579 9.08381 84.2738 8.79403C84.4897 8.50426 84.788 8.27841 85.1687 8.11648C85.5494 7.9517 85.9854 7.86932 86.4769 7.86932C87.1843 7.86932 87.7411 8.02273 88.1474 8.32955C88.5536 8.63352 88.8221 9.04119 88.9528 9.55256ZM90.4815 14.5V7.95455H91.7557V14.5H90.4815ZM91.125 6.9446C90.9034 6.9446 90.7131 6.87074 90.554 6.72301C90.3977 6.57244 90.3196 6.39347 90.3196 6.18608C90.3196 5.97585 90.3977 5.79687 90.554 5.64915C90.7131 5.49858 90.9034 5.4233 91.125 5.4233C91.3466 5.4233 91.5355 5.49858 91.6918 5.64915C91.8509 5.79687 91.9304 5.97585 91.9304 6.18608C91.9304 6.39347 91.8509 6.57244 91.6918 6.72301C91.5355 6.87074 91.3466 6.9446 91.125 6.9446ZM94.744 10.6136V14.5H93.4698V7.95455H94.6928V9.01989H94.7738C94.9244 8.6733 95.1602 8.39489 95.4812 8.18466C95.805 7.97443 96.2127 7.86932 96.7042 7.86932C97.1502 7.86932 97.5408 7.96307 97.8761 8.15057C98.2113 8.33523 98.4712 8.6108 98.6559 8.97727C98.8406 9.34375 98.9329 9.79687 98.9329 10.3366V14.5H97.6587V10.4901C97.6587 10.0156 97.5352 9.64489 97.288 9.37784C97.0408 9.10795 96.7013 8.97301 96.2695 8.97301C95.9741 8.97301 95.7113 9.03693 95.4812 9.16477C95.2539 9.29261 95.0735 9.48011 94.94 9.72727C94.8093 9.97159 94.744 10.267 94.744 10.6136ZM103.386 17.0909C102.866 17.0909 102.419 17.0227 102.044 16.8864C101.672 16.75 101.368 16.5696 101.132 16.3452C100.896 16.1207 100.72 15.875 100.603 15.608L101.699 15.1562C101.775 15.2812 101.877 15.4134 102.005 15.5526C102.136 15.6946 102.312 15.8153 102.534 15.9148C102.758 16.0142 103.047 16.0639 103.399 16.0639C103.882 16.0639 104.281 15.946 104.596 15.7102C104.912 15.4773 105.069 15.1051 105.069 14.5938V13.3068H104.988C104.912 13.446 104.801 13.6009 104.656 13.7713C104.514 13.9418 104.318 14.0895 104.068 14.2145C103.818 14.3395 103.493 14.402 103.092 14.402C102.575 14.402 102.109 14.2812 101.694 14.0398C101.282 13.7955 100.956 13.4361 100.714 12.9616C100.475 12.4844 100.356 11.8977 100.356 11.2017C100.356 10.5057 100.474 9.90909 100.71 9.41193C100.949 8.91477 101.275 8.53409 101.69 8.26989C102.105 8.00284 102.575 7.86932 103.1 7.86932C103.507 7.86932 103.835 7.9375 104.085 8.07386C104.335 8.20739 104.529 8.36364 104.669 8.54261C104.811 8.72159 104.92 8.87926 104.997 9.01562H105.091V7.95455H106.339V14.6449C106.339 15.2074 106.208 15.669 105.947 16.0298C105.686 16.3906 105.332 16.6577 104.886 16.831C104.443 17.0043 103.943 17.0909 103.386 17.0909ZM103.373 13.3452C103.74 13.3452 104.049 13.2599 104.302 13.0895C104.558 12.9162 104.751 12.669 104.882 12.348C105.015 12.0241 105.082 11.6364 105.082 11.1847C105.082 10.7443 105.017 10.3565 104.886 10.0213C104.755 9.68608 104.564 9.42472 104.311 9.23722C104.058 9.04687 103.745 8.9517 103.373 8.9517C102.99 8.9517 102.67 9.05114 102.414 9.25C102.159 9.44602 101.966 9.71307 101.835 10.0511C101.707 10.3892 101.643 10.767 101.643 11.1847C101.643 11.6136 101.708 11.9901 101.839 12.3139C101.97 12.6378 102.163 12.8906 102.419 13.0724C102.677 13.2543 102.995 13.3452 103.373 13.3452Z" fill="#4945FF"/>
<g opacity="0.5">
<path d="M116 9.29203L118.475 6.81714L119.182 7.52424L116.707 9.99913L119.182 12.474L118.475 13.1811L116 10.7062L113.525 13.1811L112.818 12.474L115.293 9.99913L112.818 7.52424L113.525 6.81714L116 9.29203Z" fill="#4945FF"/>
</g>
<path d="M148.528 7.40625V6.27273H155.283V7.40625H152.56V15H151.247V7.40625H148.528ZM158.481 15.1321C157.867 15.1321 157.332 14.9915 156.874 14.7102C156.417 14.429 156.062 14.0355 155.809 13.5298C155.556 13.0241 155.43 12.4332 155.43 11.7571C155.43 11.0781 155.556 10.4844 155.809 9.97585C156.062 9.46733 156.417 9.07244 156.874 8.79119C157.332 8.50994 157.867 8.36932 158.481 8.36932C159.094 8.36932 159.63 8.50994 160.087 8.79119C160.545 9.07244 160.9 9.46733 161.153 9.97585C161.406 10.4844 161.532 11.0781 161.532 11.7571C161.532 12.4332 161.406 13.0241 161.153 13.5298C160.9 14.0355 160.545 14.429 160.087 14.7102C159.63 14.9915 159.094 15.1321 158.481 15.1321ZM158.485 14.0625C158.883 14.0625 159.212 13.9574 159.474 13.7472C159.735 13.5369 159.928 13.2571 160.053 12.9077C160.181 12.5582 160.245 12.1733 160.245 11.7528C160.245 11.3352 160.181 10.9517 160.053 10.6023C159.928 10.25 159.735 9.96733 159.474 9.75426C159.212 9.54119 158.883 9.43466 158.485 9.43466C158.085 9.43466 157.752 9.54119 157.488 9.75426C157.227 9.96733 157.032 10.25 156.904 10.6023C156.779 10.9517 156.717 11.3352 156.717 11.7528C156.717 12.1733 156.779 12.5582 156.904 12.9077C157.032 13.2571 157.227 13.5369 157.488 13.7472C157.752 13.9574 158.085 14.0625 158.485 14.0625ZM166.01 8.45455V9.47727H162.434V8.45455H166.01ZM163.393 6.88636H164.667V13.0781C164.667 13.3253 164.704 13.5114 164.778 13.6364C164.852 13.7585 164.947 13.8423 165.064 13.8878C165.183 13.9304 165.312 13.9517 165.451 13.9517C165.554 13.9517 165.643 13.9446 165.72 13.9304C165.797 13.9162 165.856 13.9048 165.899 13.8963L166.129 14.9489C166.055 14.9773 165.95 15.0057 165.814 15.0341C165.677 15.0653 165.507 15.0824 165.302 15.0852C164.967 15.0909 164.654 15.0312 164.365 14.9062C164.075 14.7812 163.841 14.5881 163.662 14.3267C163.483 14.0653 163.393 13.7372 163.393 13.3423V6.88636ZM169.324 15.1449C168.909 15.1449 168.534 15.0682 168.199 14.9148C167.864 14.7585 167.598 14.5327 167.402 14.2372C167.209 13.9418 167.112 13.5795 167.112 13.1506C167.112 12.7812 167.183 12.4773 167.325 12.2386C167.467 12 167.659 11.8111 167.901 11.6719C168.142 11.5327 168.412 11.4276 168.71 11.3565C169.009 11.2855 169.313 11.2315 169.622 11.1946C170.014 11.1491 170.332 11.1122 170.577 11.0838C170.821 11.0526 170.999 11.0028 171.109 10.9347C171.22 10.8665 171.276 10.7557 171.276 10.6023V10.5724C171.276 10.2003 171.17 9.91193 170.96 9.70739C170.753 9.50284 170.443 9.40057 170.031 9.40057C169.602 9.40057 169.264 9.49574 169.017 9.68608C168.773 9.87358 168.604 10.0824 168.51 10.3125L167.312 10.0398C167.455 9.64205 167.662 9.32102 167.935 9.0767C168.21 8.82955 168.527 8.65057 168.885 8.53977C169.243 8.42614 169.619 8.36932 170.014 8.36932C170.276 8.36932 170.553 8.40057 170.845 8.46307C171.141 8.52273 171.416 8.63352 171.672 8.79545C171.93 8.95739 172.142 9.18892 172.307 9.49006C172.472 9.78835 172.554 10.1761 172.554 10.6534V15H171.31V14.1051H171.259C171.176 14.2699 171.053 14.4318 170.888 14.5909C170.723 14.75 170.511 14.8821 170.253 14.9872C169.994 15.0923 169.685 15.1449 169.324 15.1449ZM169.601 14.1222C169.953 14.1222 170.254 14.0526 170.504 13.9134C170.757 13.7741 170.949 13.5923 171.08 13.3679C171.213 13.1406 171.28 12.8977 171.28 12.6392V11.7955C171.234 11.8409 171.146 11.8835 171.016 11.9233C170.888 11.9602 170.741 11.9929 170.577 12.0213C170.412 12.0469 170.251 12.071 170.095 12.0938C169.939 12.1136 169.808 12.1307 169.703 12.1449C169.456 12.1761 169.23 12.2287 169.026 12.3026C168.824 12.3764 168.662 12.483 168.54 12.6222C168.42 12.7585 168.361 12.9403 168.361 13.1676C168.361 13.483 168.477 13.7216 168.71 13.8835C168.943 14.0426 169.24 14.1222 169.601 14.1222ZM175.525 6.27273V15H174.251V6.27273H175.525ZM180.415 17.4545V8.45455H181.659V9.51562H181.766C181.84 9.37926 181.946 9.22159 182.086 9.04261C182.225 8.86364 182.418 8.70739 182.665 8.57386C182.912 8.4375 183.239 8.36932 183.645 8.36932C184.174 8.36932 184.645 8.50284 185.06 8.76989C185.475 9.03693 185.8 9.42187 186.036 9.92472C186.275 10.4276 186.394 11.0327 186.394 11.7401C186.394 12.4474 186.276 13.054 186.04 13.5597C185.804 14.0625 185.48 14.4503 185.069 14.723C184.657 14.9929 184.186 15.1278 183.658 15.1278C183.26 15.1278 182.935 15.0611 182.682 14.9276C182.432 14.794 182.236 14.6378 182.094 14.4588C181.952 14.2798 181.843 14.1207 181.766 13.9815H181.689V17.4545H180.415ZM181.664 11.7273C181.664 12.1875 181.73 12.5909 181.864 12.9375C181.998 13.2841 182.191 13.5554 182.444 13.7514C182.696 13.9446 183.006 14.0412 183.373 14.0412C183.753 14.0412 184.071 13.9403 184.327 13.7386C184.583 13.5341 184.776 13.2571 184.907 12.9077C185.04 12.5582 185.107 12.1648 185.107 11.7273C185.107 11.2955 185.042 10.9077 184.911 10.5639C184.783 10.2202 184.59 9.94886 184.331 9.75C184.076 9.55114 183.756 9.4517 183.373 9.4517C183.003 9.4517 182.691 9.54687 182.435 9.73722C182.182 9.92756 181.99 10.1932 181.86 10.5341C181.729 10.875 181.664 11.2727 181.664 11.7273ZM189.726 15.1449C189.311 15.1449 188.936 15.0682 188.601 14.9148C188.266 14.7585 188 14.5327 187.804 14.2372C187.611 13.9418 187.515 13.5795 187.515 13.1506C187.515 12.7812 187.586 12.4773 187.728 12.2386C187.87 12 188.061 11.8111 188.303 11.6719C188.544 11.5327 188.814 11.4276 189.113 11.3565C189.411 11.2855 189.715 11.2315 190.025 11.1946C190.417 11.1491 190.735 11.1122 190.979 11.0838C191.223 11.0526 191.401 11.0028 191.512 10.9347C191.623 10.8665 191.678 10.7557 191.678 10.6023V10.5724C191.678 10.2003 191.573 9.91193 191.363 9.70739C191.155 9.50284 190.846 9.40057 190.434 9.40057C190.005 9.40057 189.667 9.49574 189.419 9.68608C189.175 9.87358 189.006 10.0824 188.912 10.3125L187.715 10.0398C187.857 9.64205 188.064 9.32102 188.337 9.0767C188.613 8.82955 188.929 8.65057 189.287 8.53977C189.645 8.42614 190.022 8.36932 190.417 8.36932C190.678 8.36932 190.955 8.40057 191.248 8.46307C191.543 8.52273 191.819 8.63352 192.074 8.79545C192.333 8.95739 192.544 9.18892 192.709 9.49006C192.874 9.78835 192.956 10.1761 192.956 10.6534V15H191.712V14.1051H191.661C191.578 14.2699 191.455 14.4318 191.29 14.5909C191.125 14.75 190.914 14.8821 190.655 14.9872C190.397 15.0923 190.087 15.1449 189.726 15.1449ZM190.003 14.1222C190.355 14.1222 190.657 14.0526 190.907 13.9134C191.159 13.7741 191.351 13.5923 191.482 13.3679C191.615 13.1406 191.682 12.8977 191.682 12.6392V11.7955C191.637 11.8409 191.549 11.8835 191.418 11.9233C191.29 11.9602 191.144 11.9929 190.979 12.0213C190.814 12.0469 190.654 12.071 190.498 12.0938C190.341 12.1136 190.211 12.1307 190.105 12.1449C189.858 12.1761 189.632 12.2287 189.428 12.3026C189.226 12.3764 189.064 12.483 188.942 12.6222C188.823 12.7585 188.763 12.9403 188.763 13.1676C188.763 13.483 188.88 13.7216 189.113 13.8835C189.346 14.0426 189.642 14.1222 190.003 14.1222ZM194.653 15V8.45455H195.928V15H194.653ZM195.297 7.4446C195.075 7.4446 194.885 7.37074 194.726 7.22301C194.57 7.07244 194.491 6.89347 194.491 6.68608C194.491 6.47585 194.57 6.29687 194.726 6.14915C194.885 5.99858 195.075 5.9233 195.297 5.9233C195.518 5.9233 195.707 5.99858 195.864 6.14915C196.023 6.29687 196.102 6.47585 196.102 6.68608C196.102 6.89347 196.023 7.07244 195.864 7.22301C195.707 7.37074 195.518 7.4446 195.297 7.4446ZM200.092 15.1278C199.564 15.1278 199.092 14.9929 198.677 14.723C198.265 14.4503 197.941 14.0625 197.706 13.5597C197.473 13.054 197.356 12.4474 197.356 11.7401C197.356 11.0327 197.474 10.4276 197.71 9.92472C197.949 9.42187 198.275 9.03693 198.69 8.76989C199.105 8.50284 199.575 8.36932 200.1 8.36932C200.507 8.36932 200.833 8.4375 201.081 8.57386C201.331 8.70739 201.524 8.86364 201.66 9.04261C201.799 9.22159 201.907 9.37926 201.984 9.51562H202.061V6.27273H203.335V15H202.091V13.9815H201.984C201.907 14.1207 201.797 14.2798 201.652 14.4588C201.51 14.6378 201.314 14.794 201.064 14.9276C200.814 15.0611 200.49 15.1278 200.092 15.1278ZM200.373 14.0412C200.74 14.0412 201.049 13.9446 201.302 13.7514C201.558 13.5554 201.751 13.2841 201.882 12.9375C202.015 12.5909 202.082 12.1875 202.082 11.7273C202.082 11.2727 202.017 10.875 201.886 10.5341C201.755 10.1932 201.564 9.92756 201.311 9.73722C201.058 9.54687 200.745 9.4517 200.373 9.4517C199.99 9.4517 199.67 9.55114 199.414 9.75C199.159 9.94886 198.966 10.2202 198.835 10.5639C198.707 10.9077 198.643 11.2955 198.643 11.7273C198.643 12.1648 198.708 12.5582 198.839 12.9077C198.97 13.2571 199.163 13.5341 199.419 13.7386C199.677 13.9403 199.995 14.0412 200.373 14.0412ZM208.329 15V8.45455H209.603V15H208.329ZM208.973 7.4446C208.751 7.4446 208.561 7.37074 208.402 7.22301C208.245 7.07244 208.167 6.89347 208.167 6.68608C208.167 6.47585 208.245 6.29687 208.402 6.14915C208.561 5.99858 208.751 5.9233 208.973 5.9233C209.194 5.9233 209.383 5.99858 209.539 6.14915C209.699 6.29687 209.778 6.47585 209.778 6.68608C209.778 6.89347 209.699 7.07244 209.539 7.22301C209.383 7.37074 209.194 7.4446 208.973 7.4446ZM212.592 11.1136V15H211.317V8.45455H212.54V9.51989H212.621C212.772 9.1733 213.008 8.89489 213.329 8.68466C213.653 8.47443 214.06 8.36932 214.552 8.36932C214.998 8.36932 215.388 8.46307 215.724 8.65057C216.059 8.83523 216.319 9.1108 216.504 9.47727C216.688 9.84375 216.781 10.2969 216.781 10.8366V15H215.506V10.9901C215.506 10.5156 215.383 10.1449 215.136 9.87784C214.888 9.60795 214.549 9.47301 214.117 9.47301C213.822 9.47301 213.559 9.53693 213.329 9.66477C213.102 9.79261 212.921 9.98011 212.788 10.2273C212.657 10.4716 212.592 10.767 212.592 11.1136ZM223.57 15.1449C223.155 15.1449 222.78 15.0682 222.445 14.9148C222.11 14.7585 221.844 14.5327 221.648 14.2372C221.455 13.9418 221.358 13.5795 221.358 13.1506C221.358 12.7812 221.429 12.4773 221.571 12.2386C221.713 12 221.905 11.8111 222.147 11.6719C222.388 11.5327 222.658 11.4276 222.956 11.3565C223.255 11.2855 223.559 11.2315 223.868 11.1946C224.26 11.1491 224.578 11.1122 224.823 11.0838C225.067 11.0526 225.245 11.0028 225.355 10.9347C225.466 10.8665 225.522 10.7557 225.522 10.6023V10.5724C225.522 10.2003 225.417 9.91193 225.206 9.70739C224.999 9.50284 224.689 9.40057 224.277 9.40057C223.848 9.40057 223.51 9.49574 223.263 9.68608C223.019 9.87358 222.85 10.0824 222.756 10.3125L221.559 10.0398C221.701 9.64205 221.908 9.32102 222.181 9.0767C222.456 8.82955 222.773 8.65057 223.131 8.53977C223.489 8.42614 223.865 8.36932 224.26 8.36932C224.522 8.36932 224.799 8.40057 225.091 8.46307C225.387 8.52273 225.662 8.63352 225.918 8.79545C226.176 8.95739 226.388 9.18892 226.553 9.49006C226.718 9.78835 226.8 10.1761 226.8 10.6534V15H225.556V14.1051H225.505C225.422 14.2699 225.299 14.4318 225.134 14.5909C224.969 14.75 224.757 14.8821 224.499 14.9872C224.24 15.0923 223.931 15.1449 223.57 15.1449ZM223.847 14.1222C224.199 14.1222 224.5 14.0526 224.75 13.9134C225.003 13.7741 225.195 13.5923 225.326 13.3679C225.459 13.1406 225.526 12.8977 225.526 12.6392V11.7955C225.48 11.8409 225.392 11.8835 225.262 11.9233C225.134 11.9602 224.988 11.9929 224.823 12.0213C224.658 12.0469 224.498 12.071 224.341 12.0938C224.185 12.1136 224.054 12.1307 223.949 12.1449C223.702 12.1761 223.476 12.2287 223.272 12.3026C223.07 12.3764 222.908 12.483 222.786 12.6222C222.667 12.7585 222.607 12.9403 222.607 13.1676C222.607 13.483 222.723 13.7216 222.956 13.8835C223.189 14.0426 223.486 14.1222 223.847 14.1222ZM232.478 17.4545C232.288 17.4545 232.115 17.4389 231.958 17.4077C231.802 17.3793 231.686 17.348 231.609 17.3139L231.916 16.2699C232.149 16.3324 232.356 16.3594 232.538 16.3509C232.72 16.3423 232.88 16.2741 233.02 16.1463C233.162 16.0185 233.287 15.8097 233.395 15.5199L233.552 15.0852L231.157 8.45455H232.521L234.179 13.5341H234.247L235.904 8.45455H237.272L234.575 15.8736C234.45 16.2145 234.291 16.5028 234.098 16.7386C233.904 16.9773 233.674 17.1563 233.407 17.2756C233.14 17.3949 232.831 17.4545 232.478 17.4545ZM241.068 15.1321C240.423 15.1321 239.868 14.9943 239.402 14.7188C238.939 14.4403 238.581 14.0497 238.328 13.5469C238.078 13.0412 237.953 12.4489 237.953 11.7699C237.953 11.0994 238.078 10.5085 238.328 9.99716C238.581 9.4858 238.933 9.08665 239.385 8.79972C239.839 8.51278 240.371 8.36932 240.979 8.36932C241.348 8.36932 241.706 8.4304 242.053 8.55256C242.399 8.67472 242.71 8.86648 242.986 9.12784C243.261 9.3892 243.479 9.72869 243.638 10.1463C243.797 10.5611 243.876 11.0653 243.876 11.6591V12.1108H238.673V11.1562H242.628C242.628 10.821 242.56 10.5241 242.423 10.2656C242.287 10.0043 242.095 9.7983 241.848 9.64773C241.604 9.49716 241.317 9.42188 240.987 9.42188C240.629 9.42188 240.317 9.50994 240.05 9.68608C239.786 9.85937 239.581 10.0866 239.436 10.3679C239.294 10.6463 239.223 10.9489 239.223 11.2756V12.0213C239.223 12.4588 239.3 12.831 239.453 13.1378C239.609 13.4446 239.827 13.679 240.105 13.8409C240.384 14 240.709 14.0795 241.081 14.0795C241.322 14.0795 241.543 14.0455 241.741 13.9773C241.94 13.9062 242.112 13.8011 242.257 13.6619C242.402 13.5227 242.513 13.3509 242.589 13.1463L243.795 13.3636C243.699 13.7187 243.526 14.0298 243.276 14.2969C243.028 14.5611 242.717 14.767 242.342 14.9148C241.97 15.0597 241.545 15.1321 241.068 15.1321ZM247.195 15.1449C246.78 15.1449 246.405 15.0682 246.07 14.9148C245.735 14.7585 245.469 14.5327 245.273 14.2372C245.08 13.9418 244.983 13.5795 244.983 13.1506C244.983 12.7812 245.054 12.4773 245.196 12.2386C245.338 12 245.53 11.8111 245.772 11.6719C246.013 11.5327 246.283 11.4276 246.581 11.3565C246.88 11.2855 247.184 11.2315 247.493 11.1946C247.885 11.1491 248.203 11.1122 248.448 11.0838C248.692 11.0526 248.87 11.0028 248.98 10.9347C249.091 10.8665 249.147 10.7557 249.147 10.6023V10.5724C249.147 10.2003 249.042 9.91193 248.831 9.70739C248.624 9.50284 248.314 9.40057 247.902 9.40057C247.473 9.40057 247.135 9.49574 246.888 9.68608C246.644 9.87358 246.475 10.0824 246.381 10.3125L245.184 10.0398C245.326 9.64205 245.533 9.32102 245.806 9.0767C246.081 8.82955 246.398 8.65057 246.756 8.53977C247.114 8.42614 247.49 8.36932 247.885 8.36932C248.147 8.36932 248.424 8.40057 248.716 8.46307C249.012 8.52273 249.287 8.63352 249.543 8.79545C249.801 8.95739 250.013 9.18892 250.178 9.49006C250.343 9.78835 250.425 10.1761 250.425 10.6534V15H249.181V14.1051H249.13C249.047 14.2699 248.924 14.4318 248.759 14.5909C248.594 14.75 248.382 14.8821 248.124 14.9872C247.865 15.0923 247.556 15.1449 247.195 15.1449ZM247.472 14.1222C247.824 14.1222 248.125 14.0526 248.375 13.9134C248.628 13.7741 248.82 13.5923 248.951 13.3679C249.084 13.1406 249.151 12.8977 249.151 12.6392V11.7955C249.105 11.8409 249.017 11.8835 248.887 11.9233C248.759 11.9602 248.613 11.9929 248.448 12.0213C248.283 12.0469 248.123 12.071 247.966 12.0938C247.81 12.1136 247.679 12.1307 247.574 12.1449C247.327 12.1761 247.101 12.2287 246.897 12.3026C246.695 12.3764 246.533 12.483 246.411 12.6222C246.292 12.7585 246.232 12.9403 246.232 13.1676C246.232 13.483 246.348 13.7216 246.581 13.8835C246.814 14.0426 247.111 14.1222 247.472 14.1222ZM252.122 15V8.45455H253.354V9.49432H253.422C253.541 9.14205 253.751 8.86506 254.053 8.66335C254.357 8.45881 254.7 8.35653 255.084 8.35653C255.163 8.35653 255.257 8.35937 255.365 8.36506C255.476 8.37074 255.562 8.37784 255.625 8.38636V9.60511C255.574 9.59091 255.483 9.57528 255.352 9.55824C255.222 9.53835 255.091 9.52841 254.96 9.52841C254.659 9.52841 254.391 9.59233 254.155 9.72017C253.922 9.84517 253.737 10.0199 253.601 10.2443C253.464 10.4659 253.396 10.7187 253.396 11.0028V15H252.122ZM257.567 15.081C257.334 15.081 257.134 14.9986 256.966 14.8338C256.799 14.6662 256.715 14.4645 256.715 14.2287C256.715 13.9957 256.799 13.7969 256.966 13.6321C257.134 13.4645 257.334 13.3807 257.567 13.3807C257.8 13.3807 258 13.4645 258.168 13.6321C258.336 13.7969 258.419 13.9957 258.419 14.2287C258.419 14.3849 258.38 14.5284 258.3 14.6591C258.223 14.7869 258.121 14.8892 257.993 14.9659C257.865 15.0426 257.723 15.081 257.567 15.081ZM257.567 10.3168C257.334 10.3168 257.134 10.233 256.966 10.0653C256.799 9.89773 256.715 9.69744 256.715 9.46449C256.715 9.23153 256.799 9.03267 256.966 8.8679C257.134 8.70028 257.334 8.61648 257.567 8.61648C257.8 8.61648 258 8.70028 258.168 8.8679C258.336 9.03267 258.419 9.23153 258.419 9.46449C258.419 9.62074 258.38 9.7642 258.3 9.89489C258.223 10.0227 258.121 10.125 257.993 10.2017C257.865 10.2784 257.723 10.3168 257.567 10.3168Z" fill="#021720"/>
<rect x="266" width="114" height="21" rx="10.5" fill="white" fill-opacity="0.2"/>
<rect x="266" width="114" height="21" rx="10.5" fill="#4945FF" fill-opacity="0.15"/>
<path d="M280.827 10.7244L275.168 13.4688V12.1648L279.344 10.2642L279.301 10.3366V10.1534L279.344 10.2301L275.168 8.32528V7.02557L280.827 9.76989V10.7244ZM285.879 14.6193C285.489 14.6136 285.106 14.5426 284.728 14.4062C284.353 14.2699 284.012 14.0426 283.705 13.7244C283.398 13.4062 283.153 12.9787 282.968 12.4418C282.786 11.9048 282.695 11.2344 282.695 10.4304C282.695 9.66903 282.771 8.9929 282.921 8.40199C283.075 7.81108 283.295 7.3125 283.582 6.90625C283.869 6.49716 284.215 6.18608 284.621 5.97301C285.028 5.75994 285.484 5.65341 285.989 5.65341C286.509 5.65341 286.971 5.75568 287.374 5.96023C287.778 6.16477 288.104 6.44744 288.354 6.80824C288.607 7.16903 288.768 7.57955 288.836 8.03977H287.536C287.448 7.67614 287.273 7.37926 287.012 7.14915C286.751 6.91903 286.41 6.80398 285.989 6.80398C285.35 6.80398 284.852 7.08239 284.494 7.6392C284.138 8.19602 283.96 8.97017 283.957 9.96165H284.021C284.171 9.71449 284.356 9.50426 284.575 9.33097C284.796 9.15483 285.043 9.01989 285.316 8.92614C285.592 8.82955 285.881 8.78125 286.185 8.78125C286.691 8.78125 287.148 8.90483 287.558 9.15199C287.969 9.39631 288.298 9.73437 288.542 10.1662C288.786 10.598 288.908 11.0923 288.908 11.6491C288.908 12.206 288.782 12.7102 288.529 13.1619C288.279 13.6136 287.927 13.9716 287.472 14.2358C287.018 14.4972 286.487 14.625 285.879 14.6193ZM285.874 13.5114C286.21 13.5114 286.509 13.429 286.773 13.2642C287.038 13.0994 287.246 12.8778 287.4 12.5994C287.553 12.321 287.63 12.0099 287.63 11.6662C287.63 11.331 287.555 11.0256 287.404 10.75C287.256 10.4744 287.052 10.2557 286.79 10.0938C286.532 9.93182 286.237 9.85085 285.904 9.85085C285.651 9.85085 285.417 9.89915 285.201 9.99574C284.988 10.0923 284.8 10.2259 284.638 10.3963C284.477 10.5668 284.349 10.7628 284.255 10.9844C284.164 11.2031 284.119 11.4347 284.119 11.679C284.119 12.0057 284.194 12.3082 284.344 12.5866C284.498 12.8651 284.707 13.0895 284.971 13.2599C285.238 13.4276 285.539 13.5114 285.874 13.5114ZM293.499 14.6449C292.826 14.642 292.25 14.4645 291.773 14.1122C291.296 13.7599 290.931 13.2472 290.678 12.5739C290.425 11.9006 290.299 11.0895 290.299 10.1406C290.299 9.1946 290.425 8.38636 290.678 7.71591C290.934 7.04545 291.3 6.53409 291.777 6.18182C292.257 5.82955 292.831 5.65341 293.499 5.65341C294.167 5.65341 294.739 5.83097 295.216 6.18608C295.694 6.53835 296.059 7.04972 296.311 7.72017C296.567 8.38778 296.695 9.1946 296.695 10.1406C296.695 11.0923 296.569 11.9048 296.316 12.5781C296.063 13.2486 295.698 13.7614 295.221 14.1165C294.743 14.4688 294.169 14.6449 293.499 14.6449ZM293.499 13.5071C294.09 13.5071 294.551 13.2188 294.884 12.642C295.219 12.0653 295.387 11.2315 295.387 10.1406C295.387 9.41619 295.31 8.80398 295.157 8.30398C295.006 7.80114 294.789 7.42045 294.505 7.16193C294.223 6.90057 293.888 6.76989 293.499 6.76989C292.911 6.76989 292.449 7.05966 292.114 7.6392C291.779 8.21875 291.61 9.05256 291.607 10.1406C291.607 10.8679 291.682 11.483 291.833 11.9858C291.986 12.4858 292.203 12.8651 292.485 13.1236C292.766 13.3793 293.104 13.5071 293.499 13.5071ZM301.245 14.6449C300.572 14.642 299.996 14.4645 299.519 14.1122C299.042 13.7599 298.677 13.2472 298.424 12.5739C298.171 11.9006 298.045 11.0895 298.045 10.1406C298.045 9.1946 298.171 8.38636 298.424 7.71591C298.68 7.04545 299.046 6.53409 299.523 6.18182C300.004 5.82955 300.577 5.65341 301.245 5.65341C301.913 5.65341 302.485 5.83097 302.962 6.18608C303.44 6.53835 303.805 7.04972 304.058 7.72017C304.313 8.38778 304.441 9.1946 304.441 10.1406C304.441 11.0923 304.315 11.9048 304.062 12.5781C303.809 13.2486 303.444 13.7614 302.967 14.1165C302.489 14.4688 301.915 14.6449 301.245 14.6449ZM301.245 13.5071C301.836 13.5071 302.298 13.2188 302.63 12.642C302.965 12.0653 303.133 11.2315 303.133 10.1406C303.133 9.41619 303.056 8.80398 302.903 8.30398C302.752 7.80114 302.535 7.42045 302.251 7.16193C301.969 6.90057 301.634 6.76989 301.245 6.76989C300.657 6.76989 300.195 7.05966 299.86 7.6392C299.525 8.21875 299.356 9.05256 299.353 10.1406C299.353 10.8679 299.428 11.483 299.579 11.9858C299.732 12.4858 299.95 12.8651 300.231 13.1236C300.512 13.3793 300.85 13.5071 301.245 13.5071ZM307.311 13.3068L307.247 13.7713C307.205 14.1122 307.132 14.4673 307.03 14.8366C306.93 15.2088 306.827 15.554 306.719 15.8722C306.614 16.1903 306.527 16.4432 306.459 16.6307H305.555C305.592 16.4545 305.643 16.2159 305.709 15.9148C305.774 15.6165 305.838 15.2827 305.901 14.9134C305.963 14.544 306.01 14.1676 306.041 13.7841L306.084 13.3068H307.311ZM311.815 14.6449C311.142 14.642 310.567 14.4645 310.089 14.1122C309.612 13.7599 309.247 13.2472 308.994 12.5739C308.741 11.9006 308.615 11.0895 308.615 10.1406C308.615 9.1946 308.741 8.38636 308.994 7.71591C309.25 7.04545 309.616 6.53409 310.094 6.18182C310.574 5.82955 311.148 5.65341 311.815 5.65341C312.483 5.65341 313.055 5.83097 313.533 6.18608C314.01 6.53835 314.375 7.04972 314.628 7.72017C314.884 8.38778 315.011 9.1946 315.011 10.1406C315.011 11.0923 314.885 11.9048 314.632 12.5781C314.379 13.2486 314.014 13.7614 313.537 14.1165C313.06 14.4688 312.486 14.6449 311.815 14.6449ZM311.815 13.5071C312.406 13.5071 312.868 13.2188 313.2 12.642C313.536 12.0653 313.703 11.2315 313.703 10.1406C313.703 9.41619 313.626 8.80398 313.473 8.30398C313.322 7.80114 313.105 7.42045 312.821 7.16193C312.54 6.90057 312.205 6.76989 311.815 6.76989C311.227 6.76989 310.766 7.05966 310.43 7.6392C310.095 8.21875 309.926 9.05256 309.923 10.1406C309.923 10.8679 309.999 11.483 310.149 11.9858C310.303 12.4858 310.52 12.8651 310.801 13.1236C311.082 13.3793 311.42 13.5071 311.815 13.5071ZM319.561 14.6449C318.888 14.642 318.313 14.4645 317.836 14.1122C317.358 13.7599 316.993 13.2472 316.74 12.5739C316.488 11.9006 316.361 11.0895 316.361 10.1406C316.361 9.1946 316.488 8.38636 316.74 7.71591C316.996 7.04545 317.363 6.53409 317.84 6.18182C318.32 5.82955 318.894 5.65341 319.561 5.65341C320.229 5.65341 320.801 5.83097 321.279 6.18608C321.756 6.53835 322.121 7.04972 322.374 7.72017C322.63 8.38778 322.757 9.1946 322.757 10.1406C322.757 11.0923 322.631 11.9048 322.378 12.5781C322.125 13.2486 321.76 13.7614 321.283 14.1165C320.806 14.4688 320.232 14.6449 319.561 14.6449ZM319.561 13.5071C320.152 13.5071 320.614 13.2188 320.946 12.642C321.282 12.0653 321.449 11.2315 321.449 10.1406C321.449 9.41619 321.373 8.80398 321.219 8.30398C321.069 7.80114 320.851 7.42045 320.567 7.16193C320.286 6.90057 319.951 6.76989 319.561 6.76989C318.973 6.76989 318.512 7.05966 318.176 7.6392C317.841 8.21875 317.672 9.05256 317.669 10.1406C317.669 10.8679 317.745 11.483 317.895 11.9858C318.049 12.4858 318.266 12.8651 318.547 13.1236C318.828 13.3793 319.167 13.5071 319.561 13.5071ZM327.308 14.6449C326.634 14.642 326.059 14.4645 325.582 14.1122C325.104 13.7599 324.739 13.2472 324.487 12.5739C324.234 11.9006 324.107 11.0895 324.107 10.1406C324.107 9.1946 324.234 8.38636 324.487 7.71591C324.742 7.04545 325.109 6.53409 325.586 6.18182C326.066 5.82955 326.64 5.65341 327.308 5.65341C327.975 5.65341 328.548 5.83097 329.025 6.18608C329.502 6.53835 329.867 7.04972 330.12 7.72017C330.376 8.38778 330.504 9.1946 330.504 10.1406C330.504 11.0923 330.377 11.9048 330.124 12.5781C329.871 13.2486 329.506 13.7614 329.029 14.1165C328.552 14.4688 327.978 14.6449 327.308 14.6449ZM327.308 13.5071C327.898 13.5071 328.36 13.2188 328.692 12.642C329.028 12.0653 329.195 11.2315 329.195 10.1406C329.195 9.41619 329.119 8.80398 328.965 8.30398C328.815 7.80114 328.597 7.42045 328.313 7.16193C328.032 6.90057 327.697 6.76989 327.308 6.76989C326.719 6.76989 326.258 7.05966 325.923 7.6392C325.587 8.21875 325.418 9.05256 325.415 10.1406C325.415 10.8679 325.491 11.483 325.641 11.9858C325.795 12.4858 326.012 12.8651 326.293 13.1236C326.575 13.3793 326.913 13.5071 327.308 13.5071ZM340.923 5.77273H342.244V11.5128C342.244 12.1236 342.1 12.6648 341.813 13.1364C341.526 13.6051 341.123 13.9744 340.603 14.2443C340.083 14.5114 339.474 14.6449 338.775 14.6449C338.079 14.6449 337.471 14.5114 336.951 14.2443C336.431 13.9744 336.028 13.6051 335.741 13.1364C335.454 12.6648 335.31 12.1236 335.31 11.5128V5.77273H336.627V11.4062C336.627 11.8011 336.714 12.152 336.887 12.4588C337.063 12.7656 337.312 13.0071 337.633 13.1832C337.954 13.3565 338.335 13.4432 338.775 13.4432C339.218 13.4432 339.6 13.3565 339.921 13.1832C340.245 13.0071 340.492 12.7656 340.663 12.4588C340.836 12.152 340.923 11.8011 340.923 11.4062V5.77273ZM348.918 8.06534C348.873 7.66193 348.685 7.34943 348.355 7.12784C348.026 6.90341 347.611 6.79119 347.111 6.79119C346.753 6.79119 346.444 6.84801 346.182 6.96165C345.921 7.07244 345.718 7.22585 345.573 7.42188C345.431 7.61506 345.36 7.83523 345.36 8.08239C345.36 8.28977 345.408 8.46875 345.505 8.61932C345.604 8.76989 345.733 8.89631 345.892 8.99858C346.054 9.09801 346.228 9.18182 346.412 9.25C346.597 9.31534 346.775 9.36932 346.945 9.41193L347.797 9.63352C348.076 9.7017 348.361 9.79403 348.654 9.91051C348.946 10.027 349.218 10.1804 349.468 10.3707C349.718 10.5611 349.919 10.7969 350.073 11.0781C350.229 11.3594 350.307 11.696 350.307 12.0881C350.307 12.5824 350.179 13.0213 349.924 13.4048C349.671 13.7884 349.303 14.0909 348.82 14.3125C348.34 14.5341 347.759 14.6449 347.077 14.6449C346.424 14.6449 345.858 14.5412 345.381 14.3338C344.904 14.1264 344.53 13.8324 344.26 13.4517C343.99 13.0682 343.841 12.6136 343.813 12.0881H345.134C345.159 12.4034 345.262 12.6662 345.441 12.8764C345.623 13.0838 345.854 13.2386 346.135 13.3409C346.419 13.4403 346.73 13.4901 347.069 13.4901C347.441 13.4901 347.772 13.4318 348.061 13.3153C348.354 13.196 348.584 13.0312 348.752 12.821C348.919 12.608 349.003 12.3594 349.003 12.0753C349.003 11.8168 348.929 11.6051 348.782 11.4403C348.637 11.2756 348.439 11.1392 348.189 11.0312C347.942 10.9233 347.662 10.8281 347.35 10.7457L346.319 10.4645C345.62 10.2741 345.066 9.99432 344.657 9.625C344.25 9.25568 344.047 8.76705 344.047 8.15909C344.047 7.65625 344.184 7.21733 344.456 6.84233C344.729 6.46733 345.098 6.17614 345.564 5.96875C346.03 5.75852 346.556 5.65341 347.141 5.65341C347.732 5.65341 348.253 5.7571 348.705 5.96449C349.159 6.17188 349.517 6.45739 349.779 6.82102C350.04 7.18182 350.176 7.59659 350.188 8.06534H348.918ZM354.706 14.5H351.881V5.77273H354.795C355.651 5.77273 356.385 5.94744 356.999 6.29688C357.612 6.64347 358.082 7.14205 358.409 7.79261C358.739 8.44034 358.903 9.21733 358.903 10.1236C358.903 11.0327 358.737 11.8139 358.405 12.4673C358.075 13.1207 357.598 13.6236 356.973 13.9759C356.348 14.3253 355.592 14.5 354.706 14.5ZM353.197 13.3494H354.634C355.298 13.3494 355.851 13.2244 356.291 12.9744C356.732 12.7216 357.061 12.3565 357.28 11.8793C357.499 11.3991 357.608 10.8139 357.608 10.1236C357.608 9.43892 357.499 8.85795 357.28 8.38068C357.064 7.90341 356.741 7.54119 356.312 7.29403C355.884 7.04687 355.351 6.9233 354.714 6.9233H353.197V13.3494Z" fill="#4945FF"/>
<g opacity="0.5">
<path d="M368 9.29203L370.475 6.81714L371.182 7.52424L368.707 9.99913L371.182 12.474L370.475 13.1811L368 10.7062L365.525 13.1811L364.818 12.474L367.293 9.99913L364.818 7.52424L365.525 6.81714L368 9.29203Z" fill="#4945FF"/>
</g>
</svg>
