<svg width="943" height="33" viewBox="0 0 943 33" fill="none" xmlns="http://www.w3.org/2000/svg">
<g clip-path="url(#clip0_6064_7482)">
<mask id="path-1-inside-1_6064_7482" fill="white">
<path d="M0 0H943V32.4551H0V0Z"/>
</mask>
<path d="M0 0H943V32.4551H0V0Z" fill="#F7F8FD"/>
<g clip-path="url(#clip1_6064_7482)">
<mask id="path-3-inside-2_6064_7482" fill="white">
<path d="M10.8184 0H36.0612V32.4551H10.8184V0Z"/>
</mask>
<rect x="10.8184" y="10.3676" width="14.4245" height="14.4245" rx="3.20544" fill="#4945FF"/>
<path d="M16.8831 18.8498L21.1802 14.5527L21.8413 15.2138L16.8831 20.172L13.9082 17.1971L14.5693 16.536L16.8831 18.8498Z" fill="white"/>
</g>
<path d="M36.0612 0H35.1597V32.4551H36.0612H36.9627V0H36.0612Z" fill="black" fill-opacity="0.05" mask="url(#path-3-inside-2_6064_7482)"/>
<rect width="149.353" height="32.4551" transform="translate(36.0613)" fill="#F7F8FD"/>
<path d="M48.3024 13.0153L50.3097 18.8893H50.3907L52.398 13.0153H53.5742L50.9788 20.2275H49.7216L47.1262 13.0153H48.3024ZM56.3202 20.3367C55.7872 20.3367 55.3283 20.2228 54.9432 19.9951C54.5605 19.765 54.2647 19.4422 54.0558 19.0267C53.8492 18.6088 53.7459 18.1193 53.7459 17.5582C53.7459 17.0041 53.8492 16.5158 54.0558 16.0932C54.2647 15.6706 54.5558 15.3407 54.9291 15.1036C55.3048 14.8665 55.7438 14.7479 56.2462 14.7479C56.5514 14.7479 56.8472 14.7984 57.1337 14.8994C57.4201 15.0003 57.6772 15.1588 57.9049 15.3748C58.1326 15.5908 58.3122 15.8713 58.4437 16.2164C58.5752 16.5592 58.6409 16.9759 58.6409 17.4666V17.8399H54.341V17.0511H57.6091C57.6091 16.774 57.5527 16.5287 57.44 16.315C57.3273 16.099 57.1689 15.9288 56.9646 15.8044C56.7627 15.68 56.5256 15.6178 56.2533 15.6178C55.9574 15.6178 55.6992 15.6905 55.4785 15.8361C55.2602 15.9793 55.0911 16.1671 54.9714 16.3996C54.854 16.6296 54.7953 16.8797 54.7953 17.1497V17.7659C54.7953 18.1275 54.8587 18.435 54.9855 18.6886C55.1146 18.9422 55.2942 19.1358 55.5243 19.2697C55.7544 19.4011 56.0232 19.4669 56.3307 19.4669C56.5303 19.4669 56.7122 19.4387 56.8766 19.3824C57.0409 19.3237 57.183 19.2368 57.3027 19.1218C57.4224 19.0067 57.514 18.8647 57.5774 18.6956L58.574 18.8752C58.4942 19.1687 58.351 19.4258 58.1444 19.6465C57.9401 19.8648 57.683 20.035 57.3731 20.1571C57.0656 20.2768 56.7146 20.3367 56.3202 20.3367ZM60.8622 17.0158V20.2275H59.8092V14.8184H60.8199V15.6988H60.8868C61.0112 15.4123 61.2061 15.1823 61.4714 15.0085C61.739 14.8348 62.0759 14.7479 62.4821 14.7479C62.8507 14.7479 63.1735 14.8254 63.4505 14.9804C63.7276 15.133 63.9424 15.3607 64.095 15.6635C64.2476 15.9664 64.3239 16.3409 64.3239 16.7869V20.2275H63.2709V16.9137C63.2709 16.5216 63.1688 16.2153 62.9645 15.9946C62.7603 15.7715 62.4797 15.66 62.1229 15.66C61.8787 15.66 61.6616 15.7128 61.4714 15.8185C61.2836 15.9241 61.1345 16.0791 61.0241 16.2833C60.9162 16.4853 60.8622 16.7294 60.8622 17.0158ZM67.761 20.3332C67.3243 20.3332 66.9346 20.2217 66.5918 19.9986C66.2514 19.7733 65.9837 19.4528 65.7889 19.0372C65.5964 18.6193 65.5001 18.1181 65.5001 17.5335C65.5001 16.9489 65.5975 16.4489 65.7924 16.0333C65.9896 15.6178 66.2596 15.2996 66.6024 15.079C66.9451 14.8583 67.3337 14.7479 67.768 14.7479C68.1037 14.7479 68.3737 14.8043 68.578 14.917C68.7846 15.0273 68.9442 15.1564 69.0569 15.3043C69.172 15.4522 69.2612 15.5825 69.3246 15.6952H69.3879V13.0153H70.4409V20.2275H69.4126V19.3859H69.3246C69.2612 19.5009 69.1696 19.6324 69.0499 19.7803C68.9325 19.9282 68.7705 20.0573 68.5639 20.1677C68.3573 20.278 68.0897 20.3332 67.761 20.3332ZM67.9934 19.4352C68.2963 19.4352 68.5522 19.3554 68.7611 19.1957C68.9724 19.0337 69.132 18.8095 69.24 18.5231C69.3504 18.2367 69.4056 17.9033 69.4056 17.523C69.4056 17.1473 69.3516 16.8186 69.2436 16.5369C69.1356 16.2552 68.9771 16.0357 68.7681 15.8784C68.5592 15.7211 68.3009 15.6424 67.9934 15.6424C67.6764 15.6424 67.4123 15.7246 67.201 15.8889C66.9897 16.0533 66.8301 16.2775 66.7221 16.5616C66.6164 16.8456 66.5636 17.1661 66.5636 17.523C66.5636 17.8845 66.6176 18.2097 66.7256 18.4984C66.8336 18.7872 66.9933 19.0161 67.2046 19.1851C67.4182 19.3518 67.6811 19.4352 67.9934 19.4352ZM74.2222 20.3367C73.7151 20.3367 73.2726 20.2205 72.8946 19.9881C72.5166 19.7556 72.2231 19.4305 72.0142 19.0126C71.8052 18.5947 71.7008 18.1064 71.7008 17.5476C71.7008 16.9865 71.8052 16.4958 72.0142 16.0756C72.2231 15.6553 72.5166 15.329 72.8946 15.0966C73.2726 14.8641 73.7151 14.7479 74.2222 14.7479C74.7293 14.7479 75.1719 14.8641 75.5499 15.0966C75.9279 15.329 76.2213 15.6553 76.4303 16.0756C76.6392 16.4958 76.7437 16.9865 76.7437 17.5476C76.7437 18.1064 76.6392 18.5947 76.4303 19.0126C76.2213 19.4305 75.9279 19.7556 75.5499 19.9881C75.1719 20.2205 74.7293 20.3367 74.2222 20.3367ZM74.2257 19.4528C74.5544 19.4528 74.8268 19.3659 75.0428 19.1922C75.2587 19.0185 75.4184 18.7872 75.5217 18.4984C75.6273 18.2097 75.6802 17.8915 75.6802 17.5441C75.6802 17.199 75.6273 16.882 75.5217 16.5932C75.4184 16.3021 75.2587 16.0685 75.0428 15.8924C74.8268 15.7164 74.5544 15.6283 74.2257 15.6283C73.8947 15.6283 73.62 15.7164 73.4017 15.8924C73.1857 16.0685 73.0249 16.3021 72.9192 16.5932C72.8159 16.882 72.7643 17.199 72.7643 17.5441C72.7643 17.8915 72.8159 18.2097 72.9192 18.4984C73.0249 18.7872 73.1857 19.0185 73.4017 19.1922C73.62 19.3659 73.8947 19.4528 74.2257 19.4528ZM77.919 20.2275V14.8184H78.9368V15.6776H78.9931C79.0917 15.3865 79.2654 15.1576 79.5143 14.9909C79.7655 14.8219 80.0496 14.7374 80.3665 14.7374C80.4323 14.7374 80.5097 14.7397 80.599 14.7444C80.6905 14.7491 80.7621 14.755 80.8138 14.762V15.7692C80.7715 15.7575 80.6964 15.7445 80.5884 15.7305C80.4804 15.714 80.3724 15.7058 80.2644 15.7058C80.0155 15.7058 79.7937 15.7586 79.5988 15.8643C79.4063 15.9676 79.2537 16.112 79.141 16.2974C79.0283 16.4806 78.972 16.6895 78.972 16.9243V20.2275H77.919Z" fill="#021720" fill-opacity="0.6"/>
<rect width="149.353" height="32.4551" transform="translate(185.415)" fill="#F7F8FD"/>
<path d="M193.064 13.952V13.0153H198.645V13.952H196.395V20.2275H195.31V13.952H193.064ZM200.632 20.3473C200.29 20.3473 199.98 20.2839 199.703 20.1571C199.426 20.028 199.206 19.8413 199.044 19.5972C198.885 19.353 198.805 19.0537 198.805 18.6992C198.805 18.394 198.863 18.1428 198.981 17.9455C199.098 17.7483 199.257 17.5922 199.456 17.4772C199.656 17.3621 199.879 17.2753 200.125 17.2166C200.372 17.1579 200.623 17.1133 200.879 17.0827C201.203 17.0452 201.466 17.0147 201.668 16.9912C201.87 16.9654 202.016 16.9243 202.108 16.8679C202.2 16.8116 202.245 16.72 202.245 16.5932V16.5686C202.245 16.261 202.158 16.0227 201.985 15.8537C201.813 15.6847 201.557 15.6002 201.217 15.6002C200.863 15.6002 200.583 15.6788 200.379 15.8361C200.177 15.9911 200.037 16.1636 199.96 16.3538L198.97 16.1284C199.088 15.7997 199.259 15.5344 199.484 15.3325C199.712 15.1283 199.974 14.9804 200.27 14.8888C200.566 14.7949 200.877 14.7479 201.203 14.7479C201.419 14.7479 201.648 14.7738 201.89 14.8254C202.134 14.8747 202.362 14.9663 202.573 15.1001C202.786 15.2339 202.961 15.4253 203.098 15.6741C203.234 15.9206 203.302 16.2411 203.302 16.6355V20.2275H202.273V19.488H202.231C202.163 19.6242 202.061 19.758 201.925 19.8895C201.789 20.0209 201.614 20.1301 201.4 20.217C201.186 20.3038 200.931 20.3473 200.632 20.3473ZM200.861 19.5021C201.152 19.5021 201.401 19.4446 201.608 19.3295C201.817 19.2145 201.975 19.0642 202.083 18.8788C202.194 18.6909 202.249 18.4902 202.249 18.2766V17.5793C202.211 17.6169 202.139 17.6521 202.031 17.6849C201.925 17.7155 201.804 17.7425 201.668 17.7659C201.532 17.7871 201.399 17.807 201.27 17.8258C201.141 17.8422 201.033 17.8563 200.946 17.8681C200.742 17.8939 200.555 17.9373 200.386 17.9984C200.219 18.0594 200.085 18.1474 199.984 18.2625C199.886 18.3752 199.837 18.5254 199.837 18.7133C199.837 18.9738 199.933 19.1711 200.125 19.3049C200.318 19.4364 200.563 19.5021 200.861 19.5021ZM205.535 14.8184L206.729 16.9243L207.934 14.8184H209.085L207.398 17.523L209.099 20.2275H207.948L206.729 18.2061L205.514 20.2275H204.359L206.042 17.523L204.38 14.8184H205.535ZM212.791 20.2275V14.8184H213.844V20.2275H212.791ZM213.323 13.9837C213.139 13.9837 212.982 13.9227 212.851 13.8006C212.721 13.6762 212.657 13.5283 212.657 13.3569C212.657 13.1832 212.721 13.0353 212.851 12.9132C212.982 12.7887 213.139 12.7265 213.323 12.7265C213.506 12.7265 213.662 12.7887 213.791 12.9132C213.922 13.0353 213.988 13.1832 213.988 13.3569C213.988 13.5283 213.922 13.6762 213.791 13.8006C213.662 13.9227 213.506 13.9837 213.323 13.9837ZM216.313 17.0158V20.2275H215.26V14.8184H216.271V15.6988H216.338C216.462 15.4123 216.657 15.1823 216.922 15.0085C217.19 14.8348 217.527 14.7479 217.933 14.7479C218.302 14.7479 218.625 14.8254 218.902 14.9804C219.179 15.133 219.393 15.3607 219.546 15.6635C219.699 15.9664 219.775 16.3409 219.775 16.7869V20.2275H218.722V16.9137C218.722 16.5216 218.62 16.2153 218.416 15.9946C218.211 15.7715 217.931 15.66 217.574 15.66C217.33 15.66 217.113 15.7128 216.922 15.8185C216.735 15.9241 216.586 16.0791 216.475 16.2833C216.367 16.4853 216.313 16.7294 216.313 17.0158ZM223.761 14.8184V15.6635H220.705V14.8184H223.761ZM221.543 20.2275V14.1915C221.543 13.8534 221.617 13.5729 221.765 13.3499C221.913 13.1245 222.109 12.9566 222.353 12.8463C222.597 12.7336 222.862 12.6772 223.149 12.6772C223.36 12.6772 223.541 12.6948 223.691 12.7301C223.841 12.7629 223.953 12.7934 224.026 12.8216L223.779 13.6738C223.73 13.6598 223.666 13.6433 223.589 13.6245C223.511 13.6034 223.417 13.5928 223.307 13.5928C223.051 13.5928 222.868 13.6562 222.758 13.783C222.65 13.9098 222.596 14.0929 222.596 14.3324V20.2275H221.543ZM226.913 20.3367C226.406 20.3367 225.964 20.2205 225.586 19.9881C225.208 19.7556 224.914 19.4305 224.705 19.0126C224.496 18.5947 224.392 18.1064 224.392 17.5476C224.392 16.9865 224.496 16.4958 224.705 16.0756C224.914 15.6553 225.208 15.329 225.586 15.0966C225.964 14.8641 226.406 14.7479 226.913 14.7479C227.42 14.7479 227.863 14.8641 228.241 15.0966C228.619 15.329 228.912 15.6553 229.121 16.0756C229.33 16.4958 229.435 16.9865 229.435 17.5476C229.435 18.1064 229.33 18.5947 229.121 19.0126C228.912 19.4305 228.619 19.7556 228.241 19.9881C227.863 20.2205 227.42 20.3367 226.913 20.3367ZM226.917 19.4528C227.245 19.4528 227.518 19.3659 227.734 19.1922C227.95 19.0185 228.109 18.7872 228.213 18.4984C228.318 18.2097 228.371 17.8915 228.371 17.5441C228.371 17.199 228.318 16.882 228.213 16.5932C228.109 16.3021 227.95 16.0685 227.734 15.8924C227.518 15.7164 227.245 15.6283 226.917 15.6283C226.586 15.6283 226.311 15.7164 226.093 15.8924C225.877 16.0685 225.716 16.3021 225.61 16.5932C225.507 16.882 225.455 17.199 225.455 17.5441C225.455 17.8915 225.507 18.2097 225.61 18.4984C225.716 18.7872 225.877 19.0185 226.093 19.1922C226.311 19.3659 226.586 19.4528 226.917 19.4528Z" fill="#021720" fill-opacity="0.6"/>
<rect width="149.353" height="32.4551" transform="translate(334.768)" fill="#F7F8FD"/>
<path d="M348.763 15.3607H347.664C347.622 15.1259 347.543 14.9193 347.428 14.7409C347.313 14.5625 347.172 14.411 347.006 14.2866C346.839 14.1622 346.652 14.0683 346.446 14.0049C346.242 13.9415 346.024 13.9098 345.794 13.9098C345.379 13.9098 345.007 14.0143 344.678 14.2232C344.352 14.4322 344.093 14.7385 343.903 15.1423C343.715 15.5462 343.622 16.0392 343.622 16.6214C343.622 17.2084 343.715 17.7037 343.903 18.1075C344.093 18.5113 344.353 18.8166 344.682 19.0232C345.01 19.2298 345.38 19.3331 345.791 19.3331C346.019 19.3331 346.235 19.3025 346.439 19.2415C346.645 19.1781 346.832 19.0854 346.999 18.9633C347.165 18.8412 347.306 18.6921 347.421 18.516C347.539 18.3376 347.62 18.1334 347.664 17.9033L348.763 17.9068C348.704 18.2613 348.591 18.5876 348.421 18.8858C348.255 19.1816 348.04 19.4375 347.777 19.6535C347.516 19.8672 347.218 20.0327 346.883 20.1501C346.547 20.2675 346.181 20.3261 345.784 20.3261C345.159 20.3261 344.603 20.1782 344.115 19.8824C343.626 19.5843 343.241 19.1581 342.959 18.6041C342.68 18.05 342.54 17.3891 342.54 16.6214C342.54 15.8514 342.681 15.1905 342.963 14.6388C343.245 14.0847 343.63 13.6598 344.118 13.3639C344.606 13.0658 345.162 12.9167 345.784 12.9167C346.166 12.9167 346.523 12.9719 346.854 13.0822C347.188 13.1902 347.487 13.3499 347.752 13.5611C348.018 13.7701 348.237 14.026 348.411 14.3289C348.585 14.6294 348.702 14.9733 348.763 15.3607ZM352.259 20.3367C351.752 20.3367 351.309 20.2205 350.931 19.9881C350.554 19.7556 350.26 19.4305 350.051 19.0126C349.842 18.5947 349.738 18.1064 349.738 17.5476C349.738 16.9865 349.842 16.4958 350.051 16.0756C350.26 15.6553 350.554 15.329 350.931 15.0966C351.309 14.8641 351.752 14.7479 352.259 14.7479C352.766 14.7479 353.209 14.8641 353.587 15.0966C353.965 15.329 354.258 15.6553 354.467 16.0756C354.676 16.4958 354.781 16.9865 354.781 17.5476C354.781 18.1064 354.676 18.5947 354.467 19.0126C354.258 19.4305 353.965 19.7556 353.587 19.9881C353.209 20.2205 352.766 20.3367 352.259 20.3367ZM352.263 19.4528C352.591 19.4528 352.864 19.3659 353.08 19.1922C353.296 19.0185 353.455 18.7872 353.559 18.4984C353.664 18.2097 353.717 17.8915 353.717 17.5441C353.717 17.199 353.664 16.882 353.559 16.5932C353.455 16.3021 353.296 16.0685 353.08 15.8924C352.864 15.7164 352.591 15.6283 352.263 15.6283C351.932 15.6283 351.657 15.7164 351.439 15.8924C351.223 16.0685 351.062 16.3021 350.956 16.5932C350.853 16.882 350.801 17.199 350.801 17.5441C350.801 17.8915 350.853 18.2097 350.956 18.4984C351.062 18.7872 351.223 19.0185 351.439 19.1922C351.657 19.3659 351.932 19.4528 352.263 19.4528ZM355.956 20.2275V14.8184H356.967V15.6988H357.034C357.146 15.4006 357.331 15.1682 357.586 15.0015C357.842 14.8324 358.149 14.7479 358.506 14.7479C358.867 14.7479 359.17 14.8324 359.414 15.0015C359.661 15.1705 359.843 15.4029 359.96 15.6988H360.016C360.145 15.41 360.351 15.1799 360.633 15.0085C360.914 14.8348 361.25 14.7479 361.64 14.7479C362.13 14.7479 362.531 14.9017 362.841 15.2093C363.153 15.5168 363.309 15.9805 363.309 16.6003V20.2275H362.256V16.6989C362.256 16.3326 362.156 16.0674 361.957 15.903C361.757 15.7387 361.519 15.6565 361.242 15.6565C360.899 15.6565 360.633 15.7621 360.442 15.9734C360.252 16.1824 360.157 16.4512 360.157 16.7799V20.2275H359.108V16.632C359.108 16.3385 359.016 16.1026 358.833 15.9241C358.65 15.7457 358.412 15.6565 358.118 15.6565C357.919 15.6565 357.734 15.7093 357.565 15.815C357.399 15.9183 357.264 16.0627 357.16 16.2481C357.059 16.4336 357.009 16.6484 357.009 16.8926V20.2275H355.956ZM364.72 22.256V14.8184H365.749V15.6952H365.837C365.898 15.5825 365.986 15.4522 366.101 15.3043C366.216 15.1564 366.375 15.0273 366.58 14.917C366.784 14.8043 367.054 14.7479 367.39 14.7479C367.826 14.7479 368.216 14.8583 368.559 15.079C368.902 15.2996 369.17 15.6178 369.365 16.0333C369.563 16.4489 369.661 16.9489 369.661 17.5335C369.661 18.1181 369.564 18.6193 369.369 19.0372C369.174 19.4528 368.906 19.7733 368.566 19.9986C368.225 20.2217 367.837 20.3332 367.4 20.3332C367.072 20.3332 366.803 20.278 366.594 20.1677C366.387 20.0573 366.225 19.9282 366.108 19.7803C365.99 19.6324 365.9 19.5009 365.837 19.3859H365.773V22.256H364.72ZM365.752 17.523C365.752 17.9033 365.807 18.2367 365.918 18.5231C366.028 18.8095 366.188 19.0337 366.397 19.1957C366.606 19.3554 366.861 19.4352 367.164 19.4352C367.479 19.4352 367.742 19.3518 367.953 19.1851C368.164 19.0161 368.324 18.7872 368.432 18.4984C368.542 18.2097 368.598 17.8845 368.598 17.523C368.598 17.1661 368.544 16.8456 368.436 16.5616C368.33 16.2775 368.17 16.0533 367.957 15.8889C367.745 15.7246 367.481 15.6424 367.164 15.6424C366.859 15.6424 366.601 15.7211 366.39 15.8784C366.181 16.0357 366.022 16.2552 365.914 16.5369C365.806 16.8186 365.752 17.1473 365.752 17.523ZM371.894 13.0153V20.2275H370.841V13.0153H371.894ZM373.31 20.2275V14.8184H374.363V20.2275H373.31ZM373.842 13.9837C373.659 13.9837 373.502 13.9227 373.37 13.8006C373.241 13.6762 373.177 13.5283 373.177 13.3569C373.177 13.1832 373.241 13.0353 373.37 12.9132C373.502 12.7887 373.659 12.7265 373.842 12.7265C374.025 12.7265 374.181 12.7887 374.311 12.9132C374.442 13.0353 374.508 13.1832 374.508 13.3569C374.508 13.5283 374.442 13.6762 374.311 13.8006C374.181 13.9227 374.025 13.9837 373.842 13.9837ZM377.354 20.3473C377.011 20.3473 376.701 20.2839 376.424 20.1571C376.147 20.028 375.928 19.8413 375.766 19.5972C375.606 19.353 375.526 19.0537 375.526 18.6992C375.526 18.394 375.585 18.1428 375.702 17.9455C375.82 17.7483 375.978 17.5922 376.178 17.4772C376.377 17.3621 376.6 17.2753 376.847 17.2166C377.093 17.1579 377.345 17.1133 377.601 17.0827C377.925 17.0452 378.188 17.0147 378.389 16.9912C378.591 16.9654 378.738 16.9243 378.83 16.8679C378.921 16.8116 378.967 16.72 378.967 16.5932V16.5686C378.967 16.261 378.88 16.0227 378.706 15.8537C378.535 15.6847 378.279 15.6002 377.939 15.6002C377.584 15.6002 377.305 15.6788 377.101 15.8361C376.899 15.9911 376.759 16.1636 376.681 16.3538L375.692 16.1284C375.809 15.7997 375.981 15.5344 376.206 15.3325C376.434 15.1283 376.696 14.9804 376.991 14.8888C377.287 14.7949 377.598 14.7479 377.925 14.7479C378.141 14.7479 378.369 14.7738 378.611 14.8254C378.855 14.8747 379.083 14.9663 379.294 15.1001C379.508 15.2339 379.683 15.4253 379.819 15.6741C379.955 15.9206 380.023 16.2411 380.023 16.6355V20.2275H378.995V19.488H378.953C378.885 19.6242 378.783 19.758 378.646 19.8895C378.51 20.0209 378.335 20.1301 378.122 20.217C377.908 20.3038 377.652 20.3473 377.354 20.3473ZM377.583 19.5021C377.874 19.5021 378.123 19.4446 378.33 19.3295C378.538 19.2145 378.697 19.0642 378.805 18.8788C378.915 18.6909 378.97 18.4902 378.97 18.2766V17.5793C378.933 17.6169 378.86 17.6521 378.752 17.6849C378.646 17.7155 378.526 17.7425 378.389 17.7659C378.253 17.7871 378.121 17.807 377.991 17.8258C377.862 17.8422 377.754 17.8563 377.667 17.8681C377.463 17.8939 377.277 17.9373 377.108 17.9984C376.941 18.0594 376.807 18.1474 376.706 18.2625C376.607 18.3752 376.558 18.5254 376.558 18.7133C376.558 18.9738 376.654 19.1711 376.847 19.3049C377.039 19.4364 377.285 19.5021 377.583 19.5021ZM382.479 17.0158V20.2275H381.426V14.8184H382.437V15.6988H382.504C382.628 15.4123 382.823 15.1823 383.088 15.0085C383.356 14.8348 383.693 14.7479 384.099 14.7479C384.467 14.7479 384.79 14.8254 385.067 14.9804C385.344 15.133 385.559 15.3607 385.712 15.6635C385.864 15.9664 385.941 16.3409 385.941 16.7869V20.2275H384.888V16.9137C384.888 16.5216 384.786 16.2153 384.581 15.9946C384.377 15.7715 384.096 15.66 383.74 15.66C383.495 15.66 383.278 15.7128 383.088 15.8185C382.9 15.9241 382.751 16.0791 382.641 16.2833C382.533 16.4853 382.479 16.7294 382.479 17.0158ZM389.631 20.3367C389.108 20.3367 388.657 20.2181 388.279 19.981C387.903 19.7416 387.615 19.4117 387.413 18.9915C387.211 18.5712 387.11 18.0899 387.11 17.5476C387.11 16.9982 387.213 16.5134 387.42 16.0932C387.626 15.6706 387.917 15.3407 388.293 15.1036C388.669 14.8665 389.111 14.7479 389.621 14.7479C390.032 14.7479 390.398 14.8242 390.719 14.9768C391.041 15.1271 391.3 15.3384 391.498 15.6107C391.697 15.8831 391.816 16.2012 391.853 16.5651H390.829C390.772 16.3115 390.643 16.0932 390.441 15.9101C390.242 15.7269 389.974 15.6354 389.638 15.6354C389.345 15.6354 389.088 15.7128 388.867 15.8678C388.649 16.0204 388.479 16.2387 388.356 16.5228C388.234 16.8045 388.173 17.1379 388.173 17.523C388.173 17.9174 388.233 18.2578 388.353 18.5442C388.473 18.8306 388.642 19.0525 388.86 19.2098C389.081 19.3671 389.34 19.4457 389.638 19.4457C389.838 19.4457 390.019 19.4094 390.181 19.3366C390.345 19.2614 390.482 19.1546 390.593 19.0161C390.705 18.8776 390.784 18.7109 390.829 18.516H391.853C391.816 18.8659 391.702 19.1781 391.512 19.4528C391.322 19.7275 391.067 19.9435 390.748 20.1008C390.431 20.2581 390.059 20.3367 389.631 20.3367ZM395.311 20.3367C394.778 20.3367 394.319 20.2228 393.934 19.9951C393.551 19.765 393.255 19.4422 393.046 19.0267C392.84 18.6088 392.736 18.1193 392.736 17.5582C392.736 17.0041 392.84 16.5158 393.046 16.0932C393.255 15.6706 393.546 15.3407 393.92 15.1036C394.295 14.8665 394.734 14.7479 395.237 14.7479C395.542 14.7479 395.838 14.7984 396.124 14.8994C396.411 15.0003 396.668 15.1588 396.895 15.3748C397.123 15.5908 397.303 15.8713 397.434 16.2164C397.566 16.5592 397.631 16.9759 397.631 17.4666V17.8399H393.332V17.0511H396.6C396.6 16.774 396.543 16.5287 396.431 16.315C396.318 16.099 396.159 15.9288 395.955 15.8044C395.753 15.68 395.516 15.6178 395.244 15.6178C394.948 15.6178 394.69 15.6905 394.469 15.8361C394.251 15.9793 394.082 16.1671 393.962 16.3996C393.845 16.6296 393.786 16.8797 393.786 17.1497V17.7659C393.786 18.1275 393.849 18.435 393.976 18.6886C394.105 18.9422 394.285 19.1358 394.515 19.2697C394.745 19.4011 395.014 19.4669 395.321 19.4669C395.521 19.4669 395.703 19.4387 395.867 19.3824C396.031 19.3237 396.173 19.2368 396.293 19.1218C396.413 19.0067 396.505 18.8647 396.568 18.6956L397.565 18.8752C397.485 19.1687 397.341 19.4258 397.135 19.6465C396.931 19.8648 396.674 20.035 396.364 20.1571C396.056 20.2768 395.705 20.3367 395.311 20.3367Z" fill="#021720" fill-opacity="0.6"/>
<rect width="149.353" height="32.4551" transform="translate(484.122)" fill="#F7F8FD"/>
<path d="M498.117 15.3607H497.018C496.976 15.1259 496.897 14.9193 496.782 14.7409C496.667 14.5625 496.526 14.411 496.359 14.2866C496.193 14.1622 496.006 14.0683 495.799 14.0049C495.595 13.9415 495.378 13.9098 495.148 13.9098C494.732 13.9098 494.36 14.0143 494.032 14.2232C493.705 14.4322 493.447 14.7385 493.257 15.1423C493.069 15.5462 492.975 16.0392 492.975 16.6214C492.975 17.2084 493.069 17.7037 493.257 18.1075C493.447 18.5113 493.706 18.8166 494.035 19.0232C494.364 19.2298 494.734 19.3331 495.144 19.3331C495.372 19.3331 495.588 19.3025 495.792 19.2415C495.999 19.1781 496.186 19.0854 496.352 18.9633C496.519 18.8412 496.66 18.6921 496.775 18.516C496.892 18.3376 496.973 18.1334 497.018 17.9033L498.117 17.9068C498.058 18.2613 497.944 18.5876 497.775 18.8858C497.608 19.1816 497.393 19.4375 497.131 19.6535C496.87 19.8672 496.572 20.0327 496.236 20.1501C495.9 20.2675 495.534 20.3261 495.137 20.3261C494.513 20.3261 493.956 20.1782 493.468 19.8824C492.98 19.5843 492.595 19.1581 492.313 18.6041C492.034 18.05 491.894 17.3891 491.894 16.6214C491.894 15.8514 492.035 15.1905 492.317 14.6388C492.598 14.0847 492.983 13.6598 493.472 13.3639C493.96 13.0658 494.515 12.9167 495.137 12.9167C495.52 12.9167 495.877 12.9719 496.208 13.0822C496.541 13.1902 496.841 13.3499 497.106 13.5611C497.371 13.7701 497.591 14.026 497.764 14.3289C497.938 14.6294 498.056 14.9733 498.117 15.3607ZM501.613 20.3367C501.106 20.3367 500.663 20.2205 500.285 19.9881C499.907 19.7556 499.614 19.4305 499.405 19.0126C499.196 18.5947 499.091 18.1064 499.091 17.5476C499.091 16.9865 499.196 16.4958 499.405 16.0756C499.614 15.6553 499.907 15.329 500.285 15.0966C500.663 14.8641 501.106 14.7479 501.613 14.7479C502.12 14.7479 502.562 14.8641 502.94 15.0966C503.318 15.329 503.612 15.6553 503.821 16.0756C504.03 16.4958 504.134 16.9865 504.134 17.5476C504.134 18.1064 504.03 18.5947 503.821 19.0126C503.612 19.4305 503.318 19.7556 502.94 19.9881C502.562 20.2205 502.12 20.3367 501.613 20.3367ZM501.616 19.4528C501.945 19.4528 502.217 19.3659 502.433 19.1922C502.649 19.0185 502.809 18.7872 502.912 18.4984C503.018 18.2097 503.071 17.8915 503.071 17.5441C503.071 17.199 503.018 16.882 502.912 16.5932C502.809 16.3021 502.649 16.0685 502.433 15.8924C502.217 15.7164 501.945 15.6283 501.616 15.6283C501.285 15.6283 501.01 15.7164 500.792 15.8924C500.576 16.0685 500.415 16.3021 500.31 16.5932C500.206 16.882 500.155 17.199 500.155 17.5441C500.155 17.8915 500.206 18.2097 500.31 18.4984C500.415 18.7872 500.576 19.0185 500.792 19.1922C501.01 19.3659 501.285 19.4528 501.616 19.4528ZM508.736 17.9843V14.8184H509.792V20.2275H508.757V19.2908H508.701C508.576 19.5796 508.377 19.8202 508.102 20.0127C507.83 20.2029 507.49 20.298 507.084 20.298C506.737 20.298 506.429 20.2217 506.162 20.0691C505.896 19.9141 505.687 19.6852 505.535 19.3824C505.385 19.0795 505.309 18.705 505.309 18.259V14.8184H506.362V18.1322C506.362 18.5008 506.465 18.7942 506.669 19.0126C506.873 19.2309 507.138 19.3401 507.465 19.3401C507.662 19.3401 507.858 19.2908 508.053 19.1922C508.25 19.0936 508.413 18.9445 508.542 18.7449C508.674 18.5454 508.738 18.2918 508.736 17.9843ZM512.26 17.0158V20.2275H511.207V14.8184H512.218V15.6988H512.285C512.409 15.4123 512.604 15.1823 512.869 15.0085C513.137 14.8348 513.474 14.7479 513.88 14.7479C514.249 14.7479 514.572 14.8254 514.849 14.9804C515.126 15.133 515.34 15.3607 515.493 15.6635C515.646 15.9664 515.722 16.3409 515.722 16.7869V20.2275H514.669V16.9137C514.669 16.5216 514.567 16.2153 514.363 15.9946C514.158 15.7715 513.878 15.66 513.521 15.66C513.277 15.66 513.06 15.7128 512.869 15.8185C512.682 15.9241 512.533 16.0791 512.422 16.2833C512.314 16.4853 512.26 16.7294 512.26 17.0158ZM519.659 14.8184V15.6635H516.704V14.8184H519.659ZM517.497 13.5224H518.55V18.6393C518.55 18.8436 518.58 18.9973 518.641 19.1006C518.702 19.2016 518.781 19.2708 518.877 19.3084C518.976 19.3436 519.083 19.3612 519.198 19.3612C519.282 19.3612 519.356 19.3554 519.42 19.3436C519.483 19.3319 519.532 19.3225 519.568 19.3154L519.758 20.1853C519.697 20.2088 519.61 20.2322 519.497 20.2557C519.384 20.2815 519.244 20.2956 519.075 20.298C518.797 20.3027 518.539 20.2534 518.3 20.1501C518.06 20.0468 517.867 19.8871 517.719 19.6711C517.571 19.4551 517.497 19.184 517.497 18.8576V13.5224ZM520.824 20.2275V14.8184H521.842V15.6776H521.898C521.997 15.3865 522.17 15.1576 522.419 14.9909C522.67 14.8219 522.954 14.7374 523.271 14.7374C523.337 14.7374 523.415 14.7397 523.504 14.7444C523.595 14.7491 523.667 14.755 523.719 14.762V15.7692C523.676 15.7575 523.601 15.7445 523.493 15.7305C523.385 15.714 523.277 15.7058 523.169 15.7058C522.92 15.7058 522.699 15.7586 522.504 15.8643C522.311 15.9676 522.159 16.112 522.046 16.2974C521.933 16.4806 521.877 16.6895 521.877 16.9243V20.2275H520.824ZM525.46 22.256C525.303 22.256 525.16 22.2431 525.03 22.2172C524.901 22.1938 524.805 22.1679 524.742 22.1398L524.995 21.277C525.188 21.3286 525.359 21.3509 525.509 21.3439C525.66 21.3368 525.792 21.2805 525.907 21.1748C526.025 21.0692 526.128 20.8966 526.217 20.6572L526.347 20.298L524.368 14.8184H525.495L526.865 19.0161H526.922L528.291 14.8184H529.422L527.193 20.9495C527.089 21.2312 526.958 21.4695 526.798 21.6644C526.639 21.8616 526.448 22.0095 526.228 22.1081C526.007 22.2067 525.751 22.256 525.46 22.256Z" fill="#021720" fill-opacity="0.6"/>
<rect width="149.353" height="32.4551" transform="translate(633.475)" fill="#F7F8FD"/>
<path d="M643.814 20.2275H641.479V13.0153H643.888C644.595 13.0153 645.202 13.1597 645.709 13.4485C646.216 13.7349 646.604 14.1469 646.874 14.6845C647.147 15.2198 647.283 15.8619 647.283 16.6109C647.283 17.3621 647.146 18.0078 646.871 18.5477C646.599 19.0877 646.204 19.5033 645.688 19.7944C645.171 20.0832 644.547 20.2275 643.814 20.2275ZM642.568 19.2767H643.754C644.304 19.2767 644.76 19.1734 645.124 18.9668C645.488 18.7579 645.76 18.4562 645.941 18.0618C646.122 17.665 646.212 17.1814 646.212 16.6109C646.212 16.0451 646.122 15.5649 645.941 15.1705C645.763 14.7761 645.496 14.4768 645.142 14.2725C644.787 14.0683 644.347 13.9661 643.821 13.9661H642.568V19.2767ZM651.978 17.9843V14.8184H653.035V20.2275H651.999V19.2908H651.943C651.818 19.5796 651.619 19.8202 651.344 20.0127C651.072 20.2029 650.733 20.298 650.327 20.298C649.979 20.298 649.671 20.2217 649.404 20.0691C649.139 19.9141 648.93 19.6852 648.777 19.3824C648.627 19.0795 648.552 18.705 648.552 18.259V14.8184H649.605V18.1322C649.605 18.5008 649.707 18.7942 649.911 19.0126C650.115 19.2309 650.381 19.3401 650.707 19.3401C650.904 19.3401 651.1 19.2908 651.295 19.1922C651.492 19.0936 651.655 18.9445 651.784 18.7449C651.916 18.5454 651.98 18.2918 651.978 17.9843ZM656.781 20.3367C656.248 20.3367 655.789 20.2228 655.404 19.9951C655.021 19.765 654.725 19.4422 654.516 19.0267C654.31 18.6088 654.206 18.1193 654.206 17.5582C654.206 17.0041 654.31 16.5158 654.516 16.0932C654.725 15.6706 655.016 15.3407 655.39 15.1036C655.765 14.8665 656.204 14.7479 656.707 14.7479C657.012 14.7479 657.308 14.7984 657.594 14.8994C657.881 15.0003 658.138 15.1588 658.365 15.3748C658.593 15.5908 658.773 15.8713 658.904 16.2164C659.036 16.5592 659.101 16.9759 659.101 17.4666V17.8399H654.802V17.0511H658.07C658.07 16.774 658.013 16.5287 657.901 16.315C657.788 16.099 657.629 15.9288 657.425 15.8044C657.223 15.68 656.986 15.6178 656.714 15.6178C656.418 15.6178 656.16 15.6905 655.939 15.8361C655.721 15.9793 655.552 16.1671 655.432 16.3996C655.315 16.6296 655.256 16.8797 655.256 17.1497V17.7659C655.256 18.1275 655.319 18.435 655.446 18.6886C655.575 18.9422 655.755 19.1358 655.985 19.2697C656.215 19.4011 656.484 19.4669 656.791 19.4669C656.991 19.4669 657.173 19.4387 657.337 19.3824C657.501 19.3237 657.644 19.2368 657.763 19.1218C657.883 19.0067 657.975 18.8647 658.038 18.6956L659.035 18.8752C658.955 19.1687 658.812 19.4258 658.605 19.6465C658.401 19.8648 658.144 20.035 657.834 20.1571C657.526 20.2768 657.175 20.3367 656.781 20.3367ZM664.919 20.3332C664.482 20.3332 664.093 20.2217 663.75 19.9986C663.41 19.7733 663.142 19.4528 662.947 19.0372C662.755 18.6193 662.658 18.1181 662.658 17.5335C662.658 16.9489 662.756 16.4489 662.951 16.0333C663.148 15.6178 663.418 15.2996 663.761 15.079C664.103 14.8583 664.492 14.7479 664.926 14.7479C665.262 14.7479 665.532 14.8043 665.736 14.917C665.943 15.0273 666.102 15.1564 666.215 15.3043C666.33 15.4522 666.419 15.5825 666.483 15.6952H666.546V13.0153H667.599V20.2275H666.571V19.3859H666.483C666.419 19.5009 666.328 19.6324 666.208 19.7803C666.091 19.9282 665.929 20.0573 665.722 20.1677C665.515 20.278 665.248 20.3332 664.919 20.3332ZM665.152 19.4352C665.454 19.4352 665.71 19.3554 665.919 19.1957C666.131 19.0337 666.29 18.8095 666.398 18.5231C666.509 18.2367 666.564 17.9033 666.564 17.523C666.564 17.1473 666.51 16.8186 666.402 16.5369C666.294 16.2552 666.135 16.0357 665.926 15.8784C665.717 15.7211 665.459 15.6424 665.152 15.6424C664.835 15.6424 664.571 15.7246 664.359 15.8889C664.148 16.0533 663.988 16.2775 663.88 16.5616C663.775 16.8456 663.722 17.1661 663.722 17.523C663.722 17.8845 663.776 18.2097 663.884 18.4984C663.992 18.7872 664.151 19.0161 664.363 19.1851C664.576 19.3518 664.839 19.4352 665.152 19.4352ZM670.676 20.3473C670.333 20.3473 670.023 20.2839 669.746 20.1571C669.469 20.028 669.25 19.8413 669.088 19.5972C668.928 19.353 668.848 19.0537 668.848 18.6992C668.848 18.394 668.907 18.1428 669.024 17.9455C669.142 17.7483 669.3 17.5922 669.5 17.4772C669.699 17.3621 669.922 17.2753 670.169 17.2166C670.415 17.1579 670.667 17.1133 670.923 17.0827C671.247 17.0452 671.51 17.0147 671.711 16.9912C671.913 16.9654 672.06 16.9243 672.152 16.8679C672.243 16.8116 672.289 16.72 672.289 16.5932V16.5686C672.289 16.261 672.202 16.0227 672.028 15.8537C671.857 15.6847 671.601 15.6002 671.261 15.6002C670.906 15.6002 670.627 15.6788 670.423 15.8361C670.221 15.9911 670.081 16.1636 670.003 16.3538L669.014 16.1284C669.131 15.7997 669.303 15.5344 669.528 15.3325C669.756 15.1283 670.018 14.9804 670.313 14.8888C670.609 14.7949 670.92 14.7479 671.247 14.7479C671.463 14.7479 671.691 14.7738 671.933 14.8254C672.177 14.8747 672.405 14.9663 672.616 15.1001C672.83 15.2339 673.005 15.4253 673.141 15.6741C673.277 15.9206 673.345 16.2411 673.345 16.6355V20.2275H672.317V19.488H672.275C672.207 19.6242 672.105 19.758 671.969 19.8895C671.832 20.0209 671.657 20.1301 671.444 20.217C671.23 20.3038 670.974 20.3473 670.676 20.3473ZM670.905 19.5021C671.196 19.5021 671.445 19.4446 671.652 19.3295C671.861 19.2145 672.019 19.0642 672.127 18.8788C672.237 18.6909 672.292 18.4902 672.292 18.2766V17.5793C672.255 17.6169 672.182 17.6521 672.074 17.6849C671.969 17.7155 671.848 17.7425 671.711 17.7659C671.575 17.7871 671.443 17.807 671.313 17.8258C671.184 17.8422 671.076 17.8563 670.99 17.8681C670.785 17.8939 670.599 17.9373 670.43 17.9984C670.263 18.0594 670.129 18.1474 670.028 18.2625C669.929 18.3752 669.88 18.5254 669.88 18.7133C669.88 18.9738 669.976 19.1711 670.169 19.3049C670.361 19.4364 670.607 19.5021 670.905 19.5021ZM677.273 14.8184V15.6635H674.318V14.8184H677.273ZM675.111 13.5224H676.164V18.6393C676.164 18.8436 676.194 18.9973 676.255 19.1006C676.316 19.2016 676.395 19.2708 676.491 19.3084C676.59 19.3436 676.697 19.3612 676.812 19.3612C676.896 19.3612 676.97 19.3554 677.033 19.3436C677.097 19.3319 677.146 19.3225 677.181 19.3154L677.372 20.1853C677.31 20.2088 677.224 20.2322 677.111 20.2557C676.998 20.2815 676.857 20.2956 676.688 20.298C676.411 20.3027 676.153 20.2534 675.914 20.1501C675.674 20.0468 675.48 19.8871 675.333 19.6711C675.185 19.4551 675.111 19.184 675.111 18.8576V13.5224ZM680.711 20.3367C680.178 20.3367 679.719 20.2228 679.334 19.9951C678.951 19.765 678.655 19.4422 678.446 19.0267C678.24 18.6088 678.137 18.1193 678.137 17.5582C678.137 17.0041 678.24 16.5158 678.446 16.0932C678.655 15.6706 678.947 15.3407 679.32 15.1036C679.695 14.8665 680.135 14.7479 680.637 14.7479C680.942 14.7479 681.238 14.7984 681.524 14.8994C681.811 15.0003 682.068 15.1588 682.296 15.3748C682.523 15.5908 682.703 15.8713 682.834 16.2164C682.966 16.5592 683.032 16.9759 683.032 17.4666V17.8399H678.732V17.0511H682C682 16.774 681.943 16.5287 681.831 16.315C681.718 16.099 681.56 15.9288 681.355 15.8044C681.153 15.68 680.916 15.6178 680.644 15.6178C680.348 15.6178 680.09 15.6905 679.869 15.8361C679.651 15.9793 679.482 16.1671 679.362 16.3996C679.245 16.6296 679.186 16.8797 679.186 17.1497V17.7659C679.186 18.1275 679.249 18.435 679.376 18.6886C679.505 18.9422 679.685 19.1358 679.915 19.2697C680.145 19.4011 680.414 19.4669 680.721 19.4669C680.921 19.4669 681.103 19.4387 681.267 19.3824C681.432 19.3237 681.574 19.2368 681.693 19.1218C681.813 19.0067 681.905 18.8647 681.968 18.6956L682.965 18.8752C682.885 19.1687 682.742 19.4258 682.535 19.6465C682.331 19.8648 682.074 20.035 681.764 20.1571C681.456 20.2768 681.105 20.3367 680.711 20.3367Z" fill="#021720" fill-opacity="0.6"/>
<rect width="149.353" height="32.4551" transform="translate(782.828)" fill="#F7F8FD"/>
<path d="M791.442 20.2275H790.287L792.882 13.0153H794.14L796.735 20.2275H795.58L793.541 14.3253H793.485L791.442 20.2275ZM791.636 17.4032H795.383V18.3188H791.636V17.4032ZM797.692 20.2275V14.8184H798.703V15.6988H798.77C798.882 15.4006 799.067 15.1682 799.323 15.0015C799.578 14.8324 799.885 14.7479 800.242 14.7479C800.603 14.7479 800.906 14.8324 801.15 15.0015C801.397 15.1705 801.579 15.4029 801.696 15.6988H801.752C801.882 15.41 802.087 15.1799 802.369 15.0085C802.65 14.8348 802.986 14.7479 803.376 14.7479C803.867 14.7479 804.267 14.9017 804.577 15.2093C804.889 15.5168 805.045 15.9805 805.045 16.6003V20.2275H803.992V16.6989C803.992 16.3326 803.892 16.0674 803.693 15.903C803.493 15.7387 803.255 15.6565 802.978 15.6565C802.635 15.6565 802.369 15.7621 802.179 15.9734C801.988 16.1824 801.893 16.4512 801.893 16.7799V20.2275H800.844V16.632C800.844 16.3385 800.752 16.1026 800.569 15.9241C800.386 15.7457 800.148 15.6565 799.854 15.6565C799.655 15.6565 799.47 15.7093 799.301 15.815C799.135 15.9183 799 16.0627 798.896 16.2481C798.796 16.4336 798.745 16.6484 798.745 16.8926V20.2275H797.692ZM808.735 20.3367C808.228 20.3367 807.785 20.2205 807.407 19.9881C807.029 19.7556 806.736 19.4305 806.527 19.0126C806.318 18.5947 806.213 18.1064 806.213 17.5476C806.213 16.9865 806.318 16.4958 806.527 16.0756C806.736 15.6553 807.029 15.329 807.407 15.0966C807.785 14.8641 808.228 14.7479 808.735 14.7479C809.242 14.7479 809.685 14.8641 810.063 15.0966C810.441 15.329 810.734 15.6553 810.943 16.0756C811.152 16.4958 811.256 16.9865 811.256 17.5476C811.256 18.1064 811.152 18.5947 810.943 19.0126C810.734 19.4305 810.441 19.7556 810.063 19.9881C809.685 20.2205 809.242 20.3367 808.735 20.3367ZM808.738 19.4528C809.067 19.4528 809.339 19.3659 809.555 19.1922C809.771 19.0185 809.931 18.7872 810.034 18.4984C810.14 18.2097 810.193 17.8915 810.193 17.5441C810.193 17.199 810.14 16.882 810.034 16.5932C809.931 16.3021 809.771 16.0685 809.555 15.8924C809.339 15.7164 809.067 15.6283 808.738 15.6283C808.407 15.6283 808.133 15.7164 807.914 15.8924C807.698 16.0685 807.538 16.3021 807.432 16.5932C807.329 16.882 807.277 17.199 807.277 17.5441C807.277 17.8915 807.329 18.2097 807.432 18.4984C807.538 18.7872 807.698 19.0185 807.914 19.1922C808.133 19.3659 808.407 19.4528 808.738 19.4528ZM815.858 17.9843V14.8184H816.915V20.2275H815.879V19.2908H815.823C815.699 19.5796 815.499 19.8202 815.224 20.0127C814.952 20.2029 814.613 20.298 814.207 20.298C813.859 20.298 813.552 20.2217 813.284 20.0691C813.019 19.9141 812.81 19.6852 812.657 19.3824C812.507 19.0795 812.432 18.705 812.432 18.259V14.8184H813.485V18.1322C813.485 18.5008 813.587 18.7942 813.791 19.0126C813.995 19.2309 814.261 19.3401 814.587 19.3401C814.784 19.3401 814.98 19.2908 815.175 19.1922C815.372 19.0936 815.535 18.9445 815.665 18.7449C815.796 18.5454 815.861 18.2918 815.858 17.9843ZM819.383 17.0158V20.2275H818.33V14.8184H819.34V15.6988H819.407C819.532 15.4123 819.726 15.1823 819.992 15.0085C820.259 14.8348 820.596 14.7479 821.002 14.7479C821.371 14.7479 821.694 14.8254 821.971 14.9804C822.248 15.133 822.463 15.3607 822.615 15.6635C822.768 15.9664 822.844 16.3409 822.844 16.7869V20.2275H821.791V16.9137C821.791 16.5216 821.689 16.2153 821.485 15.9946C821.281 15.7715 821 15.66 820.643 15.66C820.399 15.66 820.182 15.7128 819.992 15.8185C819.804 15.9241 819.655 16.0791 819.544 16.2833C819.436 16.4853 819.383 16.7294 819.383 17.0158ZM826.781 14.8184V15.6635H823.827V14.8184H826.781ZM824.619 13.5224H825.672V18.6393C825.672 18.8436 825.703 18.9973 825.764 19.1006C825.825 19.2016 825.903 19.2708 826 19.3084C826.098 19.3436 826.205 19.3612 826.32 19.3612C826.405 19.3612 826.479 19.3554 826.542 19.3436C826.605 19.3319 826.655 19.3225 826.69 19.3154L826.88 20.1853C826.819 20.2088 826.732 20.2322 826.619 20.2557C826.507 20.2815 826.366 20.2956 826.197 20.298C825.92 20.3027 825.662 20.2534 825.422 20.1501C825.183 20.0468 824.989 19.8871 824.841 19.6711C824.693 19.4551 824.619 19.184 824.619 18.8576V13.5224ZM832.596 20.3332C832.159 20.3332 831.769 20.2217 831.426 19.9986C831.086 19.7733 830.818 19.4528 830.623 19.0372C830.431 18.6193 830.335 18.1181 830.335 17.5335C830.335 16.9489 830.432 16.4489 830.627 16.0333C830.824 15.6178 831.094 15.2996 831.437 15.079C831.78 14.8583 832.168 14.7479 832.603 14.7479C832.938 14.7479 833.208 14.8043 833.413 14.917C833.619 15.0273 833.779 15.1564 833.891 15.3043C834.007 15.4522 834.096 15.5825 834.159 15.6952H834.223V13.0153H835.275V20.2275H834.247V19.3859H834.159C834.096 19.5009 834.004 19.6324 833.884 19.7803C833.767 19.9282 833.605 20.0573 833.398 20.1677C833.192 20.278 832.924 20.3332 832.596 20.3332ZM832.828 19.4352C833.131 19.4352 833.387 19.3554 833.596 19.1957C833.807 19.0337 833.967 18.8095 834.075 18.5231C834.185 18.2367 834.24 17.9033 834.24 17.523C834.24 17.1473 834.186 16.8186 834.078 16.5369C833.97 16.2552 833.812 16.0357 833.603 15.8784C833.394 15.7211 833.136 15.6424 832.828 15.6424C832.511 15.6424 832.247 15.7246 832.036 15.8889C831.824 16.0533 831.665 16.2775 831.557 16.5616C831.451 16.8456 831.398 17.1661 831.398 17.523C831.398 17.8845 831.452 18.2097 831.56 18.4984C831.668 18.7872 831.828 19.0161 832.039 19.1851C832.253 19.3518 832.516 19.4352 832.828 19.4352ZM840.205 17.9843V14.8184H841.261V20.2275H840.226V19.2908H840.17C840.045 19.5796 839.846 19.8202 839.571 20.0127C839.299 20.2029 838.959 20.298 838.553 20.298C838.206 20.298 837.898 20.2217 837.631 20.0691C837.365 19.9141 837.156 19.6852 837.004 19.3824C836.853 19.0795 836.778 18.705 836.778 18.259V14.8184H837.831V18.1322C837.831 18.5008 837.933 18.7942 838.138 19.0126C838.342 19.2309 838.607 19.3401 838.934 19.3401C839.131 19.3401 839.327 19.2908 839.522 19.1922C839.719 19.0936 839.882 18.9445 840.011 18.7449C840.143 18.5454 840.207 18.2918 840.205 17.9843ZM845.007 20.3367C844.474 20.3367 844.016 20.2228 843.63 19.9951C843.248 19.765 842.952 19.4422 842.743 19.0267C842.536 18.6088 842.433 18.1193 842.433 17.5582C842.433 17.0041 842.536 16.5158 842.743 16.0932C842.952 15.6706 843.243 15.3407 843.616 15.1036C843.992 14.8665 844.431 14.7479 844.933 14.7479C845.239 14.7479 845.534 14.7984 845.821 14.8994C846.107 15.0003 846.364 15.1588 846.592 15.3748C846.82 15.5908 846.999 15.8713 847.131 16.2164C847.262 16.5592 847.328 16.9759 847.328 17.4666V17.8399H843.028V17.0511H846.296C846.296 16.774 846.24 16.5287 846.127 16.315C846.015 16.099 845.856 15.9288 845.652 15.8044C845.45 15.68 845.213 15.6178 844.941 15.6178C844.645 15.6178 844.386 15.6905 844.166 15.8361C843.947 15.9793 843.778 16.1671 843.659 16.3996C843.541 16.6296 843.483 16.8797 843.483 17.1497V17.7659C843.483 18.1275 843.546 18.435 843.673 18.6886C843.802 18.9422 843.981 19.1358 844.212 19.2697C844.442 19.4011 844.71 19.4669 845.018 19.4669C845.218 19.4669 845.399 19.4387 845.564 19.3824C845.728 19.3237 845.87 19.2368 845.99 19.1218C846.11 19.0067 846.201 18.8647 846.265 18.6956L847.261 18.8752C847.181 19.1687 847.038 19.4258 846.832 19.6465C846.627 19.8648 846.37 20.035 846.06 20.1571C845.753 20.2768 845.402 20.3367 845.007 20.3367Z" fill="#021720" fill-opacity="0.6"/>
</g>
<path d="M943 32.4551V31.5535H0V32.4551V33.3566H943V32.4551Z" fill="black" fill-opacity="0.05" mask="url(#path-1-inside-1_6064_7482)"/>
<defs>
<clipPath id="clip0_6064_7482">
<path d="M0 0H943V32.4551H0V0Z" fill="white"/>
</clipPath>
<clipPath id="clip1_6064_7482">
<path d="M10.8184 0H36.0612V32.4551H10.8184V0Z" fill="white"/>
</clipPath>
</defs>
</svg>
