<svg width="543" height="60" viewBox="0 0 543 60" fill="none" xmlns="http://www.w3.org/2000/svg">
<rect width="543" height="60" rx="8" fill="white"/>
<rect x="0.439597" y="0.439597" width="542.121" height="59.1208" rx="7.5604" stroke="black" stroke-opacity="0.08" stroke-width="0.879195"/>
<path d="M26.6816 27.4929C26.6286 27.0223 26.4099 26.6577 26.0254 26.3991C25.6409 26.1373 25.157 26.0064 24.5737 26.0064C24.1561 26.0064 23.7948 26.0727 23.4899 26.2053C23.185 26.3345 22.948 26.5135 22.7789 26.7422C22.6132 26.9676 22.5304 27.2244 22.5304 27.5128C22.5304 27.7547 22.5867 27.9635 22.6994 28.1392C22.8154 28.3149 22.9662 28.4624 23.1518 28.5817C23.3407 28.6977 23.5429 28.7955 23.7583 28.875C23.9738 28.9512 24.1809 29.0142 24.3798 29.0639L25.3741 29.3224C25.6989 29.402 26.032 29.5097 26.3734 29.6456C26.7148 29.7815 27.0313 29.9605 27.323 30.1825C27.6146 30.4046 27.85 30.6797 28.0289 31.0078C28.2112 31.3359 28.3024 31.7287 28.3024 32.1861C28.3024 32.7628 28.1532 33.2749 27.8549 33.7223C27.56 34.1697 27.1307 34.5227 26.5673 34.7812C26.0072 35.0398 25.3294 35.169 24.5339 35.169C23.7716 35.169 23.112 35.0481 22.5552 34.8061C21.9984 34.5642 21.5626 34.2211 21.2477 33.777C20.9328 33.3295 20.7588 32.7992 20.7257 32.1861H22.2669C22.2967 32.554 22.416 32.8606 22.6248 33.1058C22.8369 33.3478 23.1071 33.5284 23.4352 33.6477C23.7666 33.7637 24.1296 33.8217 24.524 33.8217C24.9582 33.8217 25.3443 33.7538 25.6824 33.6179C26.0237 33.4787 26.2922 33.2865 26.4877 33.0412C26.6833 32.7926 26.7811 32.5026 26.7811 32.1712C26.7811 31.8696 26.6949 31.6226 26.5225 31.4304C26.3535 31.2382 26.1232 31.0791 25.8315 30.9531C25.5431 30.8272 25.2167 30.7161 24.8521 30.62L23.649 30.2919C22.8336 30.0698 22.1873 29.7434 21.71 29.3125C21.2361 28.8816 20.9991 28.3116 20.9991 27.6023C20.9991 27.0156 21.1582 26.5036 21.4764 26.0661C21.7946 25.6286 22.2254 25.2888 22.769 25.0469C23.3126 24.8016 23.9257 24.679 24.6085 24.679C25.2979 24.679 25.9061 24.8 26.4331 25.0419C26.9634 25.2839 27.381 25.617 27.6859 26.0412C27.9908 26.4621 28.1499 26.946 28.1632 27.4929H26.6816ZM33.31 35.1541C32.5576 35.1541 31.9097 34.9934 31.3661 34.6719C30.8259 34.3471 30.4083 33.8913 30.1133 33.3047C29.8216 32.7147 29.6758 32.0237 29.6758 31.2315C29.6758 30.4493 29.8216 29.7599 30.1133 29.1634C30.4083 28.5668 30.8192 28.1011 31.3462 27.7663C31.8765 27.4316 32.4963 27.2642 33.2056 27.2642C33.6365 27.2642 34.0541 27.3355 34.4585 27.478C34.8628 27.6205 35.2257 27.8442 35.5472 28.1491C35.8687 28.4541 36.1223 28.8501 36.3079 29.3374C36.4935 29.8213 36.5863 30.4096 36.5863 31.1023V31.6293H30.516V30.5156H35.1296C35.1296 30.1245 35.0501 29.7782 34.891 29.4766C34.7319 29.1716 34.5082 28.9313 34.2198 28.7557C33.9348 28.58 33.6 28.4922 33.2156 28.4922C32.7979 28.4922 32.4334 28.5949 32.1218 28.8004C31.8136 29.0026 31.5749 29.2678 31.4059 29.5959C31.2402 29.9207 31.1573 30.2737 31.1573 30.6548V31.5249C31.1573 32.0353 31.2468 32.4695 31.4258 32.8274C31.6081 33.1854 31.8616 33.4588 32.1864 33.6477C32.5112 33.8333 32.8907 33.9261 33.3249 33.9261C33.6067 33.9261 33.8635 33.8864 34.0955 33.8068C34.3275 33.724 34.5281 33.6013 34.6971 33.4389C34.8661 33.2765 34.9954 33.076 35.0849 32.8374L36.4918 33.0909C36.3791 33.5052 36.177 33.8681 35.8853 34.1797C35.5969 34.4879 35.234 34.7282 34.7965 34.9006C34.3623 35.0696 33.8668 35.1541 33.31 35.1541ZM39.7221 24.8182V35H38.2356V24.8182H39.7221ZM45.0131 35.1541C44.2608 35.1541 43.6128 34.9934 43.0692 34.6719C42.529 34.3471 42.1114 33.8913 41.8164 33.3047C41.5247 32.7147 41.3789 32.0237 41.3789 31.2315C41.3789 30.4493 41.5247 29.7599 41.8164 29.1634C42.1114 28.5668 42.5224 28.1011 43.0494 27.7663C43.5797 27.4316 44.1995 27.2642 44.9087 27.2642C45.3396 27.2642 45.7572 27.3355 46.1616 27.478C46.5659 27.6205 46.9289 27.8442 47.2504 28.1491C47.5719 28.4541 47.8254 28.8501 48.011 29.3374C48.1966 29.8213 48.2894 30.4096 48.2894 31.1023V31.6293H42.2191V30.5156H46.8327C46.8327 30.1245 46.7532 29.7782 46.5941 29.4766C46.435 29.1716 46.2113 28.9313 45.9229 28.7557C45.6379 28.58 45.3031 28.4922 44.9187 28.4922C44.5011 28.4922 44.1365 28.5949 43.8249 28.8004C43.5167 29.0026 43.2781 29.2678 43.109 29.5959C42.9433 29.9207 42.8604 30.2737 42.8604 30.6548V31.5249C42.8604 32.0353 42.9499 32.4695 43.1289 32.8274C43.3112 33.1854 43.5647 33.4588 43.8896 33.6477C44.2144 33.8333 44.5939 33.9261 45.0281 33.9261C45.3098 33.9261 45.5666 33.8864 45.7987 33.8068C46.0307 33.724 46.2312 33.6013 46.4002 33.4389C46.5692 33.2765 46.6985 33.076 46.788 32.8374L48.195 33.0909C48.0823 33.5052 47.8801 33.8681 47.5884 34.1797C47.3001 34.4879 46.9371 34.7282 46.4996 34.9006C46.0655 35.0696 45.57 35.1541 45.0131 35.1541ZM53.1554 35.1541C52.4163 35.1541 51.7799 34.9867 51.2463 34.652C50.716 34.3139 50.3083 33.8482 50.0233 33.255C49.7382 32.6617 49.5957 31.9822 49.5957 31.2166C49.5957 30.4411 49.7415 29.7566 50.0332 29.1634C50.3249 28.5668 50.7359 28.1011 51.2662 27.7663C51.7965 27.4316 52.4212 27.2642 53.1404 27.2642C53.7205 27.2642 54.2375 27.3719 54.6916 27.5874C55.1457 27.7995 55.5119 28.0978 55.7903 28.4822C56.072 28.8667 56.2394 29.3158 56.2924 29.8295H54.8457C54.7662 29.4716 54.5839 29.1634 54.2988 28.9048C54.0171 28.6463 53.6393 28.517 53.1653 28.517C52.751 28.517 52.3881 28.6264 52.0765 28.8452C51.7683 29.0606 51.528 29.3688 51.3556 29.7699C51.1833 30.1676 51.0971 30.6383 51.0971 31.1818C51.0971 31.7386 51.1816 32.2192 51.3507 32.6236C51.5197 33.0279 51.7583 33.3411 52.0666 33.5632C52.3781 33.7853 52.7444 33.8963 53.1653 33.8963C53.447 33.8963 53.7022 33.8449 53.9309 33.7422C54.1629 33.6361 54.3568 33.4853 54.5126 33.2898C54.6717 33.0942 54.7827 32.8589 54.8457 32.5838H56.2924C56.2394 33.0777 56.0787 33.5185 55.8102 33.9062C55.5417 34.294 55.1821 34.599 54.7314 34.821C54.2839 35.0431 53.7586 35.1541 53.1554 35.1541ZM61.4467 27.3636V28.5568H57.2756V27.3636H61.4467ZM58.3942 25.5341H59.8807V32.7578C59.8807 33.0462 59.9238 33.2633 60.0099 33.4091C60.0961 33.5516 60.2071 33.6494 60.343 33.7024C60.4822 33.7521 60.633 33.777 60.7955 33.777C60.9148 33.777 61.0192 33.7687 61.1087 33.7521C61.1982 33.7356 61.2678 33.7223 61.3175 33.7124L61.5859 34.9403C61.4998 34.9735 61.3771 35.0066 61.218 35.0398C61.0589 35.0762 60.8601 35.0961 60.6214 35.0994C60.2304 35.1061 59.8658 35.0365 59.5277 34.8906C59.1896 34.7448 58.9162 34.5194 58.7074 34.2145C58.4986 33.9096 58.3942 33.5268 58.3942 33.0661V25.5341ZM66.3002 35.1541C65.5479 35.1541 64.8999 34.9934 64.3564 34.6719C63.8161 34.3471 63.3985 33.8913 63.1035 33.3047C62.8118 32.7147 62.666 32.0237 62.666 31.2315C62.666 30.4493 62.8118 29.7599 63.1035 29.1634C63.3985 28.5668 63.8095 28.1011 64.3365 27.7663C64.8668 27.4316 65.4866 27.2642 66.1958 27.2642C66.6267 27.2642 67.0443 27.3355 67.4487 27.478C67.853 27.6205 68.216 27.8442 68.5375 28.1491C68.859 28.4541 69.1125 28.8501 69.2981 29.3374C69.4837 29.8213 69.5765 30.4096 69.5765 31.1023V31.6293H63.5062V30.5156H68.1199C68.1199 30.1245 68.0403 29.7782 67.8812 29.4766C67.7221 29.1716 67.4984 28.9313 67.21 28.7557C66.925 28.58 66.5903 28.4922 66.2058 28.4922C65.7882 28.4922 65.4236 28.5949 65.112 28.8004C64.8038 29.0026 64.5652 29.2678 64.3961 29.5959C64.2304 29.9207 64.1475 30.2737 64.1475 30.6548V31.5249C64.1475 32.0353 64.237 32.4695 64.416 32.8274C64.5983 33.1854 64.8519 33.4588 65.1767 33.6477C65.5015 33.8333 65.881 33.9261 66.3152 33.9261C66.5969 33.9261 66.8538 33.8864 67.0858 33.8068C67.3178 33.724 67.5183 33.6013 67.6873 33.4389C67.8564 33.2765 67.9856 33.076 68.0751 32.8374L69.4821 33.0909C69.3694 33.5052 69.1672 33.8681 68.8755 34.1797C68.5872 34.4879 68.2243 34.7282 67.7868 34.9006C67.3526 35.0696 66.8571 35.1541 66.3002 35.1541ZM74.0845 35.1491C73.468 35.1491 72.9179 34.9917 72.4339 34.6768C71.9534 34.3587 71.5755 33.9062 71.3004 33.3196C71.0286 32.7296 70.8928 32.022 70.8928 31.1967C70.8928 30.3714 71.0303 29.6655 71.3054 29.0788C71.5838 28.4922 71.965 28.0431 72.4489 27.7315C72.9328 27.42 73.4813 27.2642 74.0945 27.2642C74.5684 27.2642 74.9496 27.3438 75.2379 27.5028C75.5296 27.6586 75.755 27.8409 75.9141 28.0497C76.0765 28.2585 76.2024 28.4425 76.2919 28.6016H76.3814V24.8182H77.8679V35H76.4162V33.8118H76.2919C76.2024 33.9742 76.0732 34.1598 75.9041 34.3686C75.7384 34.5774 75.5097 34.7597 75.218 34.9155C74.9264 35.0713 74.5485 35.1491 74.0845 35.1491ZM74.4126 33.8814C74.8402 33.8814 75.2015 33.7687 75.4964 33.5433C75.7947 33.3146 76.0201 32.9981 76.1726 32.5938C76.3284 32.1894 76.4062 31.7187 76.4062 31.1818C76.4062 30.6515 76.33 30.1875 76.1776 29.7898C76.0251 29.392 75.8014 29.0821 75.5064 28.8601C75.2114 28.638 74.8468 28.527 74.4126 28.527C73.9652 28.527 73.5923 28.643 73.294 28.875C72.9957 29.107 72.7704 29.4235 72.6179 29.8246C72.4688 30.2256 72.3942 30.678 72.3942 31.1818C72.3942 31.6922 72.4704 32.1513 72.6229 32.5589C72.7753 32.9666 73.0007 33.2898 73.299 33.5284C73.6006 33.7637 73.9718 33.8814 74.4126 33.8814Z" fill="#021720"/>
<rect x="86.0334" y="20.3289" width="23.5503" height="19.3423" rx="9.67114" fill="#4945FF" fill-opacity="0.1"/>
<path d="M95.6562 25.6876V34H94.398V26.9458H94.3493L92.3605 28.2446V27.0432L94.4345 25.6876H95.6562ZM100.35 34.1136C99.9789 34.1082 99.6136 34.0406 99.2537 33.9107C98.8966 33.7808 98.5719 33.5644 98.2796 33.2613C97.9874 32.9582 97.7533 32.551 97.5775 32.0396C97.4043 31.5282 97.3177 30.8896 97.3177 30.1239C97.3177 29.3987 97.3894 28.7547 97.5328 28.1919C97.6789 27.6291 97.8886 27.1542 98.1619 26.7673C98.4352 26.3776 98.7653 26.0813 99.1523 25.8784C99.5392 25.6754 99.9735 25.574 100.455 25.574C100.95 25.574 101.39 25.6714 101.774 25.8662C102.158 26.061 102.47 26.3303 102.708 26.6739C102.949 27.0175 103.101 27.4085 103.166 27.8469H101.928C101.845 27.5005 101.678 27.2178 101.429 26.9986C101.18 26.7794 100.856 26.6698 100.455 26.6698C99.8463 26.6698 99.3714 26.935 99.0305 27.4654C98.6923 27.9957 98.5218 28.7331 98.5191 29.6774H98.58C98.7234 29.442 98.8993 29.2418 99.1076 29.0767C99.3187 28.9089 99.5541 28.7804 99.8139 28.6911C100.076 28.5991 100.352 28.5531 100.642 28.5531C101.123 28.5531 101.559 28.6708 101.949 28.9062C102.341 29.1389 102.654 29.4609 102.886 29.8722C103.119 30.2835 103.235 30.7543 103.235 31.2847C103.235 31.815 103.115 32.2953 102.874 32.7255C102.636 33.1558 102.301 33.4967 101.868 33.7484C101.435 33.9973 100.929 34.1191 100.35 34.1136ZM100.346 33.0584C100.665 33.0584 100.95 32.9799 101.202 32.823C101.454 32.666 101.652 32.455 101.799 32.1898C101.945 31.9246 102.018 31.6283 102.018 31.3009C102.018 30.9816 101.946 30.6907 101.803 30.4283C101.662 30.1658 101.467 29.9575 101.218 29.8032C100.972 29.649 100.691 29.5719 100.374 29.5719C100.133 29.5719 99.9099 29.6179 99.7043 29.7099C99.5013 29.8019 99.3227 29.929 99.1685 30.0914C99.0143 30.2537 98.8925 30.4404 98.8032 30.6515C98.7166 30.8599 98.6733 31.0804 98.6733 31.3131C98.6733 31.6243 98.745 31.9124 98.8885 32.1776C99.0346 32.4428 99.2334 32.6565 99.4851 32.8189C99.7394 32.9785 100.026 33.0584 100.346 33.0584Z" fill="#4945FF"/>
<path d="M124.384 27.3636L121.615 35H120.024L117.25 27.3636H118.845L120.779 33.2401H120.859L122.788 27.3636H124.384ZM128.812 35.1541C128.06 35.1541 127.412 34.9934 126.868 34.6719C126.328 34.3471 125.91 33.8913 125.615 33.3047C125.324 32.7147 125.178 32.0237 125.178 31.2315C125.178 30.4493 125.324 29.7599 125.615 29.1634C125.91 28.5668 126.321 28.1011 126.848 27.7663C127.379 27.4316 127.999 27.2642 128.708 27.2642C129.139 27.2642 129.556 27.3355 129.961 27.478C130.365 27.6205 130.728 27.8442 131.049 28.1491C131.371 28.4541 131.624 28.8501 131.81 29.3374C131.996 29.8213 132.088 30.4096 132.088 31.1023V31.6293H126.018V30.5156H130.632C130.632 30.1245 130.552 29.7782 130.393 29.4766C130.234 29.1716 130.01 28.9313 129.722 28.7557C129.437 28.58 129.102 28.4922 128.718 28.4922C128.3 28.4922 127.936 28.5949 127.624 28.8004C127.316 29.0026 127.077 29.2678 126.908 29.5959C126.742 29.9207 126.66 30.2737 126.66 30.6548V31.5249C126.66 32.0353 126.749 32.4695 126.928 32.8274C127.11 33.1854 127.364 33.4588 127.689 33.6477C128.013 33.8333 128.393 33.9261 128.827 33.9261C129.109 33.9261 129.366 33.8864 129.598 33.8068C129.83 33.724 130.03 33.6013 130.199 33.4389C130.368 33.2765 130.498 33.076 130.587 32.8374L131.994 33.0909C131.881 33.5052 131.679 33.8681 131.387 34.1797C131.099 34.4879 130.736 34.7282 130.299 34.9006C129.865 35.0696 129.369 35.1541 128.812 35.1541ZM135.224 30.4659V35H133.738V27.3636H135.165V28.6065H135.259C135.435 28.2022 135.71 27.8774 136.084 27.6321C136.462 27.3868 136.938 27.2642 137.511 27.2642C138.032 27.2642 138.487 27.3736 138.878 27.5923C139.27 27.8078 139.573 28.1293 139.788 28.5568C140.004 28.9844 140.111 29.513 140.111 30.1428V35H138.625V30.3217C138.625 29.7682 138.481 29.3357 138.192 29.0241C137.904 28.7093 137.508 28.5518 137.004 28.5518C136.659 28.5518 136.353 28.6264 136.084 28.7756C135.819 28.9247 135.609 29.1435 135.453 29.4318C135.301 29.7169 135.224 30.0616 135.224 30.4659ZM144.964 35.1491C144.347 35.1491 143.797 34.9917 143.313 34.6768C142.833 34.3587 142.455 33.9062 142.18 33.3196C141.908 32.7296 141.772 32.022 141.772 31.1967C141.772 30.3714 141.909 29.6655 142.185 29.0788C142.463 28.4922 142.844 28.0431 143.328 27.7315C143.812 27.42 144.36 27.2642 144.974 27.2642C145.448 27.2642 145.829 27.3438 146.117 27.5028C146.409 27.6586 146.634 27.8409 146.793 28.0497C146.956 28.2585 147.082 28.4425 147.171 28.6016H147.261V24.8182H148.747V35H147.295V33.8118H147.171C147.082 33.9742 146.952 34.1598 146.783 34.3686C146.618 34.5774 146.389 34.7597 146.097 34.9155C145.806 35.0713 145.428 35.1491 144.964 35.1491ZM145.292 33.8814C145.719 33.8814 146.081 33.7687 146.376 33.5433C146.674 33.3146 146.899 32.9981 147.052 32.5938C147.208 32.1894 147.285 31.7187 147.285 31.1818C147.285 30.6515 147.209 30.1875 147.057 29.7898C146.904 29.392 146.681 29.0821 146.386 28.8601C146.091 28.638 145.726 28.527 145.292 28.527C144.844 28.527 144.471 28.643 144.173 28.875C143.875 29.107 143.65 29.4235 143.497 29.8246C143.348 30.2256 143.273 30.678 143.273 31.1818C143.273 31.6922 143.35 32.1513 143.502 32.5589C143.654 32.9666 143.88 33.2898 144.178 33.5284C144.48 33.7637 144.851 33.8814 145.292 33.8814ZM154.085 35.1541C153.369 35.1541 152.745 34.9901 152.211 34.6619C151.677 34.3338 151.263 33.8748 150.968 33.2848C150.673 32.6948 150.526 32.0054 150.526 31.2166C150.526 30.4245 150.673 29.7318 150.968 29.1385C151.263 28.5452 151.677 28.0845 152.211 27.7564C152.745 27.4283 153.369 27.2642 154.085 27.2642C154.801 27.2642 155.426 27.4283 155.96 27.7564C156.493 28.0845 156.908 28.5452 157.202 29.1385C157.497 29.7318 157.645 30.4245 157.645 31.2166C157.645 32.0054 157.497 32.6948 157.202 33.2848C156.908 33.8748 156.493 34.3338 155.96 34.6619C155.426 34.9901 154.801 35.1541 154.085 35.1541ZM154.09 33.9062C154.554 33.9062 154.939 33.7836 155.244 33.5384C155.549 33.2931 155.774 32.9666 155.92 32.5589C156.069 32.1513 156.144 31.7022 156.144 31.2116C156.144 30.7244 156.069 30.277 155.92 29.8693C155.774 29.4583 155.549 29.1286 155.244 28.88C154.939 28.6314 154.554 28.5071 154.09 28.5071C153.623 28.5071 153.235 28.6314 152.927 28.88C152.622 29.1286 152.395 29.4583 152.246 29.8693C152.1 30.277 152.027 30.7244 152.027 31.2116C152.027 31.7022 152.1 32.1513 152.246 32.5589C152.395 32.9666 152.622 33.2931 152.927 33.5384C153.235 33.7836 153.623 33.9062 154.09 33.9062ZM159.304 35V27.3636H160.741V28.5767H160.821C160.96 28.1657 161.205 27.8426 161.556 27.6072C161.911 27.3686 162.312 27.2493 162.759 27.2493C162.852 27.2493 162.962 27.2526 163.088 27.2592C163.217 27.2659 163.318 27.2741 163.391 27.2841V28.706C163.331 28.6894 163.225 28.6712 163.073 28.6513C162.92 28.6281 162.768 28.6165 162.615 28.6165C162.264 28.6165 161.951 28.6911 161.676 28.8402C161.404 28.986 161.188 29.1899 161.029 29.4517C160.87 29.7102 160.791 30.0052 160.791 30.3366V35H159.304ZM170.4 29.228L169.052 29.4666C168.996 29.2943 168.906 29.1302 168.784 28.9744C168.664 28.8187 168.502 28.6911 168.297 28.5916C168.091 28.4922 167.834 28.4425 167.526 28.4425C167.105 28.4425 166.754 28.5369 166.472 28.7259C166.19 28.9115 166.049 29.1518 166.049 29.4467C166.049 29.7019 166.144 29.9074 166.333 30.0632C166.522 30.219 166.827 30.3466 167.248 30.446L168.461 30.7244C169.163 30.8868 169.687 31.1371 170.032 31.4751C170.376 31.8132 170.549 32.2524 170.549 32.7926C170.549 33.25 170.416 33.6577 170.151 34.0156C169.889 34.3703 169.523 34.6487 169.052 34.8509C168.585 35.053 168.043 35.1541 167.427 35.1541C166.571 35.1541 165.874 34.9718 165.334 34.6072C164.793 34.2393 164.462 33.7173 164.339 33.0412L165.776 32.8224C165.865 33.197 166.049 33.4804 166.328 33.6726C166.606 33.8615 166.969 33.956 167.417 33.956C167.904 33.956 168.293 33.8549 168.585 33.6527C168.877 33.4472 169.022 33.197 169.022 32.902C169.022 32.6634 168.933 32.4628 168.754 32.3004C168.578 32.138 168.308 32.0154 167.944 31.9325L166.651 31.6491C165.938 31.4867 165.411 31.2282 165.07 30.8736C164.732 30.5189 164.563 30.0698 164.563 29.5263C164.563 29.0755 164.689 28.6811 164.941 28.343C165.193 28.005 165.541 27.7415 165.985 27.5526C166.429 27.3603 166.938 27.2642 167.511 27.2642C168.336 27.2642 168.986 27.4432 169.46 27.8011C169.934 28.1558 170.247 28.6314 170.4 29.228ZM179.453 27.3636V28.5568H175.282V27.3636H179.453ZM176.4 25.5341H177.887V32.7578C177.887 33.0462 177.93 33.2633 178.016 33.4091C178.102 33.5516 178.213 33.6494 178.349 33.7024C178.488 33.7521 178.639 33.777 178.802 33.777C178.921 33.777 179.025 33.7687 179.115 33.7521C179.204 33.7356 179.274 33.7223 179.324 33.7124L179.592 34.9403C179.506 34.9735 179.383 35.0066 179.224 35.0398C179.065 35.0762 178.866 35.0961 178.628 35.0994C178.236 35.1061 177.872 35.0365 177.534 34.8906C177.196 34.7448 176.922 34.5194 176.713 34.2145C176.505 33.9096 176.4 33.5268 176.4 33.0661V25.5341ZM182.748 30.4659V35H181.261V24.8182H182.728V28.6065H182.822C183.001 28.1955 183.275 27.8691 183.643 27.6271C184.011 27.3852 184.491 27.2642 185.084 27.2642C185.608 27.2642 186.065 27.3719 186.457 27.5874C186.851 27.8028 187.156 28.1243 187.371 28.5518C187.59 28.9761 187.699 29.5064 187.699 30.1428V35H186.213V30.3217C186.213 29.7616 186.069 29.3274 185.78 29.0192C185.492 28.7076 185.091 28.5518 184.577 28.5518C184.226 28.5518 183.911 28.6264 183.633 28.7756C183.358 28.9247 183.141 29.1435 182.981 29.4318C182.826 29.7169 182.748 30.0616 182.748 30.4659ZM191.905 35.169C191.422 35.169 190.984 35.0795 190.593 34.9006C190.202 34.7183 189.892 34.4548 189.663 34.1101C189.438 33.7654 189.325 33.3428 189.325 32.8423C189.325 32.4115 189.408 32.0568 189.574 31.7784C189.739 31.5 189.963 31.2796 190.245 31.1172C190.527 30.9548 190.842 30.8321 191.19 30.7493C191.538 30.6664 191.892 30.6035 192.253 30.5604C192.711 30.5073 193.082 30.4643 193.367 30.4311C193.652 30.3946 193.859 30.3366 193.989 30.2571C194.118 30.1776 194.182 30.0483 194.182 29.8693V29.8345C194.182 29.4003 194.06 29.0639 193.815 28.8253C193.573 28.5866 193.211 28.4673 192.731 28.4673C192.23 28.4673 191.836 28.5784 191.547 28.8004C191.262 29.0192 191.065 29.2628 190.956 29.5312L189.559 29.2131C189.725 28.7491 189.967 28.3745 190.285 28.0895C190.606 27.8011 190.976 27.5923 191.393 27.4631C191.811 27.3305 192.25 27.2642 192.711 27.2642C193.016 27.2642 193.339 27.3007 193.68 27.3736C194.025 27.4432 194.346 27.5724 194.645 27.7614C194.946 27.9503 195.193 28.2204 195.386 28.5717C195.578 28.9197 195.674 29.3722 195.674 29.929V35H194.222V33.956H194.163C194.066 34.1482 193.922 34.3371 193.73 34.5227C193.538 34.7083 193.291 34.8625 192.989 34.9851C192.688 35.1077 192.326 35.169 191.905 35.169ZM192.229 33.9759C192.64 33.9759 192.991 33.8946 193.283 33.7322C193.578 33.5698 193.801 33.3577 193.954 33.0959C194.11 32.8307 194.187 32.5473 194.187 32.2457V31.2614C194.134 31.3144 194.032 31.3641 193.879 31.4105C193.73 31.4536 193.559 31.4917 193.367 31.5249C193.175 31.5547 192.988 31.5829 192.805 31.6094C192.623 31.6326 192.471 31.6525 192.348 31.669C192.06 31.7055 191.796 31.7668 191.557 31.853C191.322 31.9392 191.133 32.0634 190.991 32.2259C190.851 32.3849 190.782 32.5971 190.782 32.8622C190.782 33.2301 190.918 33.5085 191.19 33.6974C191.461 33.883 191.808 33.9759 192.229 33.9759ZM201.218 27.3636V28.5568H197.047V27.3636H201.218ZM198.166 25.5341H199.652V32.7578C199.652 33.0462 199.695 33.2633 199.782 33.4091C199.868 33.5516 199.979 33.6494 200.115 33.7024C200.254 33.7521 200.405 33.777 200.567 33.777C200.687 33.777 200.791 33.7687 200.88 33.7521C200.97 33.7356 201.039 33.7223 201.089 33.7124L201.358 34.9403C201.271 34.9735 201.149 35.0066 200.99 35.0398C200.831 35.0762 200.632 35.0961 200.393 35.0994C200.002 35.1061 199.637 35.0365 199.299 34.8906C198.961 34.7448 198.688 34.5194 198.479 34.2145C198.27 33.9096 198.166 33.5268 198.166 33.0661V25.5341ZM208.79 35.169C208.306 35.169 207.869 35.0795 207.478 34.9006C207.087 34.7183 206.777 34.4548 206.548 34.1101C206.323 33.7654 206.21 33.3428 206.21 32.8423C206.21 32.4115 206.293 32.0568 206.459 31.7784C206.624 31.5 206.848 31.2796 207.13 31.1172C207.411 30.9548 207.726 30.8321 208.074 30.7493C208.422 30.6664 208.777 30.6035 209.138 30.5604C209.596 30.5073 209.967 30.4643 210.252 30.4311C210.537 30.3946 210.744 30.3366 210.873 30.2571C211.003 30.1776 211.067 30.0483 211.067 29.8693V29.8345C211.067 29.4003 210.945 29.0639 210.699 28.8253C210.457 28.5866 210.096 28.4673 209.615 28.4673C209.115 28.4673 208.721 28.5784 208.432 28.8004C208.147 29.0192 207.95 29.2628 207.841 29.5312L206.444 29.2131C206.609 28.7491 206.851 28.3745 207.169 28.0895C207.491 27.8011 207.861 27.5923 208.278 27.4631C208.696 27.3305 209.135 27.2642 209.596 27.2642C209.901 27.2642 210.224 27.3007 210.565 27.3736C210.91 27.4432 211.231 27.5724 211.53 27.7614C211.831 27.9503 212.078 28.2204 212.27 28.5717C212.463 28.9197 212.559 29.3722 212.559 29.929V35H211.107V33.956H211.047C210.951 34.1482 210.807 34.3371 210.615 34.5227C210.423 34.7083 210.176 34.8625 209.874 34.9851C209.572 35.1077 209.211 35.169 208.79 35.169ZM209.113 33.9759C209.524 33.9759 209.876 33.8946 210.167 33.7322C210.462 33.5698 210.686 33.3577 210.838 33.0959C210.994 32.8307 211.072 32.5473 211.072 32.2457V31.2614C211.019 31.3144 210.916 31.3641 210.764 31.4105C210.615 31.4536 210.444 31.4917 210.252 31.5249C210.06 31.5547 209.872 31.5829 209.69 31.6094C209.508 31.6326 209.355 31.6525 209.233 31.669C208.944 31.7055 208.681 31.7668 208.442 31.853C208.207 31.9392 208.018 32.0634 207.875 32.2259C207.736 32.3849 207.667 32.5971 207.667 32.8622C207.667 33.2301 207.803 33.5085 208.074 33.6974C208.346 33.883 208.692 33.9759 209.113 33.9759ZM214.539 35V27.3636H215.975V28.5767H216.055C216.194 28.1657 216.439 27.8426 216.791 27.6072C217.145 27.3686 217.546 27.2493 217.994 27.2493C218.087 27.2493 218.196 27.2526 218.322 27.2592C218.451 27.2659 218.552 27.2741 218.625 27.2841V28.706C218.566 28.6894 218.46 28.6712 218.307 28.6513C218.155 28.6281 218.002 28.6165 217.85 28.6165C217.498 28.6165 217.185 28.6911 216.91 28.8402C216.638 28.986 216.423 29.1899 216.264 29.4517C216.105 29.7102 216.025 30.0052 216.025 30.3366V35H214.539ZM222.929 35.1541C222.177 35.1541 221.529 34.9934 220.986 34.6719C220.445 34.3471 220.028 33.8913 219.733 33.3047C219.441 32.7147 219.295 32.0237 219.295 31.2315C219.295 30.4493 219.441 29.7599 219.733 29.1634C220.028 28.5668 220.439 28.1011 220.966 27.7663C221.496 27.4316 222.116 27.2642 222.825 27.2642C223.256 27.2642 223.673 27.3355 224.078 27.478C224.482 27.6205 224.845 27.8442 225.167 28.1491C225.488 28.4541 225.742 28.8501 225.927 29.3374C226.113 29.8213 226.206 30.4096 226.206 31.1023V31.6293H220.135V30.5156H224.749C224.749 30.1245 224.669 29.7782 224.51 29.4766C224.351 29.1716 224.128 28.9313 223.839 28.7557C223.554 28.58 223.219 28.4922 222.835 28.4922C222.417 28.4922 222.053 28.5949 221.741 28.8004C221.433 29.0026 221.194 29.2678 221.025 29.5959C220.86 29.9207 220.777 30.2737 220.777 30.6548V31.5249C220.777 32.0353 220.866 32.4695 221.045 32.8274C221.227 33.1854 221.481 33.4588 221.806 33.6477C222.131 33.8333 222.51 33.9261 222.944 33.9261C223.226 33.9261 223.483 33.8864 223.715 33.8068C223.947 33.724 224.147 33.6013 224.316 33.4389C224.486 33.2765 224.615 33.076 224.704 32.8374L226.111 33.0909C225.999 33.5052 225.796 33.8681 225.505 34.1797C225.216 34.4879 224.853 34.7282 224.416 34.9006C223.982 35.0696 223.486 35.1541 222.929 35.1541ZM231.56 35V27.3636H232.987V28.6065H233.081C233.24 28.1856 233.501 27.8575 233.862 27.6222C234.223 27.3835 234.656 27.2642 235.16 27.2642C235.67 27.2642 236.097 27.3835 236.442 27.6222C236.79 27.8608 237.047 28.1889 237.213 28.6065H237.292C237.475 28.1989 237.765 27.8741 238.162 27.6321C238.56 27.3868 239.034 27.2642 239.584 27.2642C240.277 27.2642 240.842 27.4813 241.28 27.9155C241.72 28.3497 241.941 29.0043 241.941 29.8793V35H240.454V30.0185C240.454 29.5014 240.313 29.1269 240.032 28.8949C239.75 28.6629 239.414 28.5469 239.022 28.5469C238.539 28.5469 238.162 28.696 237.894 28.9943C237.625 29.2893 237.491 29.6688 237.491 30.1328V35H236.01V29.924C236.01 29.5097 235.88 29.1766 235.622 28.9247C235.363 28.6728 235.027 28.5469 234.613 28.5469C234.331 28.5469 234.071 28.6214 233.832 28.7706C233.597 28.9164 233.406 29.1203 233.26 29.3821C233.118 29.6439 233.047 29.9472 233.047 30.2919V35H231.56ZM243.933 35V27.3636H245.42V35H243.933ZM244.684 26.1854C244.425 26.1854 244.203 26.0992 244.018 25.9268C243.835 25.7512 243.744 25.5424 243.744 25.3004C243.744 25.0552 243.835 24.8464 244.018 24.674C244.203 24.4983 244.425 24.4105 244.684 24.4105C244.942 24.4105 245.163 24.4983 245.345 24.674C245.531 24.8464 245.623 25.0552 245.623 25.3004C245.623 25.5424 245.531 25.7512 245.345 25.9268C245.163 26.0992 244.942 26.1854 244.684 26.1854ZM253.142 29.228L251.794 29.4666C251.738 29.2943 251.649 29.1302 251.526 28.9744C251.407 28.8187 251.244 28.6911 251.039 28.5916C250.833 28.4922 250.576 28.4425 250.268 28.4425C249.847 28.4425 249.496 28.5369 249.214 28.7259C248.932 28.9115 248.792 29.1518 248.792 29.4467C248.792 29.7019 248.886 29.9074 249.075 30.0632C249.264 30.219 249.569 30.3466 249.99 30.446L251.203 30.7244C251.905 30.8868 252.429 31.1371 252.774 31.4751C253.119 31.8132 253.291 32.2524 253.291 32.7926C253.291 33.25 253.158 33.6577 252.893 34.0156C252.631 34.3703 252.265 34.6487 251.794 34.8509C251.327 35.053 250.785 35.1541 250.169 35.1541C249.314 35.1541 248.616 34.9718 248.076 34.6072C247.535 34.2393 247.204 33.7173 247.081 33.0412L248.518 32.8224C248.608 33.197 248.792 33.4804 249.07 33.6726C249.348 33.8615 249.711 33.956 250.159 33.956C250.646 33.956 251.035 33.8549 251.327 33.6527C251.619 33.4472 251.765 33.197 251.765 32.902C251.765 32.6634 251.675 32.4628 251.496 32.3004C251.32 32.138 251.05 32.0154 250.686 31.9325L249.393 31.6491C248.681 31.4867 248.154 31.2282 247.812 30.8736C247.474 30.5189 247.305 30.0698 247.305 29.5263C247.305 29.0755 247.431 28.6811 247.683 28.343C247.935 28.005 248.283 27.7415 248.727 27.5526C249.171 27.3603 249.68 27.2642 250.253 27.2642C251.079 27.2642 251.728 27.4432 252.202 27.8011C252.676 28.1558 252.989 28.6314 253.142 29.228ZM260.648 29.228L259.3 29.4666C259.244 29.2943 259.154 29.1302 259.032 28.9744C258.913 28.8187 258.75 28.6911 258.545 28.5916C258.339 28.4922 258.082 28.4425 257.774 28.4425C257.353 28.4425 257.002 28.5369 256.72 28.7259C256.438 28.9115 256.297 29.1518 256.297 29.4467C256.297 29.7019 256.392 29.9074 256.581 30.0632C256.77 30.219 257.075 30.3466 257.496 30.446L258.709 30.7244C259.411 30.8868 259.935 31.1371 260.28 31.4751C260.624 31.8132 260.797 32.2524 260.797 32.7926C260.797 33.25 260.664 33.6577 260.399 34.0156C260.137 34.3703 259.771 34.6487 259.3 34.8509C258.833 35.053 258.291 35.1541 257.675 35.1541C256.819 35.1541 256.122 34.9718 255.582 34.6072C255.041 34.2393 254.71 33.7173 254.587 33.0412L256.024 32.8224C256.114 33.197 256.297 33.4804 256.576 33.6726C256.854 33.8615 257.217 33.956 257.665 33.956C258.152 33.956 258.541 33.8549 258.833 33.6527C259.125 33.4472 259.27 33.197 259.27 32.902C259.27 32.6634 259.181 32.4628 259.002 32.3004C258.826 32.138 258.556 32.0154 258.192 31.9325L256.899 31.6491C256.186 31.4867 255.659 31.2282 255.318 30.8736C254.98 30.5189 254.811 30.0698 254.811 29.5263C254.811 29.0755 254.937 28.6811 255.189 28.343C255.441 28.005 255.789 27.7415 256.233 27.5526C256.677 27.3603 257.186 27.2642 257.759 27.2642C258.584 27.2642 259.234 27.4432 259.708 27.8011C260.182 28.1558 260.495 28.6314 260.648 29.228ZM262.431 35V27.3636H263.918V35H262.431ZM263.182 26.1854C262.923 26.1854 262.701 26.0992 262.516 25.9268C262.333 25.7512 262.242 25.5424 262.242 25.3004C262.242 25.0552 262.333 24.8464 262.516 24.674C262.701 24.4983 262.923 24.4105 263.182 24.4105C263.44 24.4105 263.661 24.4983 263.843 24.674C264.029 24.8464 264.122 25.0552 264.122 25.3004C264.122 25.5424 264.029 25.7512 263.843 25.9268C263.661 26.0992 263.44 26.1854 263.182 26.1854ZM267.404 30.4659V35H265.918V27.3636H267.344V28.6065H267.439C267.614 28.2022 267.89 27.8774 268.264 27.6321C268.642 27.3868 269.118 27.2642 269.691 27.2642C270.211 27.2642 270.667 27.3736 271.058 27.5923C271.449 27.8078 271.752 28.1293 271.968 28.5568C272.183 28.9844 272.291 29.513 272.291 30.1428V35H270.805V30.3217C270.805 29.7682 270.66 29.3357 270.372 29.0241C270.084 28.7093 269.688 28.5518 269.184 28.5518C268.839 28.5518 268.533 28.6264 268.264 28.7756C267.999 28.9247 267.788 29.1435 267.633 29.4318C267.48 29.7169 267.404 30.0616 267.404 30.4659ZM277.486 38.0227C276.88 38.0227 276.358 37.9432 275.92 37.7841C275.486 37.625 275.132 37.4145 274.856 37.1527C274.581 36.8909 274.376 36.6042 274.24 36.2926L275.518 35.7656C275.607 35.9115 275.726 36.0656 275.876 36.228C276.028 36.3937 276.234 36.5346 276.492 36.6506C276.754 36.7666 277.09 36.8246 277.501 36.8246C278.065 36.8246 278.53 36.687 278.898 36.4119C279.266 36.1402 279.45 35.706 279.45 35.1094V33.608H279.356C279.266 33.7704 279.137 33.951 278.968 34.1499C278.802 34.3487 278.574 34.5211 278.282 34.6669C277.99 34.8127 277.611 34.8857 277.143 34.8857C276.54 34.8857 275.997 34.7448 275.513 34.4631C275.032 34.178 274.651 33.7588 274.369 33.2053C274.091 32.6484 273.952 31.964 273.952 31.152C273.952 30.34 274.089 29.6439 274.364 29.0639C274.643 28.4839 275.024 28.0398 275.508 27.7315C275.992 27.42 276.54 27.2642 277.153 27.2642C277.627 27.2642 278.01 27.3438 278.302 27.5028C278.593 27.6586 278.82 27.8409 278.983 28.0497C279.149 28.2585 279.276 28.4425 279.366 28.6016H279.475V27.3636H280.932V35.169C280.932 35.8253 280.779 36.3639 280.474 36.7848C280.169 37.2057 279.757 37.5173 279.236 37.7195C278.719 37.9216 278.136 38.0227 277.486 38.0227ZM277.471 33.6527C277.899 33.6527 278.26 33.5533 278.555 33.3544C278.854 33.1522 279.079 32.8639 279.231 32.4893C279.387 32.1115 279.465 31.6591 279.465 31.1321C279.465 30.6184 279.389 30.166 279.236 29.7749C279.084 29.3838 278.86 29.0788 278.565 28.8601C278.27 28.638 277.906 28.527 277.471 28.527C277.024 28.527 276.651 28.643 276.353 28.875C276.055 29.1037 275.829 29.4152 275.677 29.8097C275.528 30.2041 275.453 30.6449 275.453 31.1321C275.453 31.6326 275.529 32.0717 275.682 32.4496C275.834 32.8274 276.06 33.1224 276.358 33.3345C276.659 33.5466 277.031 33.6527 277.471 33.6527ZM290.195 27.3636V28.5568H286.024V27.3636H290.195ZM287.142 25.5341H288.629V32.7578C288.629 33.0462 288.672 33.2633 288.758 33.4091C288.844 33.5516 288.955 33.6494 289.091 33.7024C289.231 33.7521 289.381 33.777 289.544 33.777C289.663 33.777 289.767 33.7687 289.857 33.7521C289.946 33.7356 290.016 33.7223 290.066 33.7124L290.334 34.9403C290.248 34.9735 290.125 35.0066 289.966 35.0398C289.807 35.0762 289.608 35.0961 289.37 35.0994C288.979 35.1061 288.614 35.0365 288.276 34.8906C287.938 34.7448 287.664 34.5194 287.456 34.2145C287.247 33.9096 287.142 33.5268 287.142 33.0661V25.5341ZM294.062 35.169C293.578 35.169 293.14 35.0795 292.749 34.9006C292.358 34.7183 292.048 34.4548 291.819 34.1101C291.594 33.7654 291.481 33.3428 291.481 32.8423C291.481 32.4115 291.564 32.0568 291.73 31.7784C291.896 31.5 292.119 31.2796 292.401 31.1172C292.683 30.9548 292.998 30.8321 293.346 30.7493C293.694 30.6664 294.048 30.6035 294.41 30.5604C294.867 30.5073 295.238 30.4643 295.523 30.4311C295.808 30.3946 296.016 30.3366 296.145 30.2571C296.274 30.1776 296.339 30.0483 296.339 29.8693V29.8345C296.339 29.4003 296.216 29.0639 295.971 28.8253C295.729 28.5866 295.368 28.4673 294.887 28.4673C294.386 28.4673 293.992 28.5784 293.704 28.8004C293.419 29.0192 293.221 29.2628 293.112 29.5312L291.715 29.2131C291.881 28.7491 292.123 28.3745 292.441 28.0895C292.762 27.8011 293.132 27.5923 293.55 27.4631C293.967 27.3305 294.406 27.2642 294.867 27.2642C295.172 27.2642 295.495 27.3007 295.837 27.3736C296.181 27.4432 296.503 27.5724 296.801 27.7614C297.103 27.9503 297.35 28.2204 297.542 28.5717C297.734 28.9197 297.83 29.3722 297.83 29.929V35H296.378V33.956H296.319C296.223 34.1482 296.078 34.3371 295.886 34.5227C295.694 34.7083 295.447 34.8625 295.145 34.9851C294.844 35.1077 294.483 35.169 294.062 35.169ZM294.385 33.9759C294.796 33.9759 295.147 33.8946 295.439 33.7322C295.734 33.5698 295.958 33.3577 296.11 33.0959C296.266 32.8307 296.344 32.5473 296.344 32.2457V31.2614C296.291 31.3144 296.188 31.3641 296.035 31.4105C295.886 31.4536 295.716 31.4917 295.523 31.5249C295.331 31.5547 295.144 31.5829 294.962 31.6094C294.779 31.6326 294.627 31.6525 294.504 31.669C294.216 31.7055 293.952 31.7668 293.714 31.853C293.478 31.9392 293.289 32.0634 293.147 32.2259C293.008 32.3849 292.938 32.5971 292.938 32.8622C292.938 33.2301 293.074 33.5085 293.346 33.6974C293.618 33.883 293.964 33.9759 294.385 33.9759ZM300.983 27.3636L302.669 30.3366L304.369 27.3636H305.995L303.613 31.1818L306.015 35H304.389L302.669 32.1463L300.954 35H299.323L301.699 31.1818L299.353 27.3636H300.983ZM311.226 35V27.3636H312.713V35H311.226ZM311.977 26.1854C311.718 26.1854 311.496 26.0992 311.311 25.9268C311.128 25.7512 311.037 25.5424 311.037 25.3004C311.037 25.0552 311.128 24.8464 311.311 24.674C311.496 24.4983 311.718 24.4105 311.977 24.4105C312.235 24.4105 312.456 24.4983 312.638 24.674C312.824 24.8464 312.916 25.0552 312.916 25.3004C312.916 25.5424 312.824 25.7512 312.638 25.9268C312.456 26.0992 312.235 26.1854 311.977 26.1854ZM316.199 30.4659V35H314.712V27.3636H316.139V28.6065H316.234C316.409 28.2022 316.684 27.8774 317.059 27.6321C317.437 27.3868 317.912 27.2642 318.486 27.2642C319.006 27.2642 319.462 27.3736 319.853 27.5923C320.244 27.8078 320.547 28.1293 320.763 28.5568C320.978 28.9844 321.086 29.513 321.086 30.1428V35H319.599V30.3217C319.599 29.7682 319.455 29.3357 319.167 29.0241C318.879 28.7093 318.483 28.5518 317.979 28.5518C317.634 28.5518 317.327 28.6264 317.059 28.7756C316.794 28.9247 316.583 29.1435 316.428 29.4318C316.275 29.7169 316.199 30.0616 316.199 30.4659ZM326.714 27.3636V28.5568H322.399V27.3636H326.714ZM323.582 35V26.4787C323.582 26.0014 323.686 25.6053 323.895 25.2905C324.104 24.9723 324.381 24.7353 324.725 24.5795C325.07 24.4205 325.444 24.3409 325.849 24.3409C326.147 24.3409 326.402 24.3658 326.614 24.4155C326.827 24.4619 326.984 24.505 327.087 24.5447L326.739 25.7479C326.669 25.728 326.58 25.7048 326.47 25.6783C326.361 25.6484 326.228 25.6335 326.073 25.6335C325.711 25.6335 325.453 25.723 325.297 25.902C325.144 26.081 325.068 26.3395 325.068 26.6776V35H323.582ZM331.163 35.1541C330.448 35.1541 329.823 34.9901 329.289 34.6619C328.756 34.3338 328.341 33.8748 328.046 33.2848C327.751 32.6948 327.604 32.0054 327.604 31.2166C327.604 30.4245 327.751 29.7318 328.046 29.1385C328.341 28.5452 328.756 28.0845 329.289 27.7564C329.823 27.4283 330.448 27.2642 331.163 27.2642C331.879 27.2642 332.504 27.4283 333.038 27.7564C333.571 28.0845 333.986 28.5452 334.281 29.1385C334.576 29.7318 334.723 30.4245 334.723 31.2166C334.723 32.0054 334.576 32.6948 334.281 33.2848C333.986 33.8748 333.571 34.3338 333.038 34.6619C332.504 34.9901 331.879 35.1541 331.163 35.1541ZM331.168 33.9062C331.632 33.9062 332.017 33.7836 332.322 33.5384C332.627 33.2931 332.852 32.9666 332.998 32.5589C333.147 32.1513 333.222 31.7022 333.222 31.2116C333.222 30.7244 333.147 30.277 332.998 29.8693C332.852 29.4583 332.627 29.1286 332.322 28.88C332.017 28.6314 331.632 28.5071 331.168 28.5071C330.701 28.5071 330.313 28.6314 330.005 28.88C329.7 29.1286 329.473 29.4583 329.324 29.8693C329.178 30.277 329.105 30.7244 329.105 31.2116C329.105 31.7022 329.178 32.1513 329.324 32.5589C329.473 32.9666 329.7 33.2931 330.005 33.5384C330.313 33.7836 330.701 33.9062 331.168 33.9062Z" fill="#021720"/>
<rect x="386.812" y="14" width="143" height="32" rx="3.51678" fill="#4945FF"/>
<path d="M403.237 34.5V25.0455H406.607C407.34 25.0455 407.948 25.1716 408.431 25.424C408.917 25.6764 409.28 26.0257 409.52 26.4719C409.761 26.9151 409.881 27.4276 409.881 28.0092C409.881 28.5878 409.759 29.0972 409.516 29.5373C409.276 29.9743 408.913 30.3144 408.426 30.5575C407.943 30.8007 407.335 30.9222 406.603 30.9222H404.05V29.6942H406.474C406.935 29.6942 407.311 29.6281 407.6 29.4957C407.892 29.3634 408.106 29.171 408.242 28.9187C408.377 28.6663 408.445 28.3632 408.445 28.0092C408.445 27.6522 408.376 27.3429 408.237 27.0813C408.102 26.8197 407.888 26.6197 407.595 26.4812C407.306 26.3396 406.926 26.2688 406.455 26.2688H404.664V34.5H403.237ZM407.905 30.2344L410.241 34.5H408.616L406.326 30.2344H407.905ZM414.473 34.6431C413.774 34.6431 413.172 34.4938 412.668 34.1953C412.166 33.8937 411.778 33.4705 411.504 32.9258C411.234 32.378 411.098 31.7363 411.098 31.0007C411.098 30.2744 411.234 29.6342 411.504 29.0803C411.778 28.5263 412.16 28.0939 412.649 27.783C413.142 27.4722 413.717 27.3168 414.376 27.3168C414.776 27.3168 415.164 27.3829 415.539 27.5153C415.915 27.6476 416.252 27.8554 416.55 28.1385C416.849 28.4216 417.084 28.7894 417.257 29.2418C417.429 29.6912 417.515 30.2375 417.515 30.8807V31.37H411.878V30.3359H416.162C416.162 29.9728 416.089 29.6512 415.941 29.3711C415.793 29.0879 415.585 28.8648 415.318 28.7017C415.053 28.5386 414.742 28.457 414.385 28.457C413.997 28.457 413.659 28.5524 413.369 28.7433C413.083 28.931 412.862 29.1772 412.705 29.4819C412.551 29.7835 412.474 30.1113 412.474 30.4652V31.2731C412.474 31.747 412.557 32.1502 412.723 32.4826C412.892 32.815 413.128 33.0689 413.429 33.2443C413.731 33.4167 414.083 33.5028 414.487 33.5028C414.748 33.5028 414.987 33.4659 415.202 33.392C415.418 33.3151 415.604 33.2012 415.761 33.0504C415.918 32.8996 416.038 32.7134 416.121 32.4918L417.427 32.7273C417.323 33.112 417.135 33.449 416.864 33.7383C416.596 34.0245 416.259 34.2476 415.853 34.4077C415.45 34.5646 414.99 34.6431 414.473 34.6431ZM423.834 37.1591V33.3967H423.751C423.668 33.5475 423.548 33.7198 423.391 33.9137C423.237 34.1076 423.024 34.2769 422.754 34.4215C422.483 34.5662 422.132 34.6385 421.701 34.6385C421.129 34.6385 420.618 34.4923 420.168 34.1999C419.722 33.9045 419.371 33.4844 419.116 32.9396C418.863 32.3918 418.737 31.7347 418.737 30.9684C418.737 30.2021 418.865 29.5465 419.12 29.0018C419.379 28.457 419.733 28.04 420.182 27.7507C420.632 27.4614 421.141 27.3168 421.71 27.3168C422.15 27.3168 422.504 27.3906 422.772 27.5384C423.043 27.683 423.252 27.8523 423.4 28.0462C423.551 28.2401 423.668 28.4109 423.751 28.5586H423.866V27.4091H425.214V37.1591H423.834ZM422.006 33.4613C422.403 33.4613 422.738 33.3567 423.012 33.1474C423.289 32.935 423.498 32.6411 423.64 32.2656C423.785 31.8902 423.857 31.4531 423.857 30.9545C423.857 30.4621 423.786 30.0312 423.645 29.6619C423.503 29.2926 423.295 29.0049 423.021 28.7987C422.747 28.5924 422.409 28.4893 422.006 28.4893C421.59 28.4893 421.244 28.5971 420.967 28.8125C420.69 29.0279 420.481 29.3219 420.339 29.6942C420.201 30.0666 420.131 30.4867 420.131 30.9545C420.131 31.4285 420.202 31.8548 420.344 32.2333C420.485 32.6119 420.695 32.9119 420.972 33.1335C421.252 33.352 421.596 33.4613 422.006 33.4613ZM431.562 31.5593V27.4091H432.947V34.5H431.59V33.272H431.516C431.353 33.6506 431.091 33.966 430.731 34.2184C430.374 34.4677 429.929 34.5923 429.397 34.5923C428.941 34.5923 428.538 34.4923 428.187 34.2923C427.839 34.0891 427.566 33.7891 427.365 33.392C427.168 32.995 427.07 32.5041 427.07 31.9194V27.4091H428.45V31.7532C428.45 32.2364 428.584 32.6211 428.852 32.9073C429.12 33.1935 429.467 33.3366 429.895 33.3366C430.154 33.3366 430.411 33.272 430.666 33.1428C430.925 33.0135 431.139 32.8181 431.308 32.5565C431.48 32.2949 431.565 31.9625 431.562 31.5593ZM437.858 34.6431C437.159 34.6431 436.557 34.4938 436.053 34.1953C435.551 33.8937 435.163 33.4705 434.889 32.9258C434.618 32.378 434.483 31.7363 434.483 31.0007C434.483 30.2744 434.618 29.6342 434.889 29.0803C435.163 28.5263 435.545 28.0939 436.034 27.783C436.526 27.4722 437.102 27.3168 437.761 27.3168C438.161 27.3168 438.548 27.3829 438.924 27.5153C439.299 27.6476 439.636 27.8554 439.935 28.1385C440.234 28.4216 440.469 28.7894 440.641 29.2418C440.814 29.6912 440.9 30.2375 440.9 30.8807V31.37H435.263V30.3359H439.547C439.547 29.9728 439.473 29.6512 439.326 29.3711C439.178 29.0879 438.97 28.8648 438.702 28.7017C438.438 28.5386 438.127 28.457 437.77 28.457C437.382 28.457 437.044 28.5524 436.754 28.7433C436.468 28.931 436.246 29.1772 436.089 29.4819C435.936 29.7835 435.859 30.1113 435.859 30.4652V31.2731C435.859 31.747 435.942 32.1502 436.108 32.4826C436.277 32.815 436.513 33.0689 436.814 33.2443C437.116 33.4167 437.468 33.5028 437.871 33.5028C438.133 33.5028 438.372 33.4659 438.587 33.392C438.802 33.3151 438.989 33.2012 439.146 33.0504C439.303 32.8996 439.423 32.7134 439.506 32.4918L440.812 32.7273C440.707 33.112 440.52 33.449 440.249 33.7383C439.981 34.0245 439.644 34.2476 439.238 34.4077C438.835 34.5646 438.375 34.6431 437.858 34.6431ZM447.745 29.1403L446.494 29.3619C446.442 29.2018 446.358 29.0495 446.245 28.9048C446.134 28.7602 445.983 28.6417 445.792 28.5494C445.601 28.457 445.363 28.4109 445.077 28.4109C444.686 28.4109 444.359 28.4986 444.098 28.674C443.836 28.8464 443.705 29.0695 443.705 29.3434C443.705 29.5804 443.793 29.7712 443.969 29.9158C444.144 30.0605 444.427 30.179 444.818 30.2713L445.944 30.5298C446.597 30.6806 447.083 30.913 447.403 31.2269C447.723 31.5408 447.883 31.9486 447.883 32.4503C447.883 32.875 447.76 33.2536 447.514 33.5859C447.271 33.9152 446.931 34.1738 446.494 34.3615C446.06 34.5492 445.557 34.6431 444.984 34.6431C444.19 34.6431 443.542 34.4738 443.041 34.1353C442.539 33.7937 442.231 33.3089 442.117 32.6811L443.452 32.478C443.535 32.8258 443.705 33.0889 443.964 33.2674C444.223 33.4428 444.56 33.5305 444.975 33.5305C445.427 33.5305 445.789 33.4367 446.06 33.2489C446.331 33.0581 446.466 32.8258 446.466 32.5518C446.466 32.3303 446.383 32.1441 446.217 31.9933C446.054 31.8424 445.803 31.7286 445.464 31.6516L444.264 31.3885C443.602 31.2377 443.113 30.9976 442.796 30.6683C442.482 30.339 442.325 29.922 442.325 29.4173C442.325 28.9987 442.442 28.6325 442.676 28.3185C442.91 28.0046 443.233 27.7599 443.645 27.5845C444.058 27.406 444.53 27.3168 445.063 27.3168C445.829 27.3168 446.432 27.483 446.872 27.8153C447.312 28.1446 447.603 28.5863 447.745 29.1403ZM452.711 27.4091V28.517H448.838V27.4091H452.711ZM449.877 25.7102H451.257V32.418C451.257 32.6857 451.297 32.8873 451.377 33.0227C451.457 33.1551 451.56 33.2459 451.686 33.2951C451.815 33.3413 451.956 33.3643 452.106 33.3643C452.217 33.3643 452.314 33.3567 452.397 33.3413C452.48 33.3259 452.545 33.3136 452.591 33.3043L452.84 34.4446C452.76 34.4754 452.646 34.5062 452.499 34.5369C452.351 34.5708 452.166 34.5893 451.945 34.5923C451.582 34.5985 451.243 34.5339 450.929 34.3984C450.615 34.263 450.361 34.0537 450.167 33.7706C449.973 33.4875 449.877 33.132 449.877 32.7042V25.7102ZM459.64 34.5L457.018 25.0455H458.519L460.361 32.3672H460.448L462.364 25.0455H463.851L465.766 32.3718H465.854L467.692 25.0455H469.197L466.57 34.5H465.134L463.144 27.4183H463.07L461.081 34.5H459.64ZM474.031 29.1726V30.3729H469.839V29.1726H474.031ZM479.047 34.6293C478.385 34.6293 477.8 34.5154 477.293 34.2876C476.788 34.0599 476.392 33.746 476.106 33.3459C475.82 32.9458 475.678 32.4903 475.682 31.9794C475.678 31.5793 475.76 31.2115 475.926 30.8761C476.095 30.5375 476.325 30.2559 476.614 30.0312C476.903 29.8035 477.226 29.6589 477.583 29.5973V29.5419C477.113 29.428 476.736 29.1757 476.452 28.7848C476.169 28.3939 476.029 27.9446 476.032 27.4368C476.029 26.9536 476.157 26.5227 476.416 26.1442C476.677 25.7625 477.036 25.4625 477.491 25.244C477.947 25.0254 478.465 24.9162 479.047 24.9162C479.622 24.9162 480.136 25.027 480.589 25.2486C481.044 25.4671 481.403 25.7672 481.664 26.1488C481.926 26.5273 482.058 26.9567 482.061 27.4368C482.058 27.9446 481.914 28.3939 481.628 28.7848C481.341 29.1757 480.969 29.428 480.51 29.5419V29.5973C480.864 29.6589 481.183 29.8035 481.466 30.0312C481.752 30.2559 481.98 30.5375 482.149 30.8761C482.322 31.2115 482.409 31.5793 482.412 31.9794C482.409 32.4903 482.265 32.9458 481.978 33.3459C481.692 33.746 481.295 34.0599 480.787 34.2876C480.283 34.5154 479.702 34.6293 479.047 34.6293ZM479.047 33.4613C479.438 33.4613 479.776 33.3967 480.063 33.2674C480.349 33.1351 480.57 32.9519 480.727 32.718C480.884 32.4811 480.964 32.2041 480.967 31.8871C480.964 31.5578 480.878 31.2669 480.709 31.0146C480.543 30.7622 480.316 30.5637 480.03 30.419C479.744 30.2744 479.416 30.2021 479.047 30.2021C478.675 30.2021 478.344 30.2744 478.054 30.419C477.765 30.5637 477.537 30.7622 477.371 31.0146C477.205 31.2669 477.123 31.5578 477.126 31.8871C477.123 32.2041 477.199 32.4811 477.353 32.718C477.51 32.9519 477.733 33.1351 478.022 33.2674C478.311 33.3967 478.653 33.4613 479.047 33.4613ZM479.047 29.0618C479.361 29.0618 479.639 28.9987 479.883 28.8725C480.126 28.7463 480.316 28.5709 480.455 28.3462C480.597 28.1216 480.669 27.8584 480.672 27.5568C480.669 27.2614 480.598 27.0028 480.46 26.7812C480.324 26.5597 480.135 26.3888 479.892 26.2688C479.649 26.1457 479.367 26.0842 479.047 26.0842C478.721 26.0842 478.434 26.1457 478.188 26.2688C477.945 26.3888 477.756 26.5597 477.62 26.7812C477.485 27.0028 477.419 27.2614 477.422 27.5568C477.419 27.8584 477.487 28.1216 477.625 28.3462C477.764 28.5709 477.954 28.7463 478.197 28.8725C478.444 28.9987 478.727 29.0618 479.047 29.0618ZM487.686 24.6023L484.639 35.9219H483.406L486.453 24.6023H487.686ZM490.858 34.5L488.236 25.0455H489.736L491.578 32.3672H491.666L493.582 25.0455H495.068L496.984 32.3718H497.072L498.909 25.0455H500.414L497.788 34.5H496.352L494.362 27.4183H494.288L492.299 34.5H490.858ZM505.249 29.1726V30.3729H501.057V29.1726H505.249ZM510.214 24.9162C510.636 24.9193 511.051 24.9962 511.46 25.147C511.87 25.2978 512.239 25.544 512.568 25.8857C512.901 26.2273 513.165 26.6889 513.362 27.2706C513.562 27.8492 513.664 28.5694 513.667 29.4311C513.667 30.259 513.584 30.9961 513.418 31.6424C513.252 32.2856 513.013 32.8288 512.702 33.272C512.394 33.7152 512.02 34.0522 511.58 34.283C511.14 34.5138 510.645 34.6293 510.094 34.6293C509.531 34.6293 509.031 34.5185 508.594 34.2969C508.157 34.0753 507.801 33.7691 507.527 33.3782C507.253 32.9843 507.082 32.5318 507.015 32.021H508.423C508.515 32.4272 508.703 32.7565 508.986 33.0089C509.272 33.2582 509.641 33.3828 510.094 33.3828C510.786 33.3828 511.326 33.0812 511.714 32.478C512.102 31.8717 512.297 31.0253 512.301 29.9389H512.227C512.067 30.2036 511.867 30.4313 511.627 30.6222C511.39 30.813 511.123 30.9607 510.828 31.0653C510.532 31.17 510.217 31.2223 509.882 31.2223C509.337 31.2223 508.841 31.0884 508.395 30.8207C507.949 30.5529 507.593 30.1851 507.329 29.7173C507.064 29.2495 506.932 28.7156 506.932 28.1154C506.932 27.5183 507.067 26.9767 507.338 26.4904C507.612 26.0041 507.993 25.6194 508.483 25.3363C508.975 25.0501 509.552 24.91 510.214 24.9162ZM510.219 26.1165C509.858 26.1165 509.534 26.2057 509.244 26.3842C508.958 26.5597 508.732 26.7982 508.566 27.0998C508.4 27.3983 508.317 27.7307 508.317 28.0969C508.317 28.4632 508.397 28.7956 508.557 29.0941C508.72 29.3896 508.941 29.625 509.221 29.8004C509.505 29.9728 509.828 30.0589 510.191 30.0589C510.462 30.0589 510.714 30.0066 510.948 29.902C511.182 29.7973 511.386 29.6527 511.562 29.468C511.737 29.2803 511.874 29.0679 511.973 28.831C512.071 28.594 512.121 28.3447 512.121 28.0831C512.121 27.7353 512.037 27.4122 511.871 27.1136C511.708 26.8151 511.483 26.575 511.197 26.3935C510.911 26.2088 510.585 26.1165 510.219 26.1165Z" fill="white"/>
</svg>
