<svg width="61" height="60" viewBox="0 0 61 60" fill="none" xmlns="http://www.w3.org/2000/svg">
<path d="M30.3683 60C47.1403 60 60.7366 46.5685 60.7366 30C60.7366 13.4315 47.1403 0 30.3683 0C13.5964 0 0 13.4315 0 30C0 46.5685 13.5964 60 30.3683 60Z" fill="#DCDDD7"/>
<path d="M8.43103 30.0016C8.43103 36.444 13.7178 41.669 20.2418 41.669H21.929V37.3328H20.2418C16.1483 37.3328 12.8179 34.0443 12.8179 30.0016C12.8179 25.9566 16.1483 22.6681 20.2418 22.6681H24.2956V45.3346C24.2956 47.7276 26.2586 49.6663 28.6825 49.6663V18.3341H20.2418C13.7178 18.3341 8.43103 23.5569 8.43103 30.0016ZM40.4932 18.3341H38.806V22.6703H40.4932C44.5867 22.6703 47.9171 25.9588 47.9171 30.0016C47.9171 34.0465 44.5867 37.335 40.4932 37.335H36.4394V14.6685C36.4394 12.2755 34.4765 10.3368 32.0503 10.3368V41.669H40.4932C47.0151 41.669 52.304 36.4462 52.304 30.0016C52.304 23.5613 47.0151 18.3341 40.4932 18.3341Z" fill="#002B31"/>
</svg>
