<svg width="110" height="31" viewBox="0 0 110 31" fill="none" xmlns="http://www.w3.org/2000/svg">
<g clip-path="url(#clip0_6024_600)">
<path d="M109.404 4.89159L104.575 4.80356C104.464 4.80025 104.36 4.7542 104.283 4.67538C104.207 4.59655 104.165 4.49128 104.166 4.38229L104.191 0.408565C104.191 0.278623 104.127 0.224131 103.997 0.245089L100.419 0.842406C100.368 0.851345 100.321 0.877756 100.288 0.91692C100.254 0.956083 100.236 1.00544 100.237 1.05618L100.161 4.52691C100.153 4.8329 99.9956 5.00267 99.6896 5.0362L98.5579 5.16824C98.4012 5.18553 98.2567 5.26104 98.153 5.37982C98.0494 5.4986 97.9942 5.65198 97.9983 5.80957L98.0423 7.54493C98.0465 7.79643 98.1743 7.93057 98.4258 7.94733C98.7779 7.97248 99.1342 7.93686 99.4947 7.84045C99.5906 7.81343 99.6916 7.8096 99.7892 7.82926C99.8869 7.84892 99.9785 7.89152 100.057 7.95354C100.135 8.01556 100.197 8.09523 100.238 8.18598C100.279 8.27673 100.298 8.37596 100.293 8.47549C100.155 11.7241 100.147 14.719 100.268 17.4604C100.482 22.1698 105.254 21.7422 108.618 20.9185C108.924 20.8473 109.066 20.6545 109.045 20.3401L108.913 18.3658C108.888 17.976 108.687 17.8272 108.31 17.9194C106.543 18.3469 104.248 18.9128 104.21 16.1211C104.177 13.4259 104.156 10.8145 104.147 8.28686C104.147 8.19122 104.185 8.09941 104.252 8.03119C104.319 7.96298 104.41 7.92383 104.506 7.92218L109.404 7.87817" stroke="#021720" stroke-width="1.25751"/>
<path d="M0 29.9849L3.54618 29.4693C3.68298 29.4509 3.80834 29.3826 3.89866 29.2773C3.98899 29.1719 4.03804 29.0367 4.03661 28.8972C3.96115 23.209 3.96954 17.5083 4.06176 11.795C4.09529 9.71595 4.95668 8.41442 6.64594 7.89046C11.7263 6.306 12.4682 12.1786 11.5691 15.5738C11.2463 16.7894 10.3996 17.6697 9.02892 18.2146C8.95039 18.2464 8.86258 18.2465 8.784 18.2148C8.70541 18.1832 8.64219 18.1222 8.60765 18.0449C8.42322 17.6341 8.44627 17.2338 8.67681 16.8439C8.76903 16.6888 8.73131 16.5799 8.56364 16.517C8.39178 16.4541 8.23669 16.4772 8.09836 16.5861C6.79893 17.6341 5.51837 18.6212 4.25667 19.5476C4.07223 19.6817 4.07014 19.82 4.25038 19.9626L7.89087 22.836C8.30166 23.1587 8.50915 23.0581 8.51334 22.5342L8.51963 21.8614C8.52382 21.6015 8.65586 21.4611 8.91574 21.4401C12.7826 21.132 15.612 18.3718 15.9201 14.505C16.3665 8.90276 14.1218 4.46375 7.90345 4.4386C6.84295 4.43441 5.75101 4.64818 4.62763 5.07993C4.40128 5.16795 4.20218 5.13023 4.03032 4.96675L3.76624 4.71525C3.64069 4.59404 3.47235 4.52446 3.29467 4.52034C2.15453 4.4868 1.05631 4.6398 0 4.97933" stroke="#021720" stroke-width="1.25751"/>
<path d="M23.541 6.76558C23.1889 7.22247 22.9583 7.16588 22.8493 6.59581C22.7571 6.08023 22.7299 5.56046 22.7676 5.0365C22.7746 4.94206 22.7595 4.84729 22.7234 4.7597C22.6874 4.67211 22.6315 4.59412 22.5601 4.53189C22.4888 4.46966 22.4039 4.4249 22.3122 4.40117C22.2205 4.37744 22.1246 4.37539 22.032 4.39517L19.9696 4.82272C19.5211 4.91913 19.2969 5.19578 19.2969 5.65268V20.6359C19.2969 20.9 19.4289 21.032 19.693 21.032H22.755C23.0107 21.0278 23.1386 20.9 23.1386 20.6485C23.126 18.0538 23.1113 15.3334 23.0946 12.4872C23.0757 9.84019 25.8925 8.01051 28.2378 8.16141C28.6737 8.18656 28.8959 7.98117 28.9042 7.54523L28.942 5.39489C28.9504 4.95057 28.7324 4.70745 28.2881 4.66553C26.3389 4.48948 24.7566 5.1895 23.541 6.76558Z" stroke="#021720" stroke-width="1.25751"/>
<path d="M47.1495 11.8901C47.1799 9.95265 46.4395 8.08245 45.091 6.69095C43.7425 5.29944 41.8965 4.50061 39.959 4.47018L38.5508 4.44805C36.6133 4.41761 34.7431 5.15807 33.3516 6.50654C31.9601 7.855 31.1612 9.70102 31.1308 11.6385L31.0947 13.9395C31.0642 15.8769 31.8047 17.7471 33.1532 19.1386C34.5017 20.5301 36.3477 21.329 38.2852 21.3594L39.6934 21.3815C41.6308 21.412 43.501 20.6715 44.8926 19.323C46.2841 17.9746 47.0829 16.1286 47.1134 14.1911L47.1495 11.8901Z" stroke="#021720" stroke-width="1.25751"/>
<path d="M54.6393 6.16152C54.4926 5.83037 54.4381 5.47408 54.4759 5.09263C54.5262 4.56867 54.2914 4.3507 53.7717 4.43873L51.5459 4.81598C51.1477 4.88305 50.9485 5.11778 50.9485 5.52019L50.9297 20.6732C50.9297 20.9373 51.0617 21.0672 51.3258 21.063L54.4256 21.0379C54.7441 21.0337 54.9034 20.8723 54.9034 20.5537L54.9097 9.88375C54.9097 9.61128 55.0208 9.39332 55.2429 9.22984C57.0475 7.90317 61.2287 6.31242 61.2853 10.2296C61.3356 13.6751 61.3565 17.083 61.3482 20.4531C61.344 20.8094 61.52 20.9876 61.8763 20.9876L64.712 21.0127C65.0683 21.0169 65.2464 20.8408 65.2464 20.4845L65.2653 9.89003C65.2653 9.7211 65.3115 9.55519 65.399 9.41009C65.4865 9.26499 65.612 9.14617 65.762 9.06636C66.9818 8.41246 68.9246 7.36244 70.3016 7.87802C71.1609 8.19659 71.601 8.87564 71.622 9.91518C71.6807 13.2476 71.7079 16.8147 71.7037 20.6166C71.7037 20.931 71.8609 21.084 72.1753 21.0756L75.011 21.0127C75.3673 21.0085 75.5454 20.8262 75.5454 20.4657C75.5538 16.6009 75.537 12.9102 75.4951 9.39332C75.4742 7.33938 74.5792 5.84714 72.8104 4.91658C70.2513 3.57105 67.1453 5.13665 64.9383 6.68967C64.7162 6.84476 64.5359 6.80913 64.3976 6.58278C62.2787 3.13092 57.8649 4.34442 55.1235 6.29984C54.9055 6.45494 54.7441 6.40883 54.6393 6.16152Z" stroke="#021720" stroke-width="1.25751"/>
<path d="M83.9565 4.81022C83.902 4.67609 83.8077 4.57968 83.6736 4.52099C83.4388 4.41201 83.1915 4.38686 82.9316 4.44554C82.1478 4.61321 81.3828 4.74525 80.6367 4.84166C80.5204 4.85689 80.4136 4.91437 80.3361 5.00341C80.2586 5.09245 80.2157 5.20701 80.2154 5.3258L80.1211 29.7466C80.1211 30.0065 80.2489 30.1113 80.5046 30.061L83.7742 29.4071C83.884 29.3841 83.9826 29.3241 84.0536 29.2371C84.1245 29.1502 84.1635 29.0415 84.164 28.9293L84.12 21.227C84.1201 21.159 84.1369 21.092 84.1689 21.0319C84.201 20.9719 84.2474 20.9207 84.3039 20.8828C84.3604 20.8449 84.4254 20.8215 84.4931 20.8147C84.5608 20.8078 84.6292 20.8177 84.6921 20.8435C86.8257 21.6944 89.1521 21.6797 91.6713 20.7995C95.972 19.303 96.7957 13.902 95.7834 9.92828C94.4944 4.84795 89.1374 3.4081 84.5727 5.08059C84.2793 5.18957 84.0739 5.09945 83.9565 4.81022Z" stroke="#021720" stroke-width="1.25751"/>
<path d="M39.1862 18.3907C40.2818 18.3812 41.3274 17.7997 42.0932 16.7742C42.859 15.7487 43.2821 14.3632 43.2695 12.9225C43.257 11.4817 42.8097 10.1038 42.0262 9.09184C41.2426 8.07986 40.187 7.51669 39.0914 7.52624C37.9959 7.53581 36.9502 8.11731 36.1844 9.14281C35.4187 10.1683 34.9955 11.5538 35.0081 12.9945C35.0206 14.4352 35.4679 15.8132 36.2515 16.8251C37.035 17.8371 38.0907 18.4003 39.1862 18.3907Z" stroke="#021720" stroke-width="1.25751"/>
<path d="M92.0127 11.4028C92.0185 10.9305 91.9311 10.4618 91.7558 10.0232C91.5804 9.5847 91.3203 9.18502 90.9904 8.847C90.6606 8.50898 90.2674 8.23924 89.8333 8.05318C89.3992 7.86712 88.9327 7.76839 88.4604 7.76262L87.8946 7.7557C87.4223 7.74993 86.9535 7.83723 86.515 8.01262C86.0765 8.18802 85.6768 8.44807 85.3388 8.77793C85.0008 9.10779 84.731 9.501 84.545 9.9351C84.3589 10.3692 84.2602 10.8357 84.2544 11.308L84.2151 14.5269C84.2093 14.9992 84.2966 15.468 84.472 15.9065C84.6474 16.345 84.9075 16.7447 85.2373 17.0827C85.5672 17.4208 85.9604 17.6905 86.3945 17.8766C86.8286 18.0626 87.2951 18.1614 87.7674 18.1671L88.3332 18.174C88.8055 18.1798 89.2742 18.0925 89.7128 17.9171C90.1513 17.7417 90.551 17.4817 90.889 17.1518C91.227 16.822 91.4968 16.4287 91.6828 15.9946C91.8689 15.5605 91.9676 15.094 91.9734 14.6218L92.0127 11.4028Z" stroke="#021720" stroke-width="1.25751"/>
<path d="M109.404 4.89159V7.87817L104.506 7.92218C104.41 7.92383 104.319 7.96298 104.252 8.03119C104.185 8.09941 104.147 8.19122 104.147 8.28686C104.156 10.8145 104.177 13.4259 104.21 16.1211C104.248 18.9128 106.543 18.3469 108.31 17.9194C108.687 17.8272 108.888 17.976 108.913 18.3658L109.045 20.3401C109.066 20.6545 108.924 20.8473 108.618 20.9185C105.254 21.7422 100.482 22.1698 100.268 17.4604C100.147 14.719 100.155 11.7241 100.293 8.47549C100.298 8.37596 100.279 8.27673 100.238 8.18598C100.197 8.09523 100.135 8.01556 100.057 7.95354C99.9785 7.89152 99.8869 7.84892 99.7892 7.82926C99.6916 7.8096 99.5906 7.81343 99.4947 7.84045C99.1342 7.93686 98.7779 7.97249 98.4258 7.94733C98.1743 7.93057 98.0465 7.79643 98.0423 7.54493L97.9983 5.80957C97.9942 5.65198 98.0494 5.4986 98.153 5.37982C98.2567 5.26104 98.4012 5.18553 98.5579 5.16824L99.6896 5.0362C99.9956 5.00267 100.153 4.8329 100.161 4.52691L100.237 1.05618C100.236 1.00544 100.254 0.956083 100.288 0.91692C100.321 0.877756 100.368 0.851345 100.419 0.842406L103.997 0.245089C104.127 0.224131 104.191 0.278623 104.191 0.408565L104.166 4.3823C104.165 4.49128 104.207 4.59655 104.283 4.67538C104.36 4.7542 104.464 4.80025 104.575 4.80356L109.404 4.89159Z" fill="#021720"/>
<path d="M0 29.9856V4.98C1.05631 4.64047 2.15453 4.48747 3.29467 4.52101C3.47235 4.52513 3.64069 4.59471 3.76624 4.71592L4.03032 4.96742C4.20218 5.1309 4.40128 5.16862 4.62763 5.0806C5.75101 4.64885 6.84295 4.43508 7.90345 4.43927C14.1218 4.46442 16.3665 8.90343 15.9201 14.5056C15.612 18.3725 12.7826 21.1327 8.91574 21.4408C8.65586 21.4618 8.52382 21.6022 8.51963 21.8621L8.51334 22.5348C8.50915 23.0588 8.30166 23.1594 7.89087 22.8366L4.25038 19.9632C4.07014 19.8207 4.07223 19.6824 4.25667 19.5482C5.51837 18.6219 6.79893 17.6347 8.09836 16.5868C8.23669 16.4778 8.39178 16.4548 8.56364 16.5176C8.73131 16.5805 8.76903 16.6895 8.67682 16.8446C8.44627 17.2344 8.42322 17.6347 8.60765 18.0455C8.64219 18.1229 8.70541 18.1838 8.784 18.2155C8.86258 18.2472 8.95039 18.2471 9.02892 18.2153C10.3996 17.6704 11.2463 16.7901 11.5691 15.5745C12.4682 12.1792 11.7263 6.30667 6.64594 7.89113C4.95668 8.4151 4.09529 9.71662 4.06176 11.7957C3.96954 17.509 3.96115 23.2097 4.0366 28.8978C4.03804 29.0374 3.98899 29.1726 3.89866 29.2779C3.80834 29.3833 3.68298 29.4516 3.54618 29.47L0 29.9856Z" fill="#021720"/>
<path d="M23.541 6.76558C24.7566 5.1895 26.3389 4.48948 28.2881 4.66553C28.7324 4.70745 28.9504 4.95057 28.942 5.39489L28.9042 7.54523C28.8959 7.98117 28.6737 8.18656 28.2378 8.16141C25.8925 8.01051 23.0757 9.84019 23.0946 12.4872C23.1113 15.3334 23.126 18.0538 23.1386 20.6485C23.1386 20.9 23.0107 21.0278 22.755 21.032H19.693C19.4289 21.032 19.2969 20.9 19.2969 20.6359V5.65268C19.2969 5.19578 19.5211 4.91913 19.9696 4.82272L22.032 4.39517C22.1246 4.37539 22.2205 4.37744 22.3122 4.40117C22.4039 4.4249 22.4888 4.46966 22.5601 4.53189C22.6315 4.59412 22.6874 4.67211 22.7234 4.7597C22.7595 4.84729 22.7746 4.94206 22.7676 5.0365C22.7299 5.56046 22.7571 6.08023 22.8493 6.59581C22.9583 7.16588 23.1889 7.22247 23.541 6.76558Z" fill="#021720"/>
<path d="M47.1134 14.1911C47.0829 16.1286 46.2841 17.9746 44.8926 19.323C43.501 20.6715 41.6308 21.412 39.6934 21.3815L38.2852 21.3594C36.3477 21.329 34.5017 20.5301 33.1532 19.1386C31.8047 17.7471 31.0642 15.8769 31.0947 13.9395L31.1308 11.6385C31.1612 9.70102 31.9601 7.855 33.3516 6.50654C34.7431 5.15807 36.6133 4.41761 38.5508 4.44805L39.959 4.47018C41.8965 4.50061 43.7425 5.29944 45.091 6.69095C46.4395 8.08245 47.1799 9.95265 47.1495 11.8901L47.1134 14.1911ZM39.1884 18.3911C40.2839 18.3815 41.3296 17.8 42.0953 16.7745C42.8611 15.749 43.2843 14.3635 43.2717 12.9228C43.2591 11.4821 42.8119 10.1041 42.0283 9.09216C41.2448 8.08017 40.1891 7.517 39.0935 7.52655C37.998 7.53613 36.9523 8.11762 36.1866 9.14312C35.4208 10.1686 34.9976 11.5541 35.0102 12.9948C35.0228 14.4356 35.47 15.8135 36.2536 16.8255C37.0371 17.8374 38.0928 18.4006 39.1884 18.3911Z" fill="#021720"/>
<path d="M55.1235 6.30051C57.8649 4.34509 62.2787 3.13159 64.3976 6.58345C64.5359 6.80981 64.7162 6.84544 64.9383 6.69034C67.1453 5.13732 70.2513 3.57172 72.8104 4.91725C74.5792 5.84781 75.4742 7.34006 75.4951 9.39399C75.5371 12.9108 75.5538 16.6016 75.5454 20.4664C75.5454 20.8268 75.3673 21.0092 75.011 21.0134L72.1753 21.0763C71.8609 21.0846 71.7037 20.9316 71.7037 20.6173C71.7079 16.8154 71.6807 13.2483 71.622 9.91585C71.601 8.87631 71.1609 8.19726 70.3016 7.87869C68.9246 7.36311 66.9818 8.41313 65.762 9.06704C65.612 9.14684 65.4865 9.26566 65.399 9.41076C65.3115 9.55586 65.2653 9.72177 65.2653 9.8907L65.2464 20.4852C65.2464 20.8415 65.0683 21.0176 64.712 21.0134L61.8763 20.9882C61.52 20.9882 61.344 20.8101 61.3482 20.4538C61.3565 17.0837 61.3356 13.6758 61.2853 10.2302C61.2287 6.31309 57.0475 7.90384 55.2429 9.23051C55.0208 9.39399 54.9097 9.61196 54.9097 9.88442L54.9034 20.5544C54.9034 20.873 54.7441 21.0343 54.4256 21.0385L51.3258 21.0637C51.0617 21.0679 50.9297 20.9379 50.9297 20.6738L50.9485 5.52086C50.9485 5.11846 51.1477 4.88372 51.5459 4.81665L53.7717 4.4394C54.2914 4.35138 54.5262 4.56934 54.4759 5.09331C54.4381 5.47475 54.4926 5.83104 54.6393 6.16219C54.7441 6.4095 54.9055 6.45561 55.1235 6.30051Z" fill="#021720"/>
<path d="M84.5727 5.08059C89.1374 3.4081 94.4944 4.84795 95.7834 9.92828C96.7957 13.902 95.972 19.303 91.6713 20.7995C89.1521 21.6797 86.8257 21.6944 84.6921 20.8435C84.6292 20.8177 84.5608 20.8078 84.4931 20.8147C84.4254 20.8215 84.3604 20.8449 84.3039 20.8828C84.2474 20.9207 84.201 20.9719 84.1689 21.0319C84.1369 21.092 84.1201 21.159 84.12 21.227L84.164 28.9293C84.1635 29.0415 84.1245 29.1502 84.0536 29.2371C83.9826 29.3241 83.884 29.3841 83.7742 29.4071L80.5046 30.061C80.2489 30.1113 80.1211 30.0065 80.1211 29.7466L80.2154 5.3258C80.2157 5.20701 80.2586 5.09245 80.3361 5.00341C80.4136 4.91437 80.5204 4.85689 80.6367 4.84166C81.3828 4.74525 82.1478 4.61321 82.9316 4.44554C83.1915 4.38686 83.4388 4.41201 83.6736 4.52099C83.8077 4.57968 83.902 4.67609 83.9565 4.81022C84.0739 5.09945 84.2793 5.18957 84.5727 5.08059ZM92.0114 11.4031C92.0171 10.9308 91.9298 10.4621 91.7544 10.0235C91.579 9.585 91.319 9.18532 90.9891 8.8473C90.6593 8.50928 90.266 8.23954 89.8319 8.05348C89.3978 7.86742 88.9313 7.76869 88.4591 7.76292L87.8933 7.756C87.421 7.75023 86.9522 7.83753 86.5137 8.01292C86.0752 8.18832 85.6755 8.44837 85.3375 8.77823C84.9994 9.10809 84.7297 9.5013 84.5436 9.9354C84.3576 10.3695 84.2588 10.836 84.2531 11.3083L84.2138 14.5272C84.208 14.9995 84.2953 15.4683 84.4707 15.9068C84.6461 16.3453 84.9062 16.745 85.236 17.083C85.5659 17.4211 85.9591 17.6908 86.3932 17.8769C86.8273 18.0629 87.2938 18.1617 87.7661 18.1674L88.3319 18.1743C88.8041 18.1801 89.2729 18.0928 89.7114 17.9174C90.15 17.742 90.5496 17.482 90.8877 17.1521C91.2257 16.8223 91.4954 16.429 91.6815 15.9949C91.8675 15.5608 91.9663 15.0943 91.9721 14.6221L92.0114 11.4031Z" fill="#021720"/>
</g>
<defs>
<clipPath id="clip0_6024_600">
<rect width="109.403" height="30.1802" fill="white"/>
</clipPath>
</defs>
</svg>
