<svg width="126" height="18" viewBox="0 0 126 18" fill="none" xmlns="http://www.w3.org/2000/svg">
<g opacity="0.7" clip-path="url(#clip0_2170_3860)">
<path d="M0.491143 5.52962H2.75796L3.28688 3.01267L6.64932 1.90674L5.89371 5.52962H8.68945L8.19831 7.85589H5.40257L4.26916 13.1567C4.1936 13.4237 4.11804 13.8813 4.11804 14.3389C4.11804 15.0635 4.60919 15.5211 5.32701 15.5211C5.89371 15.5211 6.46042 15.4067 6.83822 15.2542L6.30929 17.6949C5.78037 17.8093 5.17589 17.9618 4.60919 17.9618C2.49349 17.9618 0.982285 17.1228 0.982285 14.7966C0.982285 13.8432 1.17119 12.9279 1.39787 11.9745L2.26681 7.85589H0L0.491143 5.52962Z" fill="white"/>
<path d="M81.643 15.8262H81.6052C80.5473 17.1991 79.4517 17.9618 77.7138 17.9618C75.5603 17.9618 74.0114 16.7415 74.0114 14.4915C74.0114 10.4872 78.4316 10.1821 81.3785 10.1821H82.4741C82.5497 9.83892 82.5497 9.4957 82.5497 9.15248C82.5497 7.93214 81.2274 7.58892 80.1318 7.58892C78.7717 7.58892 77.4116 7.93214 76.1648 8.54231L76.6182 6.02536C77.9405 5.56773 79.3006 5.30078 80.6985 5.30078C83.1164 5.30078 85.3832 6.1779 85.3832 9.03807C85.3832 10.6779 84.1742 15.4448 83.9098 17.733H81.2652L81.643 15.8262ZM78.5828 15.6737C80.9251 15.6737 81.643 14.0338 82.1341 12.0889H81.0385C79.5273 12.0889 76.996 12.3559 76.996 14.4152C76.996 15.216 77.7894 15.6737 78.5828 15.6737Z" fill="white"/>
<path d="M9.97396 5.52975H13.1097L10.5407 17.6569H7.40491L9.97396 5.52975ZM11.1074 0.305176H14.2431L13.6009 3.31789H10.4651L11.1074 0.305176Z" fill="white"/>
<path d="M22.5547 8.31349C21.9502 7.894 21.1191 7.70332 20.2501 7.70332C17.7566 7.70332 16.3588 10.0677 16.3588 12.3559C16.3588 13.9194 16.8877 15.5211 19.0034 15.5211C19.759 15.5211 20.7413 15.2923 21.5347 14.9109L21.1946 17.4279C20.2501 17.8855 19.1923 17.9999 18.1722 17.9999C15.0743 17.9999 13.0719 15.9025 13.0719 12.7754C13.0719 8.54231 15.8676 5.30078 20.1746 5.30078C21.3458 5.30078 22.4792 5.5296 23.3103 5.75841L22.5547 8.31349Z" fill="white"/>
<path d="M25.9927 0H29.1285L27.0506 9.95339H27.0884L31.4709 5.52966H35.5134L29.7708 11.0593L33.3599 17.6949H29.8463L26.7483 11.25H26.7106L25.3505 17.6949H22.2903L25.9927 0Z" fill="white"/>
<path d="M46.8096 5.52962H49.0764L49.6054 3.01267L52.9678 1.90674L52.2122 5.52962H55.0079L54.5168 7.85589H51.721L50.5876 13.1567C50.5121 13.4237 50.4365 13.8813 50.4365 14.3389C50.4365 15.0635 50.9277 15.5211 51.6455 15.5211C52.2122 15.5211 52.7789 15.4067 53.1567 15.2542L52.6278 17.6949C52.0989 17.8093 51.4944 17.9618 50.9277 17.9618C48.812 17.9618 47.3008 17.1228 47.3008 14.7966C47.3008 13.8432 47.4897 12.9279 47.7164 11.9745L48.5853 7.85589H46.3185L46.8096 5.52962Z" fill="white"/>
<path d="M45.7518 9.8771C45.7518 6.78812 43.7873 5.2627 40.8404 5.2627C36.8735 5.2627 34.0022 8.88558 34.0022 12.661C34.0022 16.2839 36.3446 17.9618 39.7826 17.9618C41.0671 17.9618 42.3894 17.6568 43.5984 17.2754L44.014 14.7585C42.8428 15.2924 41.596 15.6356 40.3115 15.6356C38.3091 15.6356 37.138 14.911 36.9868 13.0042C36.9868 12.8898 36.9868 12.7754 36.9868 12.661C36.9868 12.6229 36.9868 12.6229 36.9868 12.5847V12.5466C36.9868 11.7076 37.1757 10.9068 37.478 10.1441C38.0825 8.58049 38.9136 7.5127 40.7649 7.5127C42.0872 7.5127 42.7672 8.23727 42.7672 9.53388C42.7672 9.80083 42.7294 10.0678 42.6916 10.3729H38.4225C38.158 11.3263 38.0825 11.9746 38.0825 12.5466H45.4496C45.6385 11.6695 45.7518 10.7924 45.7518 9.8771Z" fill="white"/>
<path d="M56.368 6.86439C56.4436 6.40676 56.5569 5.911 56.6325 5.52964H59.5416L59.2771 7.16947H59.3149C60.146 5.911 61.5439 5.2627 63.0173 5.2627C64.453 5.2627 65.9264 6.10168 66.0775 7.58897H66.1153C66.9087 6.02541 68.6466 5.2627 70.3467 5.2627C72.1601 5.2627 73.6713 6.74998 73.6713 8.58049C73.6713 9.64829 73.4069 10.9068 73.1424 11.8983L71.8957 17.6949H68.7599L70.0067 11.7839C70.1578 11.0593 70.4222 9.91524 70.4222 9.19066C70.4222 8.31354 69.7422 7.74151 68.9488 7.74151C66.7576 7.74151 66.2286 10.2966 65.8508 11.9364L64.6041 17.6949H61.4683L62.7151 11.7839C62.8662 11.0593 63.1307 9.91524 63.1307 9.19066C63.1307 8.31354 62.4506 7.74151 61.6572 7.74151C59.5415 7.74151 58.9371 10.2966 58.5593 11.9364L57.3125 17.6949H54.1768L56.368 6.86439Z" fill="white"/>
<path d="M94.715 8.00841C94.375 7.81773 93.506 7.55078 92.6371 7.55078C91.6926 7.55078 90.5214 7.81773 90.5214 8.77112C90.5214 10.2965 94.6017 10.8686 94.6017 13.8432C94.6017 17.0084 91.8815 17.9618 89.1991 17.9618C87.9524 17.9618 86.6678 17.7711 85.5344 17.2372L86.2145 14.7203C87.0834 15.216 87.9901 15.6737 89.1991 15.6737C90.257 15.6737 91.3526 15.3304 91.3526 14.3389C91.3526 12.394 87.2723 12.2033 87.2723 9.15248C87.2723 6.29231 89.9925 5.30078 92.486 5.30078C93.6194 5.30078 94.7906 5.52959 95.4328 5.68214L94.715 8.00841Z" fill="white"/>
<path d="M96.7173 5.52962H98.9842L99.5131 3.01267L102.876 1.90674L102.12 5.52962H104.916L104.425 7.85589H101.629L100.495 13.1567C100.42 13.4237 100.344 13.8813 100.344 14.3389C100.344 15.0635 100.835 15.5211 101.553 15.5211C102.12 15.5211 102.687 15.4067 103.064 15.2542L102.535 17.6949C102.007 17.8093 101.402 17.9618 100.835 17.9618C98.7197 17.9618 97.2085 17.1228 97.2085 14.7966C97.2085 13.8432 97.3974 12.9279 97.5863 11.9745L98.493 7.85589H96.2262L96.7173 5.52962Z" fill="white"/>
<path d="M117.95 7.16947C118.025 6.63558 118.139 6.10168 118.214 5.52964H121.199L120.783 7.81778H120.821C121.388 6.48303 122.937 5.2627 124.372 5.2627C124.788 5.2627 125.204 5.30083 125.581 5.3771L124.939 8.46609C124.599 8.35168 124.146 8.27541 123.73 8.27541C121.501 8.27541 120.443 10.2966 120.028 12.2415L118.894 17.6949H115.759L117.95 7.16947Z" fill="white"/>
<path d="M115.796 9.8771C115.796 6.78812 113.832 5.2627 110.885 5.2627C106.956 5.2627 104.047 8.88558 104.047 12.661C104.047 16.2839 106.389 17.9618 109.827 17.9618C111.112 17.9618 112.434 17.6568 113.643 17.2754L114.058 14.7585C112.887 15.2924 111.64 15.6356 110.356 15.6356C108.354 15.6356 107.182 14.911 107.031 13.0042C107.031 12.8898 107.031 12.7754 107.031 12.661C107.031 12.6229 107.031 12.6229 107.031 12.5847V12.5466C107.031 11.7076 107.22 10.9068 107.522 10.1441C108.127 8.58049 108.958 7.5127 110.809 7.5127C112.132 7.5127 112.812 8.23727 112.812 9.53388C112.812 9.80083 112.774 10.0678 112.736 10.3729H108.467C108.202 11.3263 108.127 11.9746 108.127 12.5466H115.494C115.683 11.6695 115.796 10.7924 115.796 9.8771Z" fill="white"/>
</g>
<defs>
<clipPath id="clip0_2170_3860">
<rect width="125.581" height="18" fill="white"/>
</clipPath>
</defs>
</svg>
