<svg width="82" height="46" viewBox="0 0 82 46" fill="none" xmlns="http://www.w3.org/2000/svg">
<g clip-path="url(#clip0_6024_1300)">
<path d="M9.06163 0.000488281C14.192 0.000488281 18.3635 3.52947 18.4596 8.44113C18.5077 9.82384 17.5008 10.5874 16.3979 10.5874C15.343 10.5874 14.4322 9.82488 14.3842 8.53672C14.3361 5.77023 11.9872 3.71954 9.01361 3.71954C6.2322 3.71954 4.12349 5.67467 4.12349 8.34554C4.12349 11.2543 6.08916 12.5425 10.1646 14.0208C14.5273 15.5947 18.5077 17.4542 18.5077 22.986C18.5077 27.8032 14.7194 31.6656 9.44601 31.6656C4.26764 31.6656 0 28.0411 0 23.1294C0 20.0773 1.48625 17.931 2.92446 17.931C4.17154 17.931 4.93814 18.7413 4.93814 19.8383C4.93814 20.792 4.12349 21.221 4.12349 22.9382C4.12349 25.9904 6.61658 27.9455 9.44601 27.9455C12.4185 27.9455 14.3842 25.8948 14.3842 23.4151C14.3842 20.363 12.4185 19.0758 8.34307 17.6443C3.78824 16.0247 0 14.0686 0 8.68007C0 3.8162 3.93131 0.000488281 9.06163 0.000488281Z" fill="#DCDDD7"/>
<path d="M29.9866 31.6693C24.8083 31.6693 20.4937 27.5201 20.4937 22.2739C20.4937 16.8376 24.8563 12.7841 30.1308 12.7841C35.7885 12.7841 39.7677 16.981 39.7677 22.704V29.6664C39.7677 30.859 38.809 31.6693 37.7063 31.6693C36.5553 31.6693 35.5962 30.859 35.5962 29.6664V22.8463C35.5962 19.0784 33.4387 16.5031 30.0347 16.5031C27.0141 16.5031 24.6171 19.0306 24.6171 22.2739C24.6171 25.2783 26.9661 27.8536 29.9397 27.8536C31.0426 27.8536 31.522 27.5679 32.1936 27.5679C33.1044 27.5679 34.0632 28.3304 34.0632 29.4274C34.0622 30.9057 32.2875 31.6693 29.9866 31.6693Z" fill="#DCDDD7"/>
<path d="M51.582 45.8808C46.2116 45.8808 41.7528 42.0651 41.7528 37.1056C41.7528 35.4362 42.7116 34.6738 43.8146 34.6738C44.9174 34.6738 45.8282 35.3895 45.8764 36.7721C45.9243 39.8721 48.4174 42.1607 51.5341 42.1607C54.843 42.1607 56.9996 40.0623 56.9996 37.3434C56.9996 34.2435 54.6025 32.9564 50.5271 31.6682C45.7803 30.1421 41.7528 28.0437 41.7528 22.2261C41.7528 16.8844 45.8764 12.7841 51.2458 12.7841C56.6634 12.7841 61.1232 16.6943 61.1232 21.8449C61.1232 24.9926 59.8292 27.4246 58.0544 27.4246C56.8556 27.4246 56.0408 26.5665 56.0408 25.5172C56.0408 24.4202 56.9996 23.9434 56.9996 21.9883C56.9996 18.6972 54.4103 16.5042 51.2937 16.5042C48.2731 16.5042 45.8764 18.7938 45.8764 21.7982C45.8764 25.1838 48.3213 26.6153 52.3489 27.9502C56.9996 29.4763 61.1232 31.3836 61.1232 36.9633C61.1232 41.9705 57.1439 45.8808 51.582 45.8808Z" fill="#DCDDD7"/>
<path d="M72.8905 31.6682C67.5199 31.6682 63.1093 27.4713 63.1093 22.2262C63.1093 16.9799 67.3769 12.7841 72.6501 12.7841C77.9729 12.7841 82.0001 16.4564 82.0001 21.1302C82.0001 22.9419 80.7061 24.039 78.5964 24.039H73.0828C71.9797 24.039 71.1649 23.2764 71.1649 22.2739C71.1649 21.3203 71.9797 20.5567 73.0828 20.5567H77.206C77.5895 20.5567 77.8778 20.3655 77.8778 19.9843C77.8778 18.6016 76.1033 16.4553 72.7954 16.4553C69.727 16.4553 67.2339 19.0784 67.2339 22.2262C67.2339 25.4217 69.7749 27.9492 72.9394 27.9492C76.5838 27.9492 77.7827 25.8029 79.2688 25.8029C80.5159 25.8029 81.1866 26.6132 81.1866 27.5201C81.1866 28.3782 80.611 29.1418 79.1727 30.0477C77.7325 30.9525 75.5759 31.6682 72.8905 31.6682Z" fill="#DCDDD7"/>
</g>
<defs>
<clipPath id="clip0_6024_1300">
<rect width="82" height="46" fill="white"/>
</clipPath>
</defs>
</svg>
