<svg width="96" height="35" viewBox="0 0 96 35" fill="none" xmlns="http://www.w3.org/2000/svg">
<g opacity="0.7" clip-path="url(#clip0_6004_1461)">
<path d="M30.2918 11.5117H34.6324L36.2051 16.5443C36.3309 16.8588 36.3938 17.2362 36.5196 17.6137C36.6454 17.9911 36.7712 18.4315 36.8341 18.8718C36.96 19.3122 37.0858 19.7525 37.1487 20.1929C37.2745 20.6332 37.3374 21.0736 37.4003 21.451H37.5261C37.589 21.0106 37.6519 20.5703 37.7777 20.13C37.9036 19.6267 38.0294 19.1863 38.0923 18.746C38.2181 18.3057 38.3439 17.8653 38.4068 17.4879C38.5326 17.1104 38.5955 16.7959 38.6584 16.6072L40.1682 11.5746H44.5088L45.5153 25.9803H42.2441L41.9925 21.0736C41.9925 20.6332 41.9296 20.13 41.9296 19.5638C41.9296 18.9976 41.9296 18.4944 41.8667 17.9282C41.8667 17.3621 41.8667 16.7959 41.8667 16.2297C41.8667 15.6636 41.8667 15.4748 41.8667 15.0345H41.8038C41.678 15.5378 41.5521 15.7265 41.4263 16.2926C41.3005 16.8588 41.1747 17.3621 41.0489 17.8653C40.9231 18.3686 40.7973 18.9347 40.6085 19.3751C40.4827 19.8783 40.3569 20.3187 40.1682 20.759L38.5955 25.9174H35.9534L34.4437 20.759C34.3179 20.3187 34.1921 19.8783 34.0033 19.3751C33.8775 18.8718 33.7517 18.3686 33.6259 17.8653C33.5001 17.3621 33.3743 16.7959 33.2484 16.2926C33.1226 15.7894 33.0597 15.5378 32.9339 15.0345H32.871C32.871 15.5378 32.871 15.7265 32.871 16.2926C32.871 16.8588 32.871 17.425 32.8081 17.9911C32.8081 18.5573 32.7452 19.1234 32.7452 19.6267C32.7452 20.13 32.6823 20.6332 32.6823 21.0106L32.4307 25.9174H29.2224L30.2918 11.5117Z" fill="white"/>
<path d="M48.1572 11.5117H51.6171V22.9608H57.3416V25.9174H48.1572V11.5117Z" fill="white"/>
<path d="M64.2613 11.1973C65.2679 11.1973 66.1485 11.3231 66.9034 11.5118C67.6583 11.7005 68.2874 11.9521 68.7906 12.2667L68.0357 14.783C67.4696 14.4684 66.8405 14.2168 66.2115 14.091C65.5824 13.9023 65.0162 13.8394 64.513 13.8394C63.821 13.8394 63.2548 13.9652 62.9403 14.2168C62.5629 14.4684 62.3741 14.8459 62.3741 15.2233C62.3741 15.7266 62.5629 16.0411 62.8774 16.2927C63.2548 16.5443 63.7581 16.7331 64.513 16.9847L65.834 17.425C66.3373 17.6138 66.8405 17.8025 67.3438 18.117C67.7841 18.3686 68.2245 18.6832 68.539 19.0606C68.8535 19.4381 69.1052 19.8155 69.2939 20.2558C69.4826 20.6962 69.5455 21.1994 69.5455 21.7027C69.5455 22.3318 69.4197 22.8979 69.231 23.4012C69.0423 23.9044 68.6648 24.4077 68.1616 24.848C67.7212 25.2884 67.0921 25.6029 66.4002 25.7916C65.7082 26.0433 64.8275 26.1691 63.8839 26.1691C63.0032 26.1691 62.1225 26.0433 61.3047 25.8545C60.4869 25.6658 59.7321 25.4142 59.0401 25.0368L59.795 22.5205C60.424 22.835 61.116 23.0867 61.7451 23.2754C62.3741 23.4641 63.0032 23.527 63.6952 23.527C64.513 23.527 65.0791 23.4012 65.4566 23.1496C65.834 22.8979 66.0227 22.5205 66.0227 22.0801C66.0227 21.9543 66.0227 21.7656 65.9598 21.6398C65.8969 21.514 65.7711 21.3253 65.5824 21.1994C65.3937 21.0736 65.142 20.8849 64.8275 20.7591C64.513 20.6333 64.1355 20.4446 63.6323 20.3188L62.4999 19.9413C61.9967 19.7526 61.4934 19.501 60.9902 19.2493C60.5498 18.9977 60.1095 18.7461 59.795 18.3686C59.4804 18.0541 59.2288 17.6138 59.0401 17.1734C58.8514 16.7331 58.7885 16.2298 58.7885 15.6007C58.7885 14.9717 58.9143 14.4055 59.1659 13.8394C59.4175 13.3361 59.7321 12.8328 60.2353 12.4554C60.6757 12.078 61.3047 11.7634 61.9338 11.5118C62.6258 11.3231 63.3806 11.1973 64.2613 11.1973Z" fill="white"/>
<path d="M71.8103 11.5117H77.0316C77.9123 11.5117 78.6671 11.6375 79.3591 11.8263C80.0511 12.015 80.6802 12.3295 81.1834 12.7069C81.6867 13.0844 82.0641 13.5247 82.3157 14.0909C82.5674 14.6571 82.6932 15.2861 82.6932 15.9781C82.6932 16.7959 82.5045 17.5508 82.1899 18.1798C81.8754 18.8089 81.435 19.3122 80.8689 19.6896C80.3027 20.067 79.6737 20.3816 78.9817 20.5703C78.2268 20.759 77.4719 20.8848 76.6541 20.8848H75.2073V26.0432H71.8103V11.5117ZM75.3331 18.1798H76.5912C76.9058 18.1798 77.2832 18.1169 77.5977 18.054C77.9123 17.9911 78.2268 17.8653 78.4155 17.6766C78.6671 17.4879 78.8559 17.2991 78.9817 17.0475C79.1075 16.7959 79.1704 16.4814 79.1704 16.1039C79.1704 15.4748 78.9188 14.9716 78.4784 14.5942C78.0381 14.2796 77.409 14.0909 76.6541 14.0909H75.2702L75.3331 18.1798Z" fill="white"/>
<path d="M86.9708 11.5117H90.6823L95.9036 25.9174H92.1921L91.1856 22.8349H86.3418L85.3352 25.9174H81.6866L86.9708 11.5117ZM87.0966 20.3187H90.3678L89.8016 18.5573C89.6129 17.9911 89.4242 17.3621 89.2355 16.733C89.0467 16.1039 88.858 15.4748 88.7322 14.9716H88.7951C88.6693 15.5378 88.4806 16.1039 88.2919 16.733C88.1031 17.3621 87.9144 17.9911 87.7257 18.5573L87.0966 20.3187Z" fill="white"/>
<path d="M12.9294 7.61172C14.1875 7.54882 16.2635 6.29068 16.1376 3.27115C16.0747 0.880695 14.2504 0 12.6778 0C11.168 0.0629068 9.34371 1.00651 9.40661 3.39697C9.46952 6.54231 11.6083 7.67463 12.9294 7.61172Z" fill="white"/>
<path d="M22.4285 10.065C23.5608 10.065 25.448 9.0585 25.448 6.2906C25.448 4.21468 23.8124 3.33398 22.4285 3.33398C21.0445 3.33398 19.4089 4.21468 19.4089 6.2906C19.4089 8.9956 21.359 10.065 22.4285 10.065Z" fill="white"/>
<path d="M3.11596 10.065C4.24828 10.065 6.13549 9.0585 6.13549 6.2906C6.13549 4.21468 4.49991 3.33398 3.11596 3.33398C1.73201 3.33398 0.0964355 4.21468 0.0964355 6.2906C0.0964355 8.9956 1.98364 10.065 3.11596 10.065Z" fill="white"/>
<path d="M6.19844 12.7072C6.07263 12.896 5.94682 13.0218 5.88391 13.1476C4.56287 15.1606 4.18542 17.5511 4.18542 19.8786C4.18542 22.1433 4.62577 24.5337 5.88391 26.4209C6.57588 25.729 6.95332 24.9112 7.26786 23.8418C6.57588 22.1433 6.45007 20.1303 6.63879 18.3689C6.82751 16.4187 7.45658 14.4057 9.02925 13.1476C11.1681 11.3862 14.3763 11.3862 16.5152 13.1476C16.8297 13.3992 17.0813 13.6508 17.3959 14.0283C17.8991 14.7203 18.2765 15.4751 18.5282 16.2929C18.7169 16.7962 18.8427 17.2994 18.8427 17.8656C19.0943 19.8786 19.0314 22.0175 18.2765 23.8418C18.5282 24.8483 18.9685 25.729 19.6605 26.4209C20.7299 24.8483 21.1703 22.8981 21.359 20.948C21.5477 18.8721 21.359 16.6075 20.5412 14.7203C20.2896 14.1541 20.0379 13.5879 19.6605 13.1476C16.641 8.42958 9.59541 8.36668 6.19844 12.7072Z" fill="white"/>
<path d="M20.4782 12.267C20.9185 12.959 21.3589 13.651 21.6105 14.3429C22.0508 14.2171 22.4912 14.0913 22.8057 14.0284C22.8057 15.4753 22.8057 16.985 22.8057 18.4319C22.8057 20.0674 22.9315 21.7659 22.6799 23.4015C22.3654 25.2887 21.5476 27.0501 20.2894 28.4341C16.7037 26.421 15.9489 21.2627 17.6474 17.7399C17.4586 16.6076 17.0812 15.7269 16.5779 14.972C15.3827 16.4818 14.7536 18.369 14.5649 20.2562C14.3133 22.5208 14.5649 24.9113 15.6343 26.9243C16.3892 28.3711 17.3957 29.3777 18.4022 30.0696C15.0682 32.2085 10.5389 32.2085 7.20482 30.0696C8.33715 29.2518 9.28075 28.1824 9.97272 26.9243C11.0421 24.9113 11.2938 22.5208 11.0421 20.2562C10.8534 18.3061 10.2243 16.4818 9.02912 14.972C8.52587 15.7269 8.14843 16.6076 7.9597 17.7399C9.65819 21.3256 8.8404 26.3581 5.31762 28.4341C3.55623 26.421 2.80135 23.9677 2.80135 21.3256C2.80135 19.4384 2.80135 17.5512 2.80135 15.7269C2.80135 15.1607 2.80135 14.5317 2.80135 13.9655C3.11588 14.0284 3.55623 14.1542 3.99658 14.28C4.31111 13.4622 4.75146 12.7703 5.1289 12.2041C3.61914 11.6379 1.98356 11.5121 0.410889 11.5121C0.410889 14.4687 0.410889 17.4254 0.410889 20.382C0.410889 21.8288 0.410889 23.3386 0.725423 24.7855C1.29158 27.3017 2.73844 29.5035 4.62564 31.139C8.71459 34.5989 14.8165 34.9764 19.3458 32.2714C21.4847 30.9503 23.2461 29.0002 24.2526 26.6098C24.9445 24.9113 25.1333 23.1499 25.1333 21.2627C25.1333 18.1173 25.1333 14.9091 25.1333 11.7638C25.1333 11.6379 25.1333 11.575 25.1333 11.4492C23.4977 11.575 21.9879 11.7008 20.4782 12.267Z" fill="white"/>
</g>
<defs>
<clipPath id="clip0_6004_1461">
<rect width="96" height="34.0955" fill="white"/>
</clipPath>
</defs>
</svg>
